<mxfile host="app.diagrams.net" agent="Mozilla/5.0 (Windows NT 10.0; Win64; x64) AppleWebKit/537.36 (KHTML, like Gecko) Chrome/131.0.0.0 Safari/537.36" version="25.0.3">
  <diagram name="Page-1" id="hmNkLkzNNhmqginI56Zq">
    <mxGraphModel dx="1444" dy="811" grid="1" gridSize="10" guides="1" tooltips="1" connect="1" arrows="1" fold="1" page="1" pageScale="1" pageWidth="827" pageHeight="1169" math="0" shadow="0">
      <root>
        <mxCell id="0" />
        <mxCell id="1" parent="0" />
        <mxCell id="IUDHi638Zl7lMzYL7OI1-48" value="" style="endArrow=none;html=1;rounded=0;dashed=1;strokeWidth=3;" edge="1" parent="1">
          <mxGeometry width="50" height="50" relative="1" as="geometry">
            <mxPoint x="560" y="560" as="sourcePoint" />
            <mxPoint x="560" y="190" as="targetPoint" />
          </mxGeometry>
        </mxCell>
        <mxCell id="IUDHi638Zl7lMzYL7OI1-1" value="Heterogeneous Computing" style="rounded=0;whiteSpace=wrap;html=1;fontSize=30;fontStyle=1" vertex="1" parent="1">
          <mxGeometry x="200" y="50" width="1160" height="60" as="geometry" />
        </mxCell>
        <mxCell id="IUDHi638Zl7lMzYL7OI1-2" value="CPU" style="rounded=0;whiteSpace=wrap;html=1;fontSize=25;" vertex="1" parent="1">
          <mxGeometry x="200" y="190" width="320" height="50" as="geometry" />
        </mxCell>
        <mxCell id="IUDHi638Zl7lMzYL7OI1-3" value="GPU" style="rounded=0;whiteSpace=wrap;html=1;fontSize=25;" vertex="1" parent="1">
          <mxGeometry x="589" y="190" width="510" height="50" as="geometry" />
        </mxCell>
        <mxCell id="IUDHi638Zl7lMzYL7OI1-4" value="xPU" style="rounded=0;whiteSpace=wrap;html=1;fontSize=25;" vertex="1" parent="1">
          <mxGeometry x="1159" y="190" width="200" height="50" as="geometry" />
        </mxCell>
        <mxCell id="IUDHi638Zl7lMzYL7OI1-5" value="NPU" style="rounded=1;whiteSpace=wrap;html=1;rotation=15;" vertex="1" parent="1">
          <mxGeometry x="1162.59" y="456.61" width="176" height="34.5" as="geometry" />
        </mxCell>
        <mxCell id="IUDHi638Zl7lMzYL7OI1-6" value="KPU" style="rounded=1;whiteSpace=wrap;html=1;glass=0;" vertex="1" parent="1">
          <mxGeometry x="1263.5" y="348" width="90" height="29.77" as="geometry" />
        </mxCell>
        <mxCell id="IUDHi638Zl7lMzYL7OI1-7" value="TPU" style="rounded=1;whiteSpace=wrap;html=1;rotation=-25;" vertex="1" parent="1">
          <mxGeometry x="1167.17" y="318.46000000000004" width="90" height="29.77" as="geometry" />
        </mxCell>
        <mxCell id="IUDHi638Zl7lMzYL7OI1-8" value="OpenGL (ES)" style="rounded=0;whiteSpace=wrap;html=1;" vertex="1" parent="1">
          <mxGeometry x="588" y="330" width="112" height="30" as="geometry" />
        </mxCell>
        <mxCell id="IUDHi638Zl7lMzYL7OI1-10" value="Vulkan" style="rounded=0;whiteSpace=wrap;html=1;" vertex="1" parent="1">
          <mxGeometry x="890" y="330" width="209" height="30" as="geometry" />
        </mxCell>
        <mxCell id="IUDHi638Zl7lMzYL7OI1-12" value="ARM Mali" style="rounded=0;whiteSpace=wrap;html=1;" vertex="1" parent="1">
          <mxGeometry x="591.5" y="517" width="108.5" height="33" as="geometry" />
        </mxCell>
        <mxCell id="IUDHi638Zl7lMzYL7OI1-13" value="GLSL" style="rounded=0;whiteSpace=wrap;html=1;fillColor=#dae8fc;strokeColor=#6c8ebf;" vertex="1" parent="1">
          <mxGeometry x="590" y="380" width="290" height="40" as="geometry" />
        </mxCell>
        <mxCell id="IUDHi638Zl7lMzYL7OI1-14" value="SPIR-V" style="rounded=0;whiteSpace=wrap;html=1;fillColor=#dae8fc;strokeColor=#6c8ebf;" vertex="1" parent="1">
          <mxGeometry x="890" y="380" width="209" height="40" as="geometry" />
        </mxCell>
        <mxCell id="IUDHi638Zl7lMzYL7OI1-16" value="LLVM" style="rounded=0;whiteSpace=wrap;html=1;fillColor=#dae8fc;strokeColor=#6c8ebf;" vertex="1" parent="1">
          <mxGeometry x="200" y="380" width="320" height="40" as="geometry" />
        </mxCell>
        <mxCell id="IUDHi638Zl7lMzYL7OI1-17" value="NVIDIA CUDA" style="rounded=0;whiteSpace=wrap;html=1;" vertex="1" parent="1">
          <mxGeometry x="717" y="517" width="120" height="33" as="geometry" />
        </mxCell>
        <mxCell id="IUDHi638Zl7lMzYL7OI1-18" value="AMD ROCm" style="rounded=0;whiteSpace=wrap;html=1;" vertex="1" parent="1">
          <mxGeometry x="847.3" y="517" width="122.7" height="33" as="geometry" />
        </mxCell>
        <mxCell id="IUDHi638Zl7lMzYL7OI1-19" value="Apple Metal" style="rounded=0;whiteSpace=wrap;html=1;" vertex="1" parent="1">
          <mxGeometry x="980" y="517" width="120" height="33" as="geometry" />
        </mxCell>
        <mxCell id="IUDHi638Zl7lMzYL7OI1-20" value="ARM NEON" style="rounded=0;whiteSpace=wrap;html=1;" vertex="1" parent="1">
          <mxGeometry x="205" y="330" width="90" height="30" as="geometry" />
        </mxCell>
        <mxCell id="IUDHi638Zl7lMzYL7OI1-21" value="AVX512" style="rounded=0;whiteSpace=wrap;html=1;" vertex="1" parent="1">
          <mxGeometry x="420" y="330" width="90" height="30" as="geometry" />
        </mxCell>
        <mxCell id="IUDHi638Zl7lMzYL7OI1-22" value="RISC-V Ext" style="rounded=0;whiteSpace=wrap;html=1;" vertex="1" parent="1">
          <mxGeometry x="311" y="330" width="90" height="30" as="geometry" />
        </mxCell>
        <mxCell id="IUDHi638Zl7lMzYL7OI1-23" value="x86 / x64" style="rounded=0;whiteSpace=wrap;html=1;" vertex="1" parent="1">
          <mxGeometry x="200" y="517" width="76.5" height="35" as="geometry" />
        </mxCell>
        <mxCell id="IUDHi638Zl7lMzYL7OI1-24" value="RISC-V" style="rounded=0;whiteSpace=wrap;html=1;" vertex="1" parent="1">
          <mxGeometry x="360" y="517" width="80" height="35" as="geometry" />
        </mxCell>
        <mxCell id="IUDHi638Zl7lMzYL7OI1-25" value="ARM" style="rounded=0;whiteSpace=wrap;html=1;" vertex="1" parent="1">
          <mxGeometry x="286.5" y="517" width="60" height="35" as="geometry" />
        </mxCell>
        <mxCell id="IUDHi638Zl7lMzYL7OI1-26" value="WASM" style="rounded=0;whiteSpace=wrap;html=1;" vertex="1" parent="1">
          <mxGeometry x="449.69" y="517" width="70" height="35" as="geometry" />
        </mxCell>
        <mxCell id="IUDHi638Zl7lMzYL7OI1-28" value="LLVM &amp;lt;==&amp;gt; SPIR-V Converter" style="rounded=0;whiteSpace=wrap;html=1;fontSize=20;" vertex="1" parent="1">
          <mxGeometry x="200" y="440" width="900" height="60" as="geometry" />
        </mxCell>
        <mxCell id="IUDHi638Zl7lMzYL7OI1-29" value="" style="endArrow=none;html=1;rounded=0;strokeWidth=3;" edge="1" parent="1">
          <mxGeometry width="50" height="50" relative="1" as="geometry">
            <mxPoint x="1132" y="550" as="sourcePoint" />
            <mxPoint x="1132" y="190" as="targetPoint" />
          </mxGeometry>
        </mxCell>
        <mxCell id="IUDHi638Zl7lMzYL7OI1-31" value="Pytorch / Apache TVM / Taichi Lang" style="rounded=0;whiteSpace=wrap;html=1;fontSize=25;fillColor=#fff2cc;strokeColor=#d6b656;" vertex="1" parent="1">
          <mxGeometry x="200" y="120" width="1160" height="60" as="geometry" />
        </mxCell>
        <mxCell id="IUDHi638Zl7lMzYL7OI1-32" value="" style="shape=image;verticalLabelPosition=bottom;labelBackgroundColor=default;verticalAlign=top;aspect=fixed;imageAspect=0;image=data:image/png,iVBORw0KGgoAAAANSUhEUgAAAOEAAADhCAMAAAAJbSJIAAAAY1BMVEX///9Ol8A5jrtJlb8/kbyCsc+HtNHU5O6/1uX1+fs9kLzh7PNppMhFk743jbu30eJ4rMygw9rp8fbN3+ve6vJwqMqawNhbncSvzN+QutSyzuCmx9yEs9BXm8LH2+jo8PYdhbZqA6uuAAAGzklEQVR4nO2bW2OyOhBFuWgVKnivVazt//+Vn4gi2ZNkEo88nb0eLYEsCDOZhCYJIYQQQgghhBBCCCGEEEIIIYQQQgghhBBCCCGEEEIIIYQQQgghhBBCCCGEEBJLM0VWn0qT3Uq0eXI+H9fLWeFubTRWr9VzMq7StD8V69N6qbfMqhyYnJUmswybDKnyqirrQ7MJumDluRdDLsY1uy4286bZbrWWy0kqyJSrzixtBFW2n9kNjcPynyDBXW2e/KP97be5nJMvrenB1rn1Gwyvnc8WtueYwVH7AMFNCT28GX42mw/VcAdNO8q3GLaO36ph11sFPHHXZn1JTnP7QHlyzG09m/jf32DD672S7zQapmWjCS4qq2Gxbr4uWlvrI7zyLsO0WqmGaTb3d3KKgkHPvcMWZ2631RuhYgzTCXZGGqbZzne5L/kYwg1tcaYlX7zNMM1gyFsM09KVWq4sLQ2CDXe2q3Xd8mXiOENMPvZrui9mOz7Y0B5nWnLfKSINq6lu6Bw0v9bDgw2dj9Cf9YVh1lNWlptW/+oXlRHpRmF/BqGGJxGjBufwZH00XBQPNrPlNBOdyo8Bt7W0pu7DfzP8cQteY2CwIYyw4ixinzGDcA2c0pKE947XKNDQ+g4/Dd1Z3294nRHjKC6HEw93dBMp6uh64QMNP8wbJG7Xy4bJCs5VDSdv7vua/Zqn+XYeGmZYwCT/vDb75c76qiHOdo3I7Bk5Zil1qd0HBhl+m3Gm3EJgdmd91TCBEGbUDx5Do5TauQUDDSHOVNcJrvkQnVlfN8QIMTzC9/YPbkXhmjIHG87MM1TXYH0xf3Jmfd0QX8RQw8EsVsaFWEOYsJftA4PBVTuyvm4IoyEfpnOvYV9KLXyCQYYFjPJD+2NjKrqyvm6IkWaY8v2GaX2r+GTBFG0IcaZa2rQdtb5qiJOe6hRumNbXUmqtzHyD1gXMUXAfkPD+OLK+aohDzKj/NMO0LObaMQGGEGfyqfVnR9bXDI84xPLhX7H3cu74I4ZoDoVsgOHUkd3hcvas7zfc7HGIVcZCDBiWmxyDiggy1fRinlM3hPnM8yZDuWHP+qK2SPraYrdcydrCrMTQMPnUxmR+SOaxhhhnnkEThqk164v6sHxgrQ9Lc0kRDYtkqyjmRbwhDIzBlBfKfmvWj6vxcRxIQ88U+3bEtXexhlt4UoM+4JCx1fqRhnAGi6G7TGp70JZesYa+pLAwz2/L+jGGeY7LaDZDZ6n7KIwjDTGxZ8M/zuH5WrJ+hGF1EGPAauharngsbkQa4uTMXHmH7luyfrhhfRSNHYauJaf7jDbSEE5Wmpsba8y3LxuWB9tatt3QvmyYH5JXDDHO5OafN9gFkfVDDUP2D3vDZGureB9/jDOEOCNiCfxdbvCF7h/urWv1LsPkJJ5i1p8gynCDcQb7gc9YZP3QZ5jL1TOfYXLECz8HQZRho07MUiXrC8Nuc93iWFu299yGycro2nDTLcoQAslEbt7BnE5kfTT8uX0esZ+UUrKWsz6PoZEzJsNF8BjDLXQvk4fgvBzfVFdtMdvL1aNcnN1nWDzvrbmfE2MIswfrsVjgQdZ3V09yr0+e32f4DOSV+fJEGGIuSKtMghkRsr6nPpyJkF9jTvQaPrcazEYRhiKfB2F+9OKrgHHSd1/jCjZMlrcT4KZwhOFLgpD1vTW+WMIoIZ4qhu22fV7jZCHc8OJbSXZjZn3/KoZYhICvnjTDZJpXIr6HG7qrFD9G1vcb4oQB85FqaCPYUMSZUIysr6y1ieVq8yGOa/j12muYmiv8iqH4wsN8E8c1jPuIwjjnIOtr66XiVTDC6aiGL8aZrifhhmL7PPPscr/X0L+h42eQ9aNX9X07pG81FGV06cMdL1TDC74Nwx36MQ0xzmSzTze/H7jY0Wd9fXcNc+IwFI9piKsX/q9z8Yk/D9cNsf4ahuIRDcU6ofL1qdgje2R93VB+CLx2/emdhthj5VtnEXn7oRZg+IVv8fNi4xnien1uWcs0waH2qPUDDGWR1m/PjGeIt9X/YW4LrOj0Qy3AUHyNkfcF33iGmO31f3TA1f/HUAsxFFm/fMy/RzOEY8yvBxzgg7hn/RBD+YH1Y+o2miHsKan/GHNTEbO8cENR7D/y6ViGIs7Yv8kF8CuCrpdBhrgL2x82liF+0q0lww78irjL+mGGJ7EXvhvVUBTeIeeVzW5ZP8xQlGr3YTOS4XdtrhfW6r98dRyxXdvL2Z/5I66m3WmgbfZ3e4jQ+C/IcGmeq57qTQghhBBCCCGEEEIIIYQQQgghhBBCCCGEEEIIIYQQQgghhBBCCCGEEEIIIYT87/kH1ONWL+vL9aUAAAAASUVORK5CYII=;" vertex="1" parent="1">
          <mxGeometry x="212.5" y="254.76999999999998" width="65" height="65" as="geometry" />
        </mxCell>
        <mxCell id="IUDHi638Zl7lMzYL7OI1-33" value="" style="shape=image;verticalLabelPosition=bottom;labelBackgroundColor=default;verticalAlign=top;aspect=fixed;imageAspect=0;image=data:image/png,iVBORw0KGgoAAAANSUhEUgAAAP4AAADHCAMAAAAOPR4GAAAAwFBMVEX///8qMXL2shr2rwAdJm2GiagbJGz1rAD62qMjK28gKG4AEWYADWUSHWq8vs5cYIy2uMkMGGjS092SlLBtcJZzdpvb2+R8f6Hg4ejr7PEAAGMlLXD86sz3uTj98N339/n++fD85cEOGmmbnbb+9ecABWP4xWj5z4fJytf61pr5zH74yHD85sT73q+pq8BCR373u0T2tjD5zYL4wVw4PnlRVYZhZZBKT4L73Ks+RHxVWYgAAFb61JMxN3Who7r3uDbVi5AgAAAMTUlEQVR4nO2de1/iOBSGG4tlSqlDUS5SFURRdBSdGR0dd4b9/t9qoTS9npzmUmi68v6z+5Np2qdJ8+ZykhjGlnXx+Ofu7su2dbdtDAWd3R40m+ZW1ayaEdf13UHTPNieNMdf6exmiy9Af3zDmNxv7QXUAX/1Ar41PzP+ygjOt1IA6oJvGF+2UQDqg29cfy+/ANQI3zDKrwFqhV/+B1AvfOOhZP6a4Rtn5fLXDb9k/trhl8tfP3zjsUT+GuIbP8rz/zriG8+l8dcSf/K58Y3Lsj7/euIbP0vK/13iL056hRocL46GxUlNSsr+XeIfuq1iWZbrzD6WRa/grpzs3yl+g3DKtpyXBZ7Y/xl/Jd91rrDE3kvh1xZ/Jcs6QlL73+MT0u6xU/tSBr/e+MR6GTOTK6Py1xx/VQmespL7VkL2645PfCZ/GT1f7fGJ/cJK7zPk/ur7P2Gkd6vOXwN84jD8r4TSXwd84jIS/CT41jGcoHq/rxb4pA27v3rLpx74Ftz8P/sk+MQGE1Tv9dcE3+uCKarSH5j1wGdUfqp1X/OhHvj+bzDFezV8836H9Cr4ZAbW/apDXrukV8KHP/5HJfzmRW3w3Q6U4oMKvvllp/RK+NYSSlHF+M3n3dIr4TfAqv9CwfjNSZ3wD0vGb17umF4rfPPbrunVvn2w8Cv0+HcNr1XVt2PPC6RkfOCIz6UkvlnFKg6lZk8fSlFypmvnnhdIqdELpvhHEn+yW/CNVLo8H2CKcjMdu/e8QCodXrDmM/6Vyvvde14gBfw2HO4g53s7xqaSx/efwASlWj1VeF4gefwp2N+T6u9W4nmB5PHhkU6ZwZ5qPC+QND4j82VGOqvxvECy+Db85ct8+hV5XiBZ/BEjyk18kqcqzwskie/Bnm8Y58KZX5XnBZLDZ07vi5f9yjwvkBS+BTd3DYnohuo8L5AMPpteOLalQs8LJIHvsAP7hNs8zcnuUCEJ49szhuGvJQhfqecFEsT3nQ9mTJ945lfqeYGE8FvO0xxLTDTzK/W8QNz4fmPa7sEz+lSik5vVel6gCL9hseW6XvvlEAvlXks0rqNizwtE8RvHbC0XR312FHMkwbiGqj0vEMVvK6f0Lpj5VXteoAifI3tRXYvSV+15gUrDF4PXwPMClYUvHNDETooRLroVlYQvOsSFeN7wH6UnEVM5+Lclet5f9VqYX6Xg/xGlRzxvYDkKTyKqMvDvRcc4EM87apOa4QvXeojnjT1SCb6HdORQTYT3bcI879WuBt9nLk7CJbNqn53a1ZRUg08aX2Uul9iyCvG8/ohUhU9cME4L1aMpMaP1h50e8avDJ07B8vSszp4lCj7meT2LVIhPRvhoRloXP6Um8jHPc0il+MThrv4vn+W26kQ879QhFeP7hOuai1uJbz4Q5nlvdtX4pPVaeMF6n2L5mG12ulcuqRyfuMjeBMbF5e2qzCvEqxd6XtX47KlbYx2tq7hMB/E839cCn4yQkXy1fdkwzzuxiB74rHi1QKI925QQz+s4RBd8v4V0/m7kiz+P52mAzwzbCSS9Lx2X5+mAz47dWEs699lJHrtEJ3wyRQZbRcfzQyGe1x0RvfDJDJnPk1qsgnley9cNn4zAlQobSdgf6nnZJ9AAn7hI9S9uf7yepw0+e2ceQ9z+mo/MpE7buVvrgE+sX8hVYvZn3rBTevJzd9YCHx/8Est9djoZz9MIn7SREC4R+xPwPJ3w0cEvfvvDPM+CbqsLPjr3wW1/iOf9ammNb/9FruS0P8TzFh54V23wSYsdvctpf5jnzeCb6oNP3AFyLYf9YZ7324bvqRE+PvfBkfvInQHP0w4fHfwqtL/mGfPaOaPoa4ZP2kj1X2B/iOeNQc/TEN/3kd4Pbn/n7Athz9MQn7TekOux1SvinqcjPrGwuQ+2/SGeN2R++BriEw/bmJxlf5jnveT7eRrjo4NfTPtDbsqu97TEJzNk7gO2PynP0xXft5DqH7I/zPNY7R198fG5D8D+EM/7yvY8bfHxuY+c/Ul6nr746NxH1v4wz4MGeGqAjw5+GalDWTHP+4t5ns746NxHyv6QrWYHqOdpjU9cpPeTsD/M8/LD+vXBRwN/I/vDPG/KcRdt8fHAX2p/iOd9FHie5vj43MfG/hDPW/Jkvs74+ODXemEDEsNS7Hna4+OBv+em+YP9a7Hn6Y+PB/6ayIfP4Xk1wEcDfy+umT8dcXheDfB5An8BjYua+nXBx+c+WHplTGrUD584SOAvQ1dcnlcPfHTuA1Sfz/Nqgo8G/kIifJ5XF3zfFlr12eP0vLrg43MfWR3lgtfqjo8PfqU1FqKvBz4+95ESMp9XX3x87iMhsaJfG3zmhpUZFQzrV4o/aLvSmo54lj32XFtMo61Dx+oeqYij9dN/+yooEU/Za6+99tprr7322muvvfba61Oow60jzg2aTrvcwgJ/diOBoQqv3Us9b38eMMyT49fDget4vGrnAz/G3c7yCtn9ORQQMHZxFqp4F+8J/adnhtCYUmuWjFPvzaZrzRLvpDcSGQizM2t+T5dvM89FNv6m8oAZw0mzaa7VLD6O/GbzL83moxg+IRaJB6sGG9T4hMGhLTYKmMY/7Y0szokd8EBTutm7eVtAHwVUnRui+MSOI9Wy+ENHYFoqSCuJfzXiH9uGz3ONguTYAQOB6PF364XCYg+8kh8t08zgj11B+iT++JV/OpeF/xDmqvkTpafnQQT7wgg+8UoW/fAy+FwRaCnF+GMidDGMH+3/2nzA8GkobRBOJvrIJB6rT+PHMxPYqQUpTSP8N7FXx8CPo0QR+h8084OTy2mKbrFP0SnXxgDCp3squOSw2LhC0Yi35OrMljstfJIRI1aEBskjG1pnXhGl7wyL1F/alBDApxtquOJRHEY3Wqniu15vMS9uL7HmilIFGxRdRRUGEYf3nXLFXoT4YZxaCr+zyUDGcZO4okAGi2AB8ByiQbLM8PjLTPUohH+4+US9TfM3hX+1+TSyLRkeLWjRb6tvs09Pd2NFiGfNUQy/UYTvS0w30W0HRXe9hRQd7/Yd/JmedxxFkAvhh9UbVPhpFjqCETyGMQ+j9xrYwk9u0RONzXfgx+gcnKhhLILfddhVXz/8zX8S5S/tqI9AecKE6PKheN1QiN84Lu7xLkPno66bNj7a3Pe9doGcj2WSNFyd2iol8+OjLc373E9RYz/eGoVaTqO4w0t9H272LPlDEmxrFFdy49D14KPpMU0OzpP6Hrb1otot1/P9nv+F+5kjWbTJlWn0ZjeRQ+X+pT2nYfjVeMKVRuZEK7oqAMjjjd6BciFMb7O6POB2SuxkKG4/rPkc4U8/g2/SRRFR0z+zSiJqEyX+JkrvW8wO7wJfZpxNaHqawhev+Vj413Dtd59q7Mvh29O4jOaGOxYjkfJvb5oIQ5r7wkddsPDz7r4W3CKgD9NiKBVTbjtviYfM4RvdhkhI1jRo5ozDzoInstU9jg82/Z/p31LtQfoshwNY8V7Ivjf7mqqd8/ir+r/hFA7W0c6tvzmRPHxjlnCbb9JMK8bPtuzhPyXwfeZN6Npx/yM7LA3hr0rAoqibO6CLNDYZ/mtTwCSayxdpTeJf8lnN6AvSYs28R7RbTq50wvgcos1cK4hxjZrLJY765z50sDowOPBjQ8tuRSqNT/sOm4beaZi+je11JqpMNT9hjQMV40e7Q2b3YpPHP071jk/Cz8tT7Oyn1EwVdlZTgAc/WlI0TQdkK+A3Erkfr9Rsi653QfSeHM9lNgS58KNF1OnV+MqF3wpfZ7RYsX1YSq8vULKBH/1/bgaABz/aNsZvJf+axh9za/4a9g4dWplG5yw02r1O97RYHG8pMZeDdAK58KNNg1rJsawU/vGsqJ8baRp+S/GESWKhcsv1nEKxRnpTuolqP2p6wBAAH77xFD6yl2icQINdIkp86nOh7hJrnD+teOCD/hfYHIUTPzoMYcRo84vjp3Y1m89Eugtc+JHXU/0L/BtO/Gg1cVxiFfEb6VbekAgkwIef2RkMHPzlxY+q5zjTlPDdXBt3MONessuJnzr4Dx7658aPdoxzaOtEAd+eAZVX983hnOrjxE9tjAdP/GwmzRyOtUDD0XTVmWu0bLocJ40/5V5407Lab3DvtttzPLfRYHW+I/GeA5jYGYcx7dcPxZHYcH60WB4PTt5+A/idXye8GiyQYb1+5+qwUAPeznG8MRg87fEf489VdZmQkBIAAAAASUVORK5CYII=;" vertex="1" parent="1">
          <mxGeometry x="330" y="263.76" width="60" height="47.01" as="geometry" />
        </mxCell>
        <mxCell id="IUDHi638Zl7lMzYL7OI1-35" value="" style="shape=image;verticalLabelPosition=bottom;labelBackgroundColor=default;verticalAlign=top;aspect=fixed;imageAspect=0;image=data:image/jpeg,/9j/4AAQSkZJRgABAQAAAQABAAD/2wCEAAkGBw8PEBAPDRAQDxAPEA4QDw4NFRcODw4PFRUWFhUVFRYYHSghGBolHhUVITEhJSkrLi8uFx8zODUsNygtLisBCgoKDg0OGxAQGy8lICYvLjI2Ly0tLy0vKzAtMS0tLS0tLS8uLS0vLTUtLS0tLS0tLS0tLS8tLS0tLS0tLS0tLf/AABEIAKgBKwMBEQACEQEDEQH/xAAcAAEAAgIDAQAAAAAAAAAAAAAABgcEBQIDCAH/xABMEAABAwIBBQoICQwCAwEAAAABAAIDBBEFBgcSITETIkFRYXFzgZGhFDIzNHKSsbIjNUJSU1R0s8EWFyRDRGKCk6LC0tNj0aPh8CX/xAAaAQEAAwEBAQAAAAAAAAAAAAAABAUGAwIB/8QANBEAAgIAAwQHBwUBAQEAAAAAAAECAwQFESExMnESM0FRgaGxExVCUpHR8BQiNGHB8SPh/9oADAMBAAIRAxEAPwC8EAQBAEAQBAEAQBAEAQBAEAQBAEB8JsLk2A4TqCA09flVh8F91qorja2M7q4dTLlSIYS6e6L9PUjzxdMOKSNDV5zaJtxFHPKeA2EbT2m/cpcMrtfE0iLPNKVuTZpqrOnMb7jSxt4jK90ncA32qRHKY/FL88yNLNpfDE1k+cfEXeKYY+jjv7xK7xyyhd78ThLNLnu0RgyZb4m79qcPRZG32NXVYDDr4fU5PMMQ/i8kdDsrMRP7XN1Ot7F6/R0fKjz+tv8AmZx/KnEPrc/rlff0lHyIfrb/AJmdjMr8Sbsq5f4rO9oXl4Kh/Cj6sdeviMuDL7E27Zw/kfGz8ACvEsuw7+HzZ7jmOIXbr4Gypc59Y3ysMEg/dDo3dtyO5cJZVU+FtHeObWLiSN3RZ0Kd1hPTyxcsZbK0duie5Rp5VNcMk/IkwzWt8Sa8yS4ZlVQVNhDUx6R2MkvE8nkD7X6lCswl1fFH/SbXiqbOGRuVHJAQBAEAQBAEAQBAEAQBAEAQBAEAQBAEAQBAEBwmmZG0vkc1jRrLnkNaBykr6ouT0R8bSWrIpi2cKgguIi6peOCEby/pu1Ec11Pqy26e17OZBtzGmGxbeRD8TzlVslxA2OnbwEDdZB/E7V/SrCvK6o8Tb8vz6ldZmlsuFaeZGavEKqrdaWWadx2MJc8dTdg6gpsa66lsSRClbba9rbM2iyRxGbxKWUDjltCP6yFznjKIb5Lw2+h0hgr57o/XZ6m8pc2Va7yskEQ53SOHUBbvUWWa1LcmyVHKrXxNI2tNmrZ+tq3HkjjDO8uPsXCWbP4Y+Z3jlMfil5GygzZ0DfGfUP8ASe0D+loXGWaXPckvzmdo5XSt+rMtmb7DBthe70pZPwIXN5jiO/yR0WXYf5fNnaMhML+rdskn+S8+8MR83kj0sBh/l82HZB4Wf2bskkH9y++8MR83kg8vw7+HzZ0SZvMNOyKRvoyPPtJXpZliF2+R5eXYfu8zBqM2FGfJzVDDylj2j+kHvXWOa2rekcpZVU9zZp6vNbMPIVMb+ISsdF3guUiGbR+KP+/YjSymXwyI9iOReIwXLqd0jR8qC0w7G77tCl146ie6WnPYRLMBfD4deW00D2kEhwII1EHUQeUKWnrtREaaejNtg+U9bSW3Cd2gP1UnwkVuLROzqso9uFqt4l49pIpxdtXC9ncWBgGcmCWzK1vg7zq3Rt3Qk8vCzruOVVN+WTjtr2rzLajM4T2WbH5E5ika8BzCHNcAWuaQ5rhxgjaqxpp6Ms001qjkvh9CAIAgCAIAgCAIAgCAIAgCAIAgCAwsUxanpW6dTKyIcAcd870WjW7qXSqmdr0gtTnZdCtazehAMbznON2UEWiNm7T6zztYNQ6yeZW1OVLfY/Bfcqbs17K14v7EUEWJYm/StPVG/jHVEw8hNmM7lP1owy02L1+5A0xGJeu1+n2JFhmbGofY1U0cI+ZGN1fzE6gO9Q7M1guBa+RMryqb43pyJXh2b/DobF0bp3Dhndceq2w7QoFmY3z3PTkT68uoh2a8yR0lHFCNGGOOJvzYmhg7lDlOUnrJ6kyMIxWkVod68noIAgCAIAgCAIAgCAIDAxXBKWrFqmFknAHEWe3meNY7V1qvsq4HocraK7F+9akAygzaObd+HyaY27hMQH/wv2HmNudW1GaJ7LV4r7FTflbW2p+DIBU08kT3RysdG9ps5jwWuB5iraMlJaxeqKmcJQeklozb5NZU1NA74M6cRO/p3k6B4y35juUdd1HxGErvW3f3kjDYyyh7Nq7i48AxyCuiEsDtlg+N2p8TuJw/HYVnL6J0y6Mv+mjovhdHpRNmuJ2CAIAgCAIAgCAIAgCAIAgCA66moZEx0kjgxjGlz3O2NaNpK+xi5PRbz5KSitWVxlBnIc87lhrDrOiJ5G3e4n6OP/vsVzRliX7rn4fd/nMp78zbfRpXj9kazD8iMRrn7tWOMIdtkqSXzEcjNo5iQu1mPopXRrWvLd9ThDAX3PpWPTnv+hNsHyDoKaznM8IePl1G+bfkZ4vaCVW3ZhdZsT0X9fcs6cvpr7NX/ZJ2NAADQABqAGoAKC3qTdx9QBAEAQBAEAQBAEAQBAEAQBAEAQGnykybp69mjM3RkA+Dmb5SM/i3kPt1qRh8TOh6x3dxHxGGhfHSX1KXx/BJqGYwzjlY9viSs+c3/rgWkovjdHpR/wCGbxGHnTLoyOOBYxNRTNngNiNTmHxZGcLXcnsX2+iN0OjI+UXypn0ol54Hi0VZAyohO9eNbT4zHja13KP/AGsvdTKqbhI1FN0bYKcTPXI6hAEAQBAEAQBAEAQBAEAQGLitEKiGWBxLWyscwubtAOo2vwr3VN1zUl2HiyCnFxfaYmCZOUlEP0eIB1rGV+/ldzuOzmFgul2Jsuf734dhzpw1dS/YvubVcDuEAQBAEAQBAEAQBAEAQBAEAQBAfNMcY7V90Z81QDgdhB5l8Pup9QAFAajKjAY6+ndE+weLuhk4Y5ODqOwji6lIw2IlRPpLd2kfE4eN8OiyiKqnfE98cgLXxucx7TwOBsVqYyUkpLczLTi4ScXvRLM2mOmmqhA8/BVRDNexs3yHdfi9Y4lAzHD+0r6a3r0J+W4j2dnQe5+pcSzpoggCAIAgCAIAgCAIAgIbnMxaopYYHU0ronPlc1xbY3Gje2sKxy6mFs5Ka12FdmN06oJwem0r38ssS+tydjP8Vb/ocP8AKVH6/EfMW/krUvmoqaWVxe98TXPcbXceNZ7ExUbZRju1NFh5OVUZPfobVcDsEAQBAEAQBAYBxqkBINTTgg2IMrLg9q6+wt+V/RnL21fzL6nbTYlTyu0Yp4ZHWJ0Y3te6w2mwK8yqnFayi14HqNsJPSLT8TKXg9hAEAQBAEAQGLi3m8/Qy+6V0q41zR4s4HyPOwWuMeWFme8tVdHF7zlU5twx8S4yjfLwLBxpx0Y2aRYyWeKOR7Touax19QI2aRDWXGvf6taqaVtb7l+fTf4Ftc9iXe/z67vEhGTj3Bu6+TkbDSys3sURndJKWaLNyaNKN3ikPuQ5wOo2KssQk30d61a7Xpov7e/t2dhW4dvTpbnon2LXV/0t3Zt7Sx1TluVTnZwoRzx1TBYTtLJLbN0YBY9bbeqr3K7ulB1vsKLNadJKxdpBGuIIIJBBBBGogjYQrXeVKem09B4FX+E00E/DLExzrbA+2+HUbrJXV+zslDuZrqbPaVqXejOXI6hAEAQBAEAQBAavKLHYaCEyzG5NxHEPHlfxDk4zwLvh8PO6XRj/AMOF98aY9KX/AE0+b7GZq1lTPOdZnDWMHiRs0G2a3tUjH0QpcYx7jhgb5XRlKXecM5GC1NZFAylj3RzJXOcNJrLDRt8ohfcvvrqk3N6bDzmFE7YJQWu0gP5B4p9W/wDJF/krb3hh/m8n9ip934j5fNfctnJikkgo6aKVujJHE1r23DrEco1KgxM1O2Uo7mzQYeLjVGMt6RtFwOwQBAEAQBAEB51xHy03Sy+8Vr6+BckZC3jfMlOar4wP2eX2sUHNOo8UTsr67wLhWeNCEAQBAEAQBAYuLebz9DL7pXSrjXNHizgfI87Ba4x5YWZ7y1V0cXvOVTm3DHxLjKN8vAs6eFsjXMkaHNcLOa4XBHKqRScXqi6aTWjMODCIWOa/4R5Z5PdpJJhHqtdoe42NiRfbZdJXSa09El6HONMU9fVt+pnrkdSJ50KUPw57jthkhkHW7QPc8qfls9L0u9P7/wCEDModKhvu0+xTK0Zmy5s18+nhzG/RyzM79P8AuWczKOl7/tI0mWy1oX9aksUAnhAEAQBAEAQGHi+JRUkL55zZjBew8Zx4Gt4ySulVUrZqETnbbGuDlLcinQ6qxuuAJtpX1bWU0AOu3Ht6yQtFpXg6fzazPa2Y27T8SLkwvD4qWJkEDdFjBYcZPCSeEnas7ZZKyTlLeaKuuNcVGO4wcpMoocPYx87ZXiRxYBCGuIIF9ek4Lph8NK9tRa2d5yxGJhQk5eRH/wA6FD9DV+rH/sUv3Vd3rz+xE9609z8vuS3Cq9lTDHURhzWSt0mh9g4DlsSO9QLa3XNwfYWFdisipLtMXKPHosPibNO2R7XSCICENc7SLXOudJw1b0r3h8PK+XRjz2nPEYiNEelIjn50KH6Gr9WP/Ypnuq7vXn9iH71p7n5fcfnPofoav1I/9ie6ru9ef2HvWnufl9z7+c+h+iqvUj/2J7qu715/Ye9ae5+X3Mygzg4dMQ1z3wE7N3bot63NJA6yudmXXxWumvI615jRPZrpzJSx4cA5pDgQCHA3BB2EFQWtNjJyeu45L4DzriPlpull94rX18C5IyFvG+Ztsisbioard5myObuT2WiALrktt4xAtq41wxlErq+jHv7Tvgr402dKXcWHRZx6OaWOFkVUHSyMjaXNjDQ5xDRe0mzWqieWWwi5NrZz+xcQzOqUlFJ7fzvJiq4sDorayKBhknkbGxu17zojm5+ReoQlN6RWrPM5xgtZPREPr85lGwkQxzT2+UAImH1tfcrGGV2viaRXzzSpcKbMOLOnETv6SRo42SB57CB7V0eUy7JeRyWbQ7YslGA5VUdbvYJLSWvuMo0JOobHdRKg34S2nbJbO9E6jF1XcL29xu1GJJi4t5vP0Mvule6uNc0eLOB8jzsFrzHlh5nvK1XRxe85VGbcMfEuMo3y8C0FSF2EAQEdzhPAw2pvwiIdZkYFMwC1xEfzsImPemHl+dpR60xly3M0gPgMnLVSEfy4x+CoM165cv8AWaDKl/4vn/iJsqwswgCAIAgCAICmc4eUfhlRuUTv0enJa22ySTY5/LxDk18K0eAw3sodJ72ZzMMT7WfRjuRO83WA+CUokeLTVIbI++1jPkM5NRueUniVXmGI9rZoty/GWuAw/sq9XvZK1AJxAM8HkKbpne4VbZTxy5FVm3Vx5lWK8KEvbIf4upOiHtKy+N6+XM1WE6iPI0mdzzKH7XH91KpOVdc+X+oi5r1K5/4ypFfmfMmLD53gOZDK9p2OYxzmnmIC8OyCeja+p0VU2tVF/QSYdUNBc6CZoGsudG4ADlJCK2D2KS+odNiWri/oYy9nMn+azH3Mm8BkcTHKHOhB17nIBpFo4gQCeccpVVmeHTj7Vb1vLbLMQ1L2T3PcWmqIvTzriPlpull94rX18C5IyFvG+Z1wQPkOjGxz3WvosBebcdgvUpKK1bPMYyk9IrU2+T+G1Aq6UugmAFTTkkxuAAEjbkmyj32wdUkpLc+3+iRRTYrYtxe9dn9l24riEdLDJPMbMjbpG20nYGjlJsBzrNVVysmoR3s01tka4OUtyKMyix6evlMkxs0E7nEDvIm8Q4zxnh7lp8Ph4Ux6Mfr3mXxGJnfLWX0NfTU0krtCFj5HbdGNpe63MF2lOMVrJ6HGMJTekVqZFbg9VANKenmib86Rjmt7bWXOF1c3pGSfie50WQWsotGIx5aQ5pLXNILXNNi0jYQeArq0mtGc02nqi5M3+U5rojHOR4RCBpHZusewPtx8B6uNZzH4X2MtY8L8v6NHgMV7aGkt68/7JFi3m8/Qy+6VEq41zRMs4HyPO4WuMeWFme8tVdHF7zlU5twx8S4yjfLwLQVGXYQBAQfO1XBlJHCDvp5QSOOOMXP9RYrPK69bXLuXqVmaWdGpR736FSq/M+XXm3ptzw6G+oyGSTqLjbuAWazCXSvf9Gmy+PRoiSdQiaEAQBAEAQEazgY0aSjfoG0s/wADGRtbcb53UL9ZCm4Gj2tq13LaQ8df7Kp6b3sKtyLwnwuthicLxtO6y8W5s12PITot/iV5jLvZUuS37iiwVPtbknu3l7rLGpCAgGeDyFN0zvcKtsp45ciqzbq48yrFeFCXtkP8XUnRD2lZfG9fLmarCdRHkaTO75lD9rj+6lUnKuufL/URc16lc/8AGVIr8z5eOb74tpfRk+8esxj/AORL87DUYH+PEkKiEsovLqmZFiNUyNoa3TY4NGoAuY1xsOclajBScqIt/m0y+Oio3ySOjJB5bX0ZH1iIdRNj3FesWtaJ8jzg3pfHmX2sqao864j5abpZfeK19fAuSMhbxvmSnNV5+fs8vtYoOadR4onZX13gXCs8aErbO9iR/R6Vp1G88g4/ks/v7lc5VVxWPl9ymza3hrXP7FcRRue5rGC7nuDWjjcTYBXDaS1ZTRTk9EX7k9gkVDC2GFovYbpJbfSv4XE+wcCyl98rp9KX/DWUURph0YmxkYHAtcA5rgQ5rhcOB2gg7QuSbT1R1aTWjKLy1whtFWSRM1Ru0ZIhxMdwdRDh1LT4O53VKT37jMY2lVWtLdvGRGIGnr6d97Ne8Qv4i2Te6+YkHqTG1+0pkvH6DBWezui+/Z9S7MW83n6GX3Ss1VxrmjS2cD5HnYLXmPLDzPeWquji95yqM24Y+JcZRvl4FoKkLsIAgKRy/wAaFZWO0DeKAblGRsdY753Wb9QC02Ao9lUtd72max9/tbdm5bDQUlM+aRkUYu+R7WNH7zjYKVOShFye5EOEHOSiu09DUNK2GKOFnixMZG3maAB7FkZzc5OT7TXwioRUV2HevJ6CAIAgCAICoM6mI7rWiEHe00Ybb/kfZzj2aA6locsq6NXS7/8ADPZpb0rej3f6bnM/QjQqag7S5kLTxaI03e8zsUbNrNsYeJJymv8AbKfgWMqcuAgIBng8hTdM73CrbKeOXIqs26uPMqxXhQl7ZD/F1J0Q9pWXxnXy5mqwnUR5Gkzu+ZQ/a4/upVJyrrny/wBRFzXqVz/xlSK/M+Xjm++LaX0ZPvHrMY/+RL87DUYH+PEkKiEspDOH8Z1XPD90xabAfx4+PqzMZh/Il4eiMHJTz6j+0w+8F1xXUz5M54Tr4cy/VlDVnnXEfLTdLL7xWvr4FyRkLeN8yU5qvPz9nl9rFBzTqPFE7K+u8C4VnjQlN50nk4g4H5MMIHNrP4laLLF/4eLM7mj/APfwIpDK5jmvYbOY5r2u22c03B7Qp8kpLRlfGTi00bz8tMT+tv8AVZ/io36HD/L6kr9fiPmH5aYn9bf6rP8AFP0OH+X1H6/EfMavE8TnqniSpkMrw0MDnAAhoJIGoDjK7V1QrWkFojhbdO16zerMeGQtc1w2tc1w5wbr21qtDxGXReqPQuLebz9DL7pWRq41zRr7OB8jzuFrzHlhZnvLVXRxe85VGbcMfEuMo3y8C0FSF2EBCs42VApojSwO/SJmkPLTrgiO08jjwdvFeyy/Ce0l05bl5srcwxfso9CO9+RUS0BnifZqsC3SV1bIN5DdkN/lSkb53UDbndyKqzPEdGPslve/kW+V4fWXtX2bi1FRF4EAQBAEAQBAefcoKndaupkOvTnlI9HSIb3ALW4ePRqiv6RksTLpWyf9ls5s4dHDYjwyPmefXLR3NCoMxlriH/Whf5ctMOvElKgk4ICAZ4PIU3TO9wq2ynjlyKrNurjzKsV4UJe2Q/xdSdEPaVl8b18uZqsJ1EeRpM7vmUP2uP7qVScq658v9RFzXqVz/wAZUivzPl45vvi2l9GT7x6zGP8A5EvzsNRgf48SQqISykM4nxnVc8P3Ua02A/jx8fVmYzD+RLw9EYOSnn1H9ph94LriupnyZzwnXw5l+rKGrPOuI+Wm6WX3itfXwLkjIW8b5kpzVfGB+zy+1ig5p1HiidlfXeBcKzxoSoM68BbXNfwSQRm/KC5p9gWhyuWtOnczPZrHS5P+iJUWhuse7eT3SPdOD4PSGlr4NV1Pnr0X0d5Ar6PTXS3alwfm7w36OT+Y5Z73lf3+Rovd2H7vMfm7w36OT+Y5PeV/f5D3dh+7zH5u8N+jk/mOT3lf3+Q93Yfu8z7+bvDfo5P5jk95X9/kPd2H7vMkOLebz9DL7pUSrjXNEuzgfI87ha4x5YWZ7y1V0cXvOVRm3DHxLjKN8vAtBUhdkPyyy2jow6GnIlqdYNtbIOV3G793t5bDCYGVv7pbI+pX4vHRp/bHbL0KhqJ3yvdJI4ve8lznu1lxPCVoYxUVotxnpScn0pbzPydwWWunbBFqG2SQ62xR8Lj+A4SuWIvjTDpS/wCnXD4eV0+ii9sNoY6aJkELdGONui0cPKTxkm5J4ystZZKyTlLezU11xriox3IyV4PYQBAEAQBAEB5tLr6ztOsrZGMe8vDN44HDaa3AJR1iR6zOPWmIl+dhp8A9cPH87SRKGTAgIFnejJpqd3A2cg85Y63sKtcpf/pJf0VebL/yT/sqpXpQF7ZD/F1J0Q9pWWxnXy5mqwnUR5Gkzu+ZQ/a4/upVKyrrny/1EXNepXP/ABlSK/M+Xjm++LaX0ZPvHrMY/wDkS/Ow1GB/jxJCohLKQzh/GdVzw/dRrTYD+PHx9WZjMP5EvD0Rg5KefUf2mH3guuK6mfJnPCdfDmX6soas8+Y/TGKrqY3CxbPL2FxIPWCD1rW0SUqotdyMliIuNsk+8yclMa8AqmTlum2zmPaNTix223KCAepeMVR7atwPeExHsLOkWVRZxaKaSOJkdSHSvZG0uawAOcQBez9mtU08sthFybWzn9i5hmdUpKKT28vudOdPBzPTNqIxd9KXFwHDC62keohp5rr7ll6hZ0H2+p8zOhzr6S3r0KjWgM8WHknnDbFGyCua9wYA1k7N8dEbA8cNuMdnCqjFZa5Sc6/p9i4wuZKMVC36/ckz84OGAXEznH5rYpAe9oHeoSy7Ed3mic8xw/zeTIhlHnGmmLW0IdTsa4OL32MsljcAjWA3jGu/crDD5ZGO2za/IrsRmcpbK9iJrkdlZFiDNE2jqGC8kXA4fPZxt7x2E1uLwcqHrvj3/cssJjI3rTdLu+xva2LTjkYNr2PaOsEfiosHpJMlSWsWjzo5pBsdRGog7QQthvMe1o9Cwcz3lqro4vecqjNuGPiW+Ub5eBJs5NdLBQl0D3RufKxjnM1O0CHXAPBsGsKFl1cZ3aSWuwm5hZKFOsXptKXWkM0bLAcDnrpdyp23tYvkOpkTeNx/DaVxvvhTHpS/6d8Ph53S6Mf+F2ZOYDDQQiKEXJ1ySu8eV/GeTiHAs1iMRK6fSl/w0uHw8aYdGJtFwO4QBAEAQBAEAQHnKqi3OR7PmPez1SR+C2EH0opmOnHoya7i2s1NXp0Jj4YZntt+66zwe1zuxUOaQ0u171/8NBlk+lTp3MmarSxCA1+P4Sytp5KeTUHgaLhrLHjW1w5j+K7UXOqamjlfUrYODKRxvJ+qonFtRE4NB1StBdE8cYd+BsVpacTXctYvw7TM3YWyl/uXj2FxZD/F1J0Q9pWexvXy5miwnUR5Gkztgmihtr/S49nRSqTlXXPl/qI2a9Suf+Mqbc3cR7Ffaoz/AEWXfm/H/wCbS+jJ949ZnHfyJfnYajA9REkKiEopHOEwnE6qwJ1w8H/ExabANfp4+PqzM49N4iXh6IwslGHw6j1HzmHg/eC6Ypr2M+TOeET9tHmX2sqaohOXuRrqw+E0tvCA0B8Zs0TtGyxOoOGzXqItssrPA41Vfsnu9Ctx2C9r++G/1Kuq8LqISWzQSxkfPY4dhtYq7jdXNaxkmUcqLIvSUWZOTsL/AAyku13nNPwH6Rq8YiS9lLb2P0PeHhL2sdnavUv5zQQQRcHUQdYIWUNWVdlZm8ka502HDTjJJNPez4/Qv4zeTbzq8wuZRa6Nu/v+5SYrLXr0qt3d9iBVFO+J2hKx8bh8mRpY7sKtYyUlrF6lTKEovSS0Ou6+nkzsLwepqjo00L5L/KaLMHO86h1lcrL661+96HavD2WcC1LUyMyIZRET1BEtTY6Oj5OG4sdHjdy//GjxmPd37I7I+pe4PAqn90tsvQmCriwK4y2yCkkkfU0ADjIS6WnJDTpna5hOrXtIPDe22yuMHmEYxULOzt+5T43L5Sk519vYfc1mGzwTVQqIZYrxxgbo0tBs47CdR6kzO2E4R6LT3n3LKp1yl0lobjOfA+SiayJjpHmoisxgL3Hev2AKPlslG7VvTYyRmUXKnRLXaRbJ3NxPKQ+uO4R7dybZ0zhynYzvPIFOxGZwjsr2vv7CBh8rlLbZsXd2lnYbh0NNGIqeMRsbsDeE8ZO0nlKpLLJWS6Unqy7rrjXHoxWiMleD2EAQBAEAQBAEAQFE5b0e44hVNtYOkMg5RIA/V1uI6lqcFPp0Rfh9NhlsbDoXyXj9TbZrsWEFWYXmzKpoYL7BK25Z23cOchR8zp6dXSW9ehIyy7oWdB9vqXAs8aEIAgBCA+NaALAAAbANQTXUH1ALIAgCAWQCyAIAgCAIAgCA4SwteLPa1w4nAOHevqbW4+NJ7zHZhdM03bBCDxiNoPsXt2ze+T+p5VUFuS+hlgW2bORcz2EAQBAEAQBAEAQBAEAQBAEAQBAEBW2dzCj8DWNHBuEpHBtcw+8L8yucqu31vn9ymzWndYuRXDHlpDmkhzSCCNRBGsEK5aTWjKZNp6ou/IvKRtfAC4gVEYDZ2bNfA8DiPcbhZjGYZ0T2bnuNPg8Sr4a9q3khUQlhAEAQBAEAQBAEAQBAEAQBAEAQBAEAQBAEB01dVHCwyTPZGxu18hDWjrK9RhKT0itWeZSjFayeiIDlHnKY0Ojw9um7WPCJRZg9Fm13ObcxVrh8rb22vwKrEZolsq2/2T+lcXRscdZLGknjJAVVJaNltHcjtXk+hAEAQBAEAQBAEAQBAYmK4fHVQyU8ouyVpaeNp2hw5QbHqXSqx1zU49hztrVkHCXaUJi+GyUs0kEws+M2vwObwOHIRrWqqtjbBTj2mUuqlVNwkfMKxKallbPTu0Xt62ubwtcOEFLao2x6MtwqtlVLpRLlyVyup69oaCIqgDfwOO3jLD8od44VncVg50PXeu/7mkw2Mheu59xIlDJYQBAEAQBAEAQBAEAQBAEAQBAEAQBAarFso6Okv4ROxrh+rbv5PVbc9q71Ya23hicLcTVVxMg+M5z3m7aGHQH0tRvndTAbDrJ5laU5UltsfgvuVl2a9la8WQXEsTnqnadTK+V3BpnU30W7G9QVnXVCtaQWhVWXTses3qYZXQ5o9G0Xko+jZ7AsfPiZsY7kdy8noIAgCAIAgCAIAgCAIAgI1ltks3EIw5lmVMQO5POoOG3QdycR4D13m4PFuiWj4X+akLGYRXx2cSKXqqaSF7opWlj2Etcx2otK0cZRkulHcZucJQk4yW062OLSHNJBaQQ5psQRsIPAV6aT2M+JtPVE4yfzj1ENmVjfCWDVug3s4HKdj+ux5VWX5ZCe2vY/Is6M0nHZZtXmT/CMqqGrsIZ2h5/VS/ByX4gD43VdVNuEuq4ls7y3qxdVvCzdKMSAgCAIAgCAIAgCAIAgCA4TStYNJ7msaNrnkNA6yvqTexHxtLeaHEMtsOguDUNkd82AGW/WN72lSq8DfP4dOewi2Y6iG+X02kXxLOltFJTcz6g/2N/yU6vKfnl9Pz/CDZmy+CP1InimV9fU3Ek7mNP6uH4JtuLe6yOclT6sFTXuj9dpAtx11m96ctholKIgQBAbPBsAqq06NNEXC9nSO3sTOdx1dQueRcbsRXStZv7nejDWWv8Aai/KdhaxjTta1rTbZcCyyknq2zVpaLQ5r4fQgCAIAgCAIAgCAIAgCAIDQ5U5K0+IN3/wczRaOdou4cjh8pvJ2WUrDYudD2bV3EXE4SF627+8qHH8namhfo1DN4TZkzNcT+Y8B5DrWhoxNdy1i/DtM9fhbKX+5bO81K7kcIDaYdlHW02qCplaBsYTpsHM11wOxcLMNVZxRRIrxV1fDJkio85laywljhlHHYxuPWDbuUOeV1PhbRMhmtq4kmbimzpxnytI9vRyCT2hqjyymXwy8v8ApIjm0fiibGHOXQO8ZtQz0mNPscVyeV3Ldodo5pQ9+qMlucLDDtleOeN/4Bc/d2I7vNHv3jh+/wAmc/y/wv6wf5cn+K+e7sR8vmj77xw/zeTBzgYX9O480Un+K++7sR8vmh7xw/zeTOmTOLho2Pld6Mbh7bL6stv7l9Ty8yoXb5GLLnOoR4sVS7+FjR3uXRZVc97X54Hh5rStyZgVGdRg8lSOdyySBncGldY5S+2XkcZZtH4Y+ZrKrOdWO8lFBGOUOkcOu4Hcu8cqqW9tnCWa2PhSRpazLTEpbh1S9gPBCGxW5i0A96kQwNEfh+u0jzx98vi+hpaioklOlK98jvnSOLz2lSoxjHZFaEWU5SesnqdS+nkIAgAF9Q2nUANpQJakjwfImvqbERbiw/rKj4Psb4x7LKHbj6a+3V/0TacBdZ2aL+yd4Jm5pILOqSap412cNCEH0Bt6yRyKruzOyeyGxeZa0ZbVDbLa/ImUUTWNDGNDGtFmtaA1rRxADYq5tt6ssEklojkvh9CAIAgCAIAgCAIAgCAIAgCAIDhPCyRpZI1r2OFnMeA5rhxEHavsZOL1R8aUloyD47m1glu+iead23c33fCTycLe/mVnRmk47LFr6lZflcJba3p6EDxbJSupbmWBzmD9bD8LHbjJGto5wFa1Yymzc/rsKq3BXV71s/o0ikkUIAgCAIAgCAIAgCAIAgCA76SjlmNoYpJTxRNdIe4LzKcYcT05nuNc58KbJHh+b/EZrF0bYBxzuAPqtue1Q7MxojuevImV5bfLetOZKcMzXwNsaqd8p+ZEBEzmJNye5QbM1m+Bac9pPryqC43r5EuwvAaSl82gjjPz7aUh53m571X24iyzjlqT66K6+BaGxXE7BAEAQBAEAQBAEAQBAEAQBAEAQBAEAQBAEBq8Syeoqm+708TydrwNB/rtse9d68TbXwyZxsw9VnFFEbrc2VG+5hkmhPFcSMHaL96mQzS1cSTIU8rqe5tGkqs1s48jUxP6VrovZpKTHNofFF+v2I0spl8Ml+fU1k+brEm+KyKT0JAPesu8cyofa14HCWWXrdo/Ew35E4mNtK8+i6N3scuix+Hfxepz/QYj5fQ6TkliI/ZJuoXXr9ZR8yPP6K/5WfBkniP1Sf1U/WUfMh+iv+VnYzI3EjspJOstb7SvjxtC+I+rA4h/CZEWQWJu/Zw30pIx/cvDzDDr4vJntZdiH8PmjOhzaYg7xnU7PSe4n+lpXN5pSu/6f/TosqufajZU2at/62raOMRxl3eXD2LhLNl8MfM7xyjvl5G3pM2VE3XJJPLyFwY0+qL964SzS57kkSIZXSt+rN5RZI4dDbQpYiRwygzHtfdRZ4y+e+T9PQkwwlMN0V6m5jjDRZoDQNgaLAdQUdtveSEtNxyXw+hAEAQBAEAQBAEAQBAEAQBAEB//2Q==;" vertex="1" parent="1">
          <mxGeometry x="420" y="254.77" width="99.69" height="56.01" as="geometry" />
        </mxCell>
        <mxCell id="IUDHi638Zl7lMzYL7OI1-38" value="" style="shape=image;verticalLabelPosition=bottom;labelBackgroundColor=default;verticalAlign=top;aspect=fixed;imageAspect=0;image=data:image/png,iVBORw0KGgoAAAANSUhEUgAAATMAAABxCAIAAAA23dPaAAAgAElEQVR4Ae1dh3sbRdr//oaEu+OAAEc/CCUESIAQAiEhEDhIAiSU0OEoobcD7ujtwClOceISt7jFsmVLltWsYnXZsiRblpu6JVm9964vq3U2a7XIkk1yePPsk2e03p155zfz25l5533f+b8k8g9BAEHg/EPg/84/kRCJEAQQBJIIM5FOgCBwPiKAMPN8bBVEJgQBhJlIH0AQOB8RQJh5PrYKIhOCAMJMpA8gCJyPCCDMPB9bBZEJQQBhJtIHEATORwQQZp6PrYLIhCCAMBPpAwgC5yMCCDPPx1ZBZEIQQJiJ9AEEgfMRAYSZ52OrIDIhCPx+zEwkkrFEIv+VSCxAi8QTifjZCsojRjxRpBSJZDJXuUXmmAOMPAXlET7trfjCypQSFV59sBVy1KCg24lkMhpPRGLxUOqK5qlbQfkBD2WCsBA9DsgZXvdYqgcWLFT2B38/ZjqCYaXDm/9yBMPZxSz4bjQet/iD025f/oJy/VXj8lkDoWA0VnCBZx70hCN6j1/lzFLH0usFFZNIJEMxoI6ZVVA5vXqP3xOOQA9Dicy3dG5/OBaHHig9EY7FdW4/JNW022fxB6Px4osIRGNSi5OiMnZOaDsntCKjwx2KxEr4oGSCMO32ecPRaLxUeqbVXenwlg7v78HMeCIRisY4Okv54OQvnLGf2NJcF1am13lK6jGuYBgr0x8WTOUqIv/9X7njx4cVJ8c0vfIZvt6q9/iBT3Vh3XbE7KwdVvzGHc8som5YydZavOFoYTnle8oTjtA1phqxIrOU37jjtcOKEbMz8/1ANDZmdZ0c00BvHRiYwCtm1C5f5sNF3HEEw2KTAw77YcEUVqZ3lfCptfhDlULZB+Sh5zHc5zHc33jjbF1JGGaCcHBwsn/abPAGiqgy/BV7INw8qi7jzTZ9GW+8eVRtD5Q0zPwezIzE4wZv4Ffu2I2VuL/s71xWhsp1PdvN6ZHrXaEsX304EHnS0y7fG/jBmyp7cxWR//5f9nfeWIm7tQa/vpG8hyjATOlsqSG0EHo2jarva6RcXI7OLGJlJe5VHH/K5i5lDEkmk5F4fNLmfhXHX1mJyyzl4nL0fY2UplF1Jj62QKhhRPV4OwN669KDXY+e7G8bmw7HCqlcZpazdxJJYJEiMjn+yx27/tgZqW6q7H0DPzhdLPPjicSU3f1EB/OKwxhQ5vWNfd+zpDOeQIEfykyJM0G4tgL7OW2Yq7NmPjyvO0qn96lO1pWnRb3yMOapTpbS6Z1XJmkP/x7MtAVCJ0bVT3WyLjqAvmBvB9Q5MhN315O/ZkhmPMV/w0pk5gV7Oy46gL6kHH3Zwe4bK3GPnuz/nCbukek1BfSwPMy86AB6dQ3hc9owp7ROQFOb3iUOrarGX3QgC//nxcw/7+u46gjmNRwfO6VzljCyhaIxhcPzX87Y7ceJf91/RqoSmalx+ZqlmjW1xL/sm/2U33AM91IPT2J2FrfWSCaTCDPTyJ/Uuf0fU0S3HydkUjHtzpWHMTtQzMEZm6/YiV+JzEyT55LyrtU1hFdw/Bap5qzT7DzMXFaGuugAem0d6XvW6LDJGYjMex0biMSGTc6v+kduruq9MMe8Y17MBGu6uobwNkHA01uLWwlH43G9J1A7rHwMNhqDOZfITOa0+QOy8OojWKhFLinvuu8EBTU+rXX703tYYb8RZs7BKTUt8cCnJRDWWRM3V/U2jqjUziLXPwvLTEjCZ7o4GJneHgjnmfnlZyaY1fqGvu+Yo1q3f16ajFg8oXH5vmWOrm/og0TKTBTBzGVlqOuP4X7jjQ+bHHmqNqdFYT+coQhLa3msnQHNOSGpSmFmIpFolKjWN/RdPHdqcE0F9hOKiK21wESYRxJh5hywNC5fi1SzFjYtgRova+KqI5g38YNUtWlOLgX/WCRmXne0Z2cnq09ltPiDuWQphJmXHex+oInaMKJSODy58sm8P2Jy7udPbGjsu+xgd1bQwJvFMXPFwa6H2+iVInkR6sQ+lfEN/MANx3DQnBMSr2hmgtr1H1ijlx3s/tPctc8l5V0PNFFbpJpMiAq5gzBzDkrAtKRvzrQEarysiUvKuzY2URslqlA0VsTO4lmZuaK869qKnrTrmgrs5Ye6/5pjlgjK+fejPT+ypSKjY071YD8KYeayMtTlh7qfRrNPSFT6ArTQ4Vhc7/FXiuQPtdJXlHdlRQy6WRwz/7yv48ojmOcx3Gap2uIPFjhyBiKxEXO+2XXRzASVzy/38KB6QQlQ1O9Zo4VAB2uZ2STCzDOY5JqWQFhnJlLa0d5feeNGXzAy/92w/Mxcvhe1uoawHcVMux5rZ9x3gnL9sZ4/7+tYnkN1fOnBrsfaGR0T2ly6wQKZCVYZ0ELL9I5gOM+eTDyRsAfCGJn+mS5OJlCZd+bLzOV7UVBlrziM2Y5iCI32QAF7ufFEQuv2f8c6M7teXoZavneOyr1oZhq8gR/Y0nsbZ+ftmTk/283ByWeKUOAjzJxlZp5pSWavgu6A2tGdnaymonaE8jDzz/s6rqnAfkEfFhhsadfgjI2js5bxxrfkHppAFc5RoSzXfve8mHnbccI7xLOoXma8AZxc/1Qn67qjPRA+eRLzYiaIxqUHZ8fhv+zrXFmJe5sgKGQdoXB4G0ZUDzRRLzs0O7u+9GDXNRXYP+87o3gvmpkal+9VHP+G09tCmTmvK1aBjzBzlpl5piUX7O1YUd515WHMVUcw8OaEut3tx4kfU0S6+Wvh8jDzwv2dN1X1VorkZ8b0uSmJ2XlgYHJdAznrvBHcZviWKZl2+bJaz8yLmSvKu+6qI33HGmVpLb5IujlDLJFwhSIkpeHD+SwE5sXMyw9170Kz7m+irCjvAreyLtzfeXNV71cMyYjZmWvkjMYTtkCobUzzdBf78tO0XFaGWlNL3IZi/P1oD6Q3Lo6ZFn+QoDA80EyFmuDOOtIuNHtNLREqrmgFPsLM2f6eNi2BWLesDHXh/s5bqvEbmyibmqmXZFs+XXEY80QHc8rmLnDZA1GsFGYmk8lpl+8twuDNVTkNFd7CDw4Z7P5IFmueeTFzWRkKmLdX9f7AHlU6PKHYnH2UQCQmMTu/YozcWNWb3zYDjuq8mHlTVW+NWHFqt3b1cQJ8gb2+se871qjO7c+KvDccHdDb3sAPQOUuL0P9eV/Hs92cffyJzS1UaLe9OGZydJZPKaJrKmY3S5bvRb2I5dVLVO+Qhu6sI0GFAgp8ybwV+AgzZ2mSNi2BYF1WhlpR3rW5hfY5TfwLZ+z6Y1mman/Z13n7cULFkGzC5oZYV0iiRGYavYGf2dINpxc5cJnB9C40Gz2pzbo1P19mgvP2LS20Mt64yXdG5RuNJ1RO75f04Xsb+85qmwGXcF7MXFWNbx+fxkzpvmeN/h02W77sUPfmZtrJ8elpd/rGVTAaG7e6P6WK19YRoXIvO9i9HcWoH1FydJZtKEaJzGyVah44/bEG59u/cMYmbe4GiWp7BxMq9KojmLcI81bgI8wEGOQMhvunzZtbaNC0BIJ1WRnq6iPY98nCrkkdRWXMNWz+7VD3bgwXr5gphJDQMyUy0+QL7udPbGqmwqWFp5/p4mCn9AvCTDDbqw5jHmnrbx5VQ8ZcMrvn+LDi3sa+rNDBhUlLz4uZt1bju6d0YxYXY9r8PIa7EmZYd8VhzEs9vM4JrT0Qhlt7j1vdR4Wy9TDBLj/UvbGJekwoH7e60yzU5jtmRgAtdOB71ii0wLm4HL3hRF/TqDoQjUkszn/RxFcexvwptZS96AD6zjpSlUieuRCAekJmAmEmgInE4tzLn7gB1t5QN1pehlpVjW8b0+jc/mmX722C4JYqPPRXKAFO9o4KZfPaPCmRmXlm4KBgbxMEYqPDn82IZ75jJlTTiw+g723saxhRhWPxcCxeP6K8tzF9kx16OE+iCGYavQFnMNw9pXu2i/OnvXP00m/gBwZmbKAVfiJlstswooILdsHejnUN5P8wRkBryhKZ6QpFehUzz3XPaqGXl6GuPIx5pYdPUhpAjrVINRub5qx9PqGIVE5vqGCPGYSZAJI9Mv0u9BwlAdSlLj3YtbWNDiroLf7QMaF8axsd+iuUACd775GHhMbs67rMjyK4UMxl0X5WDVA0npiye17JYS8OCvZRn1CRsSwEJSmamX/a23H5oe7nMdyjQtn+gUkQt7RNdgiWPInimBmJx43eQJVIvmXuBGdtHekzqnjC5g5GY45guH18+nkM9/JDs7v/f93fubqG8ANLCj6QTCZLZKbJF/yNN76xaXa2culBwKigHZhUz9riMTLs9R5vZzRKVLZAKGtPyLy51JkZTyR8kehhwdTNVXhIUwfvT6uq8e8QBSDivkhUYLC/Rxq65LSGEP7ksjLUI239VWKF1V8o+kWMmdF4whuO6jz+QYOtdhgYr7JOI/+yr/PvR3t+443bAyH4HA/qAXmYeeH+zquPYNc39mWdRIBVvrmq9+E2+sYmKtxjIw2Nayqwq2vmKGzgDxTHTFD+EbNzH39iXT0ZUsitKO9a39h3VChjTptpGtMrOD6kGAO/cXvmbrGUwsxwLC61uF7A8qC633AM9yKWN2pxQboxwMZ9VH1XHQnqVLcfJ35EESkc3qzNAbULlFjqzAzF4mqn9xOKCN5p4OmHW+kVQzK4mVu1SH5LdXYa31jZ+3rvgNrpy7MjD0F/1jHzxqreI0OyUCwGv+yB8ITNjZ7UfUoVw2drcJmXlaEuO9S9o4PVPaWDFwdP52HmlYcxm1uoe/kTz2RMGtNKyfVzeRnqT/s6trbR3yUK4Hbe8OdLYWYymdS6/e8QBauq8ZD5ATjNfhM/CNeXgmqC7SgmUWGAK65KYaYtECIoZlbXnPF5uLOO9AV9WD/X60jp9O5Cs686MusXdsVhzDYUg6e3ZnUWhzcNmF7qzLQFQo0S1bYM5wOoD72JHwS8SWAbD+hJ7ePtjMtO73pDT4IuGvedoBAVBkthw2aeMfOCvR0XH0A/2EL7gCyEX++SBK/g+A+20FZV46HZGlwGMH3DMVwZb1ySzS8ZbPj8zNyGYrB1lsxJY2ZBWe9cdrBrWzvjV+5YjViey/u0RGZ6w1G2zvIBWQjZDIDT7Bsre1fN/W4+0tZ/TChXO33QgFbibJant35BH7729GbJsjLUdhSzSZrufGzwBr5lSu5pIIMQ/WV/523HCeWDk1KLK5OHmXeWOjN1Hv8ngM/XGcU61NX+tK/jysOYXzhS29wJ4aDB9g1DksvS5fqjPT9zxsSmnAar8DbIw0xQjBXlXdcd7Um7IH0gJCqUuGBvxyXlXbcdJ7zUw2NMm/OsavIzE3SlHUkZM2xupkG7C1BBeRJXHsZsaaEdE8ppalP3lO7W6iwKs2VlqBKZGU8As/qOCe0zc60I4IKB89ivGCOZ1giljJkdE9pHT/aDBkkg4B9RRJlFuEIRnEz/Ug8PWvv8LbU+L1CBv6SZmUgkZXbPk52sTLegZWUo0Fo901fAEQz3qYx3HCdC8yh4bwANVjsncxqszouZ8JzPml6e8qtcXUP4sE9IVhndeYMtFMLMZDJp9AV/Tak6ls91pMglzPK9HRubqKAhsdEbWDxmgjBq3f62Mc1tNYRMH/flZairjszRl8KRL46ZYEiEo0LZjaf9Ti/c37mqGl8tzmKqlbJACu8fmIDWPhemrDUKVOAvaWZOu/2tY5q1daSslivXVmD/RRNnBneIxOJjVtcuNDvrCgrcvDomlHvCZw/QdNYxMxcBst6/+gj2kTZ6xdAUT281ny3eVIHMDEVjMrvnJ7b01ty6HEiYv+7vvLWG8BNbKrN7QtHY78DMQDQ2aXP/zJHef4ICiQEmrj6C3YFikpQGM8wuAiJnccz0hCM0ten13oGLT8e7uOIw5uUeHrRZAuUPRL5LJMOxePv49OPtDGiAvfgA+m2CgKuznjXM0pJmJktr+QhmXQVv2gv3d95dT0JNaHWeLD7pBm/gR5iHAfxF0GD1wz4hT2+Fr07hbQalF4qZ4JxqUzP1W+ao1OI8a7nJZLJAZoKisrSWTygi6NsPry+UvqS8a00t8QsgRsmsr/DvwMxkMumLRAdnbJ/Thm+qnI2fAKKxA8Wszq0nL46ZRm/gJ5jR1YX7O++oJQK2X9actl9cnfVfNDF8UbqlhXZYMGXO7ToLYr50mZlIJE9I5mxGQ51sWWoitBPNhixdIC6BCXcoQlIZX8Dysk5ol5Wh7m3s+5EtPWuYs0KYCTgWnb7gEsLTsxsDRAFOPpPfVwuqyLyYGYnPThOuqcBmrfLyMtQt1fi3CQK4ldzvw0ywRkSl4eUe/pWHMcv3ov56AH1rDb5CKAtEc8bzKoKZiURS7gDWPtCq+0rAGY3J19sAh554IuuldgLbJ7fAFts3Vvb+s3dA5fTmV+AvUWaGYnGlw/uf/pFc6s01tcTPaGJ9tgEzCcT8jZt9wZ85Y5BiEM6TZWWolZW413r5Z42UdVZmXnqw6/pjPeCVq6xlZShQkXtzVe9ONAs9qYX2uyEeZibmxcx4AnDa6JrUvYbjZ4oBmoy+gR/oneuI+Hsy0+wLEpWGHSjmqmr8PQ3kMt64yGjPY49VBDPBtc+dsLUPoOtqpVUMyTontJgpXdarTar5jTd+TwMZcmG7+AB6fUPfybEzZgmZrbN0I3QBejP5GeuqNF4tK0NtaaGVD07KHR5HMJzrqhYD9qJZA0OuKO/a1EwlKQ35rQ7yMBOckj16sv/f/SPg9QlFtAvNXldPhgwyM8W+6gj2HdJQn8oYyjlazHaDeTETDFFp8AYaJaonO1mQixPoiHPDMdzzGG6LVG3wBuDu478nM5PJpNUfqh1W/qd/5HvWqMhoz++sXAQzuXrr53M3S1aUd91ag9+FZr/cw8tz7UKzb63Bww1CgPiU9GGuPl98yiU6ZuZZKILd/clOVoNExdKahwy2XFeNWLEbw/0bzPEPTpVrKrCfUcX5A0PmYWamdZ4/EhMbHb9yxx5oAhwCs84qwbfK+OMLpQFK+5wrHID9+qpqPKQLveoIsIFOUMzA9/HBt35nZoKFOoJhnTu7Syq8LvNlZiKZ7JzQPnZalwNv6CLSZyJO5Ao5sWSjWmpcvtd6B7JGKAaBvq6iZ0Nj39ZW+qMn+3Nd6xv6rs8W7gnM4ZLyrs3N1LaxfAGa5sXMWDzhCkam7J6uSd3j7YysmmFwWrujg1kzfBYjwfmOmWC39kWi41ZXGX9iczMNrObWNvpRoQyw1c4I/HFOmBmJxfMsLyFyzouZ0Xjc6g/9whm7em4khCI4Cb7y530dV1dgv2FIlI6cNu5Lccx0BMM0tQnw+cpmx1M03GkvgkraH1J6IPgcD+ocZ7XOyxXTwOQLlsHMqdPKBUM/voDligAvkyw+06AAxTEzmUwGokC0qx/Z0geaqA+30n/ljmVusoNFnBNmwuHNk54XM73hKHPa/CqOD0ENrjUuPdg1rwsyOQDzea6bk7Yyhwu8FJkpNNrTHHAhxBc8ATpt5lrzzGvMhJoNnNbuIQrSwkzBhb+lqrdpVJ1HBVU0M0ExREZHo0SFk+vzBLz8wzAzc+2T2rnFr60jzuu6tQYPD8iQX4G/FJmJmQICScHVGPA+vbDpexrI3zJHc22fFMfMWDzhDIYrRfJ7Gshp0Ych4a86gtlDFNA0OQPhlshMZzA87fYZvYE88en/MMxMW/tcerDr/iZKi1RN15jmdbVI1fc3USAl7cpK3Cs4/qgl+wkLS4uZsXjCEQyXD0zm3zSH+nfpiauOYJ/sYOUKxlMcM8FRq3/a/C5pKOtqE7Stv7ueXC1W+DMCaoGvl8hMaADPk/hjMNPqD5FVxs3NVGjts7qG8D55qIhjEbRu//vkIchJZUWK4cD2SbZzaJYWM/2RqNBgf4swmItyy1N7gxfs7ZjvlX9i2Tyqzop+KczUuv2tUg3cDSqzUp9SRZr5x85bkMOhAJvbxbebzfNdyP+nwteZgBEPdY4Rz7Z5+kBDksw6NqHOnHF21RHM24RBWrYY/0uLmVZ/6Piw8h8n+zM7MXhnTS1xdzf3VRz/9d6Bwq9nuzmbm7PHEALNiXJNLEthZupUH8dLPTwo2GlmpQDvJCAQbhZPbmTMhJ9UlycOUNuYBgoQBepUv6APSy2uXKE0IR5mJsKx+LTL9x1zFNLxXlKOvv8EpVla0FGFf+RT+nQe/6dU8R21WXy+Uto29KnDHjsmpntk+l75TOFX+/j0r9zx22oIkAM7nCSXpKwOToyqM3f/S2FmMpm0+IMVQ7KHWrNEPwEFuKMWCISrzOZHjzDzrMwET1L9kS29+shs2GjQObtGrPCEgdMyMrlXyJ0To2rI5R2g+hHs96nAnGlhgZfQmJlIJhWOOWd6wvkDRhauyh15OT/oSqd3J5p15WkH9rScb6rq3cufsPrTA3+UyEx/JCYyOvYQBFmtDpalwkZtRzGh0FXwKiDMPCszXaEIQWnYjeFCrXnFYcwLWB5BMRuGC45n4WmCwvAilgd3PNzZyeqY0KYdPZiDmYDzUyIBOLLM74LJlzaTX5DFS0kn26qc3gaJam0tMevINutXOaGFVWEeSZ3H/xlVvCbHaHxxOfrpLnbrmCbtzO0SmQkqaQ8OTqZ58UM96cJUZKpfucCxdmmVQZh5VmaafMG9/IkHTofhWlaGuuEYbj9/osCgBGmAQz81Ll/rmAaIN396Oz3rEcmZzAQdrw8MTPbI9IVfOPlMn8qogh0pfd4xs19jfpc4dBXs+FGoBy8rQxViTAeBm5mwB8LNUvUO1Jn4v/DMl5Wh7qglfkoVp/mUlchMUIxe+cyz3ZxcRoKXH+re2cnCyvRpMiPMzM/McCw+bnUBy/jTsU4vKUdvbKKQlQZbYaFk0gCHfgajManF9SqOf2PlbHD9q45gn+hgcnRW+L53JjMvOoC+u578RAfzVRy/8OtN/OCX9OF+jRkS4LxjZtOoekMjJdcG4C3V+FappghVOFjhcCyudfs+o4rTCAn9BOcMCocXAqhoGyB4DslkUmp1HRiczGVpCNnfpq2KEGbmZ6Y9ECIpDbfBwnDdVNX7Jn4wq449rUXO+hMIrs8Z2wDz9gZG44E5IYIymQn1pXklMqO6nEfMDMXip9zhvuof+dvpAKRpdQPOS22lC4AjQOac2HFWiKEH4omEPxKtGJLlmVjeUUusEsmn7GdOiV2QMdMdirC1li2t2Y0NAUvacvQb+MF+jRketQ1hZn5mDszY/tM/cl3FmcMy/nGyv3ZYac2m6Ia6QYEJVyiCV8zs7j6zgr3yMOa13gGyygjlsCSYCQAhn3m5h7fiYFfWa20d8T1SMXvHEI5gAief2Y3hXn8Ml7WUlZW4N/CDfTD0tW7/u6ShNbXEzOf/drj7lmp8nrPA4EVr3f73SENr67LkA+b8YAvtF86Y0RuA3mob02xpoV1Tgc0s+u9He8AIXdDDxSWM3gB2Snd3PTmziBWpc/K2tNCyWvyDnfKpThb04t31ZOyUDi5/cSJBb4Hjxt+P9oBFrKklvju3A3ROaB9HMa47/cCKg10f9gnFpuwB76FsC0yAQ8V3TOCMlssPdYNoPNhCqxtRQkFqMkGA0JhX4poKbBrOaXVfkOYuUgMETh62o5i3HydkvV7u4TWMzCN+dq4GkFpdFULZllZa1lLW1pEebKE1j57ZvDp1GvHntOGHWulZn7/9OKFAXTHYii/38HLlc/txwk40Cx6iAT2p24lmr2sgZ30l7eFc9c1/3+QL4hUzj7X3Zy1iXQN5J3AgUpaIuJnVeay9H5/N0Sy/AHn+CurSIcEeaqV/ThuGO8pXieTQX8FEgW2Rp9C0P2U2wXes0clUmHnIczp/m6ZJmPVnJs5pdc/sG2lyFvKzSGYGo7EJm5ujs1JUxqyXwGDLZStTiFjQM+5QROHwMrXmrKVQ1SbmtBm+UAFOpzE7mVpL1ucpKiOcS1ApmYlwLK5x+QQGW658KCpjWlwivSfA01tpGlPWV9IeziyxkDvBVJAuti577WgaE09vTYueDGabWR22zmL0BoIZjmaFiJH1GV8kytOf6Q9MrUUy9xxOpdObhkyBbZG1uKw3M5tgzOqCxsxMENLkKfBnJs5pdc/sG1mlzX+zSGbmzxT5K4IAgkCJCCDMLBFA5HUEgUVBAGHmosCKZIogUCICCDNLBBB5HUFgURBAmLkosCKZIgiUiADCzBIBRF5HEFgUBBBmLgqsSKYIAiUigDCzRACR1xEEFgUBhJmLAiuSKYJAiQggzCwRQOR1BIFFQQBh5qLAimSKIFAiAggzSwQQeR1BYFEQQJi5KLAimSIIlIgAwswSAUReRxBYFAQQZi4KrEimCAIlIoAws0QAkdcRBBYFAYSZiwIrkimCQIkIIMwsEUDkdQSBRUEAYeaiwIpkiiBQIgIIM0sEEHkdQWBRECiSmeDRMdMun8EbyHUwOyhvNJ7wRaIznoAtEArH4sUeKrNglXeFIlq3HzhANve57r5I1OgNaN3+aZevkOusIBQnvSsUWaScC5EHajh4mPNCXkSeWRAEimSmOxTpUxlbpZquSZ3ZH4zG0+KVn5Ftxhtgas11w0rGtNkVCscSiVA05g1HzxVHh02OExJV54R2wuY+I+Xc1ITNjRqfrhLJK4ZkhVzAYZ5uX2jh4tDFEwlvOMrSWhY857kVzffL4g8NGmwNI0qW1nIO2yufiH/ovxXJTL0n8GX/yKMn+59CswQGe57xh6Q0vILjX1vR8wV9WOf2hWNxky84dToE6O+PbY1YcU8DeWsbvVWqyVV6q1SzqZn6t0PdF+7vLORaU0vEyvQmXzBXhvO9H4zGpmzuTyiiBc+5cEn4eiCk+spK3CcU0Tlsr8IF/oM9WSQzncFw16TueQx3dQ3hR7ZUaLRn4gJ++I8PK7a00jY2UatEcp3H3zqm+Ywqfpc0NDhjOyfTpEqRfG0dcXMzrQkWPzpNeLrG9Dlt+PXegYAxGGwAABcBSURBVJewPPB6rpuztY1+6cGuFeVdq6rxO9Fs6E8vYXmfUcXDJoc3HE3Lp+ifwWhs0ub+gDx0azW+e0EjqRcuEldn/Zw2fG0F9gPyEBRMufDXkSdLRKBIZoZicaXD+2/6yI2VuB0dTPRklqP4gtHYmNX1JX34jlriP/GDJJXR4g8dE8p3Y7g7OpjMabMzGC5R+iJeL4SZCoeXqDRgp/TdUzrwOiFRfcOQXHe055oK7D9O9teIFdCfuqd0FJXRGkg/ybMI2aBXEGZCUCzZRJHMTCaT8USiUaLa1Ey9s45Une34Wnsg1DSq3o5irqzE7RuYGLW4wMMnMFO642KFxR/KuTZdzNYohJnxRCIan3PpPX70hHZVNf6myt5/9g4onV74Awuu2EKYuZhd4H8j7+KZmUwmWVrLJxTRLdX490hDmatNrdv/YZ9wfWPf5hYaIzVCxhOAnlbv8Ssc3lAsfk4QKoSZmYIZvYHuKd2tKWa+sUAHy2WWAt1BmAlBsWQTJTFz2g2c9bu2jvR4O+OYUG6BnU/qCUe5eutDrfR1DeQ9RMG025dMJiPxuNEbGLO6RkxOeyAcSY014Vhc7/ELjXaOzsLSWrg664jZqff4A1Hgz5FY3B4Ij5icaqcPvAM1ldkflFpcUovL7J9VvZj9wRGzk6uzsrQWjs4iNNq17tl8oLcWlZmJRDJrdSAJITFi8YQnHJHZPQKDnaWdrbjY5NB7/L5IFGLmqmr8qSO0hk0OqF48vXXK7oGfcw6eMTNido5b3WqXT2J2ghkKDHa5wxOKZTkl0RWKqJxeodE+MGMbnLGJjA6V0+sKRWKwTa0868xANGb2BSdtbrHJMTBjG5ixjVpcOrc/nO1r6wiGZXYPWBb48MCMTWCwS8xOsckBJjLxMXqDYpNDbHIYvQumV4PA/59IlMTMeCIhs3ue6GRtaOx7myCAn/wzbnUfEkzdWNn72EkGcEZiirTOYLh7SvcvmvhN/CBXZ3EEgc0TeyDcItXsxnA3NlHWNZA3NVPfIghOjmnAlnYEw1yd5U384FGhLK3tSUrDxxTRxxQRSWkAsSYpDW8RBJuaqesayBubKLsx3PoRZdpbi8rMXNWBJIT6hC8SHbO6fuaM7UodH7augby5hfZKD79tTKNweCFm3lKFb5FqasQKqF4Pt9F/YI0OzNigrGY8gf8wRt4mCr6kjxwTyt8lDa1rIK9rIO9Cs3/jjWfVGItNjkODU89juNvaGU90sF7E8o4MyYbnHpiXh5k6t5+oNHzHHH25h7+tnbGtnfEhWdg8qrYHsigOBmZsP3PGnuvmgE+C/+/sZJ86w+/lHj6YyMQHI9O/guO/guNjMs72hir+x06UxMxkMgl0i/6RTc3UU3ygqIy206eU4hXA6Zqrawig3jKQOt8WOOB9VL27m/tAE5WgmLH4g7ZA6MSo+gUsb00t8Zku9is9vOcx3H+c7P+CPkxSGtyhiMUfJChmHmiiftU/opg7AqDGp3ei2TvRbNT4tDccZWst3zIlKT0w5f4TlPWNfauq8Y+3M37ljhlh+xmLx8xQLKZweH/jje/GcLe00nZjuFB13iYK6k+fWQiqrHFy/R6i4N7GvrvryfefAAS+t7FvUzP1TfwgSWmAmPm3Q93PdnH2EAXvkobeIQp2otn3n6BsaOz7gS2VWJyB1A6q2uV7Bcdf10C+p4H8Ipb3NmHwTfzgc92czS20B1to5YOTI2Yn2Il9kajM7j4uVpz6Mm5upj7USn+4lf5QK/2BZuojbfSXsLyKIRn0cFZmgvvY3zIl21HMrW3A6+C1qZm6tZX+CUWEk+vtp5VhtkCofkT1AVm4o4P5SFs/+OVd10De0cF8nzT0E1v6KVX8dBd7XT35Z84YdHIccJqbxfklfeTuevJ7pCGq2vTHZmCu2pXKTGcw3Dmh3d3NWV1D2M+fkJidsUTCHYocFkytqwcGriqR3B2enSaBpzg+3s6ANgPAg2jvqCWuriHs5Y03SVTVIvm/aOJfuWM4md4VikALvEzdfdOoGuwWTaNqRzCMGp/+hiF5izD4JX34a4bkoz7hxhOUW6rxW9vowyYHtKxdPGZq3f6OCe0jJ/u3ttHfIQoqhfImieqYUPYWYfCRtv6nOllcndUVivgjMZHR8RlVfGNV79315Bcw3K8Zkq8Zks+o4vdIQ++ShvCKGYiZK8q7trTQPqGKasQK1Pj0kSHZHqJgZSXuyU4WRHXwWNUbjuFuTS34jw7JUOPTNWLFbgx35VzNudzhOTGq2tnJ2tRMfbyd8QlF9DVD8m/6yHvkoQdbaDccw53aGaodVtoDwFwmk5mBaGzc6vqUItrcTF1bR3oVx/+MKgaFfwHDvbuefGNV77skAU1j8oQjrlCEq7M+1cl6pK3/VRz/C9rwZ1Txa70D6xv7nuhgfsOQdE5om6XqrxiSW6rxL2F5vfIZcBcN5POTnazbjxMqhmR5DEJy9ek/xv1SmRmJA5YDv/HG76onPdPF6Z7SBSKxYZPjHaLgysOY3Rhur3wG0sFmMlPp9O5Cs287Tniigzlpc4dj8XAsDpwS6Quond5wDFiXgqqX/Mz0hqPMaTNHZ5HbPe5QJBiNzXgC1SLFP072r64hYKd05tPD5uIxk6Q0vIkfvLex72vGyIjZ6Q5FwrG4Mxjm661v4gdXVuL+yx0bNjlAuDY2UW84hvuVNy402oPRGHjZA8DDaqcPYuZ1R3tOTQT4els4Fo/E495IVGi0b0cxN5zo20OYXb2DzFzf0PcabkBm94BPhmPx+hHlrOZcLAc7K2ZK92w3554G8uc0MVdntQfCwWjMH4k5guEqkfzexr5LD3a9gR/g6gCjn0xm6tz+k2Oa244TNpygfMccBeUEJRca7b/yxsGvw7tE4KzxYZPjv9yxlZW4N/GDPL3VkSpr3Op6spMFHnqrcfmcwTBHZ30cxXi4jf7v/pEZD3CA97Tbt4cg2HACIPCUzX2ubMXOOb1LZWYikQjFYo0S1SMn+zc1A+YEGpevbkT5eDvj+mO433jj0OwIOvQXPmYavIEf2dJNzdRbq/H/po/g5DPTLsBOKBSL+yKABV+BzAQ/EFZ/CHwrmUyCthC70GxofAaxXjxmNo2qN7fQ1tYR3yUJ2sen8fIZktLQK59pkWpew/FvO054Az9IVhmnXb43UgTehmIytRb4pm40nrAFQr7wGQ3QzVW99SNKldMLCh9PJBQOz0tY3uZmKqQiBpl5b2MfdAd8uFc+8xKWd08DuVIkTy2AQ2W88TW1xKe72M2jatvpOWcimYzFE6MWV8WQ7J7UVPPI0JTFH8xkJnPa/HHKLOljimjIYPfDDI+dgDrA+iqOf2cdaUsLbWAGOOH3W6bkzjrSL5wxqCy1y/dSD29jE+UVHF/j8kXjcYXDC8xumqhb2+hUtUlm91BUxk3N1Idb6T+ypQYvwNWl+a9UZoKoUdWmd0hDa+uIn1BEXVO6d0lDGxr7NjT2pRaTIQjZzDHTE4pQVMYP+4Rra0n3naC8RRisESsGZ2yQmrdAZoJFROJxVwjQBA6bHIxpc82wYkcH83djZqVIfttxwm3AKfHsL2jD8OuZLs59JyjPdgNzilxEglBKJpPQmJkmPDCkpIj9cCsd4mGuDBnT5k8oovtOUCpF8nAsrnZ6P6GIrj6CfZ80xJg2w4sDSxSbHDs6mJtbqB9TRDq3P5OZqInp7SjmXfWkiiFZKGMP1+QL7uNPbGqmrq4hEBQz/RrzEcHUgy20H9lSmd1jD4RAtj/Vybq3se/VFDOTyaQ9EG4aVe/sZAGroYGJFqlm/8DE6hrCyz08gmJ2fpsm6hL5uTDMVDt9jRLVLdX4dfXk57q56xv77m3sex03oHJ6YXr4ZCYzE8lkNB5nTJu/oA9vbKJcd7Tn+qM9r/cOkFVGsAHmxUxHMDxksP/Ekb6K4z/ZwXoew72zjpTWuRdvzISYed8JyqMn++HX1jb6Y+2Mf+IH8YqZXESCd7gFYSZXZ/2qf2RjE8DM0xkKr63AglNZeHHJZDKRTCocXpA2b6Y2bDOZ2TyqfjA1KajMZliSWh8qH0spETBTOpndw9Vbt6MYT3SyfmBLWVozSWkA57egBgscD4GNNF/w19OroZd7+M90ce6qJ4Fa5fxuTGlV+IP9XBhm+sLRwRnbDhQwQK2sxF1xGLMdxawUzdnhzDqbBdE0+4JDBjtqYhq0TFhTS/yMKuakVjsQM98hCiTmWW0k+BZcAxSOxaddwObqZ1RAq1E7rMQrZtrGNM92cX5/Zn5GFZOVhrTr1CSNo7PqPH6QmWvrSLsxXGiamtarThMpi91s4WMmV2f9miEBmQlaX4Fj5gdkITNjzEwmk2mfjExmto9PP97OuKuelJWZFn+oUijf2kYHAde5/TqP/5hQ9gZ+4NGT/bvQ7Ge7OTvR7E3N1B/Y0hGzE1TXA6uhaKx1TLMNxbijlnhzVe8dtcRtKEbrmCYUjSXg3/U0jP7oPxeGmeD2ydcMybp68gV7Oy46gH6PNDRknLMUycrMaDxh9Ye8YaAR3KEIVW36F234pqrerW308oFJsy8IMfPUkomqNnlCEfADH0skQA3HQ630plG1KxTplc+8QxI81EqrEsknrO5cnXvxxswWqWZLC+2WavzPHKnJF4R/72PxRDAac6VUUxqX71Ucf00d8dR2BVtrcadqBHYzYMmXSMQTwMO5LNqLY2Y0Hrf4gz+wRm+q7N3dzemc0EILcrBoiz9EUhoebKFtaaF9zZDMeAKZzCQpDf/ED9xRS/yGKVHOteIKxeJyu+cbhmRTM/W+ExSa2uQIhp3BMFame5s4uKaWeP8JytNd7I/6hD9xpBydNY1WoF/LzVW9l5Sjb67q/U//CF9/ZsM27eEl8nPBmOkKRXrkM892c/6yv/PGSlyFUJbpgpk5mwX2x9TG8ZSrZCJlJDRude3oYEKmCxAzH26lHx2SWVLmPvFEIhCNHRmaurOOBHqNgNuqW9voT3ayJm3uWO7OvXjMZGstn1JE11b0PNPFwUzp4KodXySq8/iFBrvO7Td4Az+wpfc29t1wbFZbC3U1sF6ROKCdXlhmAp8z0M65iXpXPQlc+8EdSskq42u9A1cdwTzXzelJbWBkMlNice7lT6ysxG1qppbxJ+A2DGZfkKg0bEcx4KsYoy/4X+74jg5g57NpVD1pc/sj0UA0lunN6wpF2DoLoBqsAbag2TrLOfFDghrifEgsGDPDsbjO4/+ONbqqGr8Lzeqe0mVWL5OZek/g3/0jH/YJf+WNt41pWqTqnzljtx0nbGqifs8aNXgDgWhMZLTv6GCurSU+1s4AnDwmdW1Szc8c6dNdbMify+ANfMsc3dgEmNfXjygHU/Zfe/kTW1LbdPv4E1S1UWb3hKKxxWOm2RckKQ2PtTPWN/RtQzE+p4n/yx07MDB5YGDyR7b0W6akRqwYMTu94ShHZ32fPLSyEnf/CcprOP6PbOk+/sSBgcn9AxNlvHGOzroYzEwmkyKj/Tfu+KZm6nYU81Oq6Dfe+IGByX38iR/Z0ue6OXfWkR5soR0WTOk8gJ1dJjMdqU2OV3D8DY199zdRPqWKoAp+w5S8ntqrfAM/0DmhBY0HdW7/x8DmJ+2hVmCbVGRyQEYIaX3D5AviZPp7Gsh315M/7BPKHZ5o/NyYVacJdg5/LhgzwTq0SNXPdHH28yeyemyCirhnujgbGvvw8hmzL6h1+z/oEz7cRn+whfZyD283hvvoyf676kh7CALs6WHH6Av+xh1/9GT/rTX45zHc90hDH5CHXsLyHkcxHmyhbUMx28en7cFw25jmBSz39uPEd4iC8oHJ42LFR33CTc3UVdX4PQRBtUjO1Vl94WjdiHJjE2VbO6N9fLpw3M2+IF4+syFlsvMBWah1+7O+a/YFDw1OPdHBuqmqd20dMIUDbSEeaaM/j+HWDivGrcB47g5FOia0L2K5oInFugbADOjBFtqjJ/uf6eKgJ7WhaExu93xJH4aAgooDECMLn+hgQWKonb4XsbyHW+nQHfBhvt72A2v00ZP9dSNK8I4jGB6YsX1JH36yk/VAM/WBJuC6/wRgFHl3PfmRtv5fOGMCw6yr7an55NcMye3HCV/Sh+WpjxqgSk3h/BZhMPUKCbRbeqgVaL6H2+gv9fAaJSrQHDISj0/ZPW8TBPc0kO+sI71PFpYPTp4c0/RPm4dNDnBvDKrUqMW5jz9xwzHcY+2M+hElZEkGPbAEEwvMTLbWckwoH7W44MsnCFZHMNwxof2ALHwRy2NqzfZAyBmKYGX6rxmSJztZ6xv71tQRH2imfkEb7teYoaBBQDd1eCqEsh0dzPWN5K1t/e+ShjomtIcEU28TBXuIArxiJpFIhmLxtjHNTjT78XbGLjT7ffJQ06jq3/ThLS20R9v6/8sZE6bWvZ0T2ucx3DcJgJoUEuysCXsgxNSaX8Tynu7i5NlnA5eIXZO6V3H8f5xkgOZvD7fS38IDu0EGbyCWCsuSSCR9kajU4vqaIXkazQZNajY09j3ZwfqaIeHoLIBCy+0rH5yEgIIkBHeA9xAFkBg6j/9TqviV1NgL3wAUGu0HBiZf7wUGMfD1RALYj9F5/E2j6pd7+Osb+26vJawFVgRUcLvL7DsTOEZotO/lTzzZwSofnJxOBaNITYkBnIeM9oOCqV1o9r2NfcBI20x7povzFUMiMNjtgTBoG+BImVgA+2F1pD/t7fjrAfQl5egrD2PurCO93MOrEspBU2pQMMyU7pRV0+WHuj+mCJVzbTChii+1xAIz05yKJOIKRbLORlK7aj6+3sacNpt8wVAsBs6BxSYHVW3CygBPZbxiRmi0QyY7oCOoLxydsrnBZ4hKA1dvnXb5Jmxurt7K1Vt1p0cwtctH05jISgNFbeTqrEqnV2S0E5UGotIwbHKA+91ql48BWAudeauQJg/FYiZfkDltpmuAT74/ZQac60Wd28/WWvpURrBoQGCdFZxLQ6/EE4CvidjkoGvMBMUMZkqHk+upapPI6DD7goC7XDg6ZnFBQEEv+lMmVly9FRLDF4kOGmwsrQW6Az5sC4SkFhdba1G7AEcf8F88pQtVOb0srQUnBwDHTOkIihmBwQ5OYk8/CGxxjVqcNLVpzOLyzY3b5AiGJ2xuusaEk+vB1+kas8jkSLkozM5CySrj++ShXWj2G/jBbxiSH1mjP7GlX/WPvIDlPtxK34ZinLKgVjq8oBVxlVi+sYm64QSlUihPKwuSZ6klFpiZSw0+pL6ZCIBeuPv4E7cdJzzbxakRK8atLoXDo3R4R8zORonq6S72ymO4UxNdqtoEfmj+RROvrSPuIQoo6tl97Mxsl9odhJlLrcUXvb6haExm93zUJ1xZCZhnik2OWDwRSwBXNLV7dFgwtaYW2DRqkWpMvmBZynJoVTW+YUSVa4N30YU+/wpAmHn+tcn/uESxeMIVDP/KHVtdQ3gFxz8+rBSbHGqnV+f2T9ncmCnA8fLGyt7XcANYmX7M6vonfmBTM/VUDDSBwb6AUc7+x1FMIsz8X2/B81T+7indC1judhRzD1Gwb2CiYUTZPKo+ZRb2FmHwoVb6lhZapVBOURmxMv2jJ/t3olkHUoYl52llzoVYCDPPBepLoEyTL0hTA0qgR9r6Qa/u9Y2Ab/eddaQXMNxKkXzGE6CpTZ9RxfefoHxOEw/obXmiFi8BwNKriDAzHRHk94IgEIoBsYJ4eiteMYOe1MKv/mmzzO4BfWh5emuPTC8w2Kz+hQwLuiBVOLeZIMw8t/gjpSMIZEcAYWZ2XJC7CALnFgGEmecWf6R0BIHsCCDMzI4LchdB4NwigDDz3OKPlI4gkB0BhJnZcUHuIgicWwQQZp5b/JHSEQSyI/D/Y4Wx6PDvMhAAAAAASUVORK5CYII=;" vertex="1" parent="1">
          <mxGeometry x="588" y="262.3" width="112" height="41.23" as="geometry" />
        </mxCell>
        <mxCell id="IUDHi638Zl7lMzYL7OI1-39" value="" style="shape=image;verticalLabelPosition=bottom;labelBackgroundColor=default;verticalAlign=top;aspect=fixed;imageAspect=0;image=data:image/png,iVBORw0KGgoAAAANSUhEUgAAASwAAACoCAMAAABt9SM9AAAAsVBMVEX///9PuDAAAABJtidBtBji8t/T686FynVHtiSa0o18fHzh4eFLS0stLyw4sgC+v76zs7M3OTfH5sHNzc0XFxc+sxI+Pj7t7e32+/WFhYXA4rl/yG50xGGKzHvj8uCy3KmTz4VUuTft9uur2aF3xWSj1phmv0/Z7dW33q9fvUZuwlmSkpKJiYldXV2ampp4eHihoaEcHhtoaWhTVFPHyMfi4+Jauz8fIh/V1tUpKSmtra0Rode2AAANiElEQVR4nO2dCXebOhOGccBEpCltaJXgNd63NEuTNE37/3/YxdiGWSSMHJMLKe895zu1EAQea0YzI5nPsmrV+ji67pwWrU7//37IY2ng2EXLb/7fD3kseaJRtGQNq4ZVw8pUDctANSwD1bAMVMMyUA3LQDUsA9WwDFTDMpDnO46U0okkbLuGpVXYDBbXgTtvNptzN1hMB13bl87RiVUeVr/trZyIjB/g9nC+GLz4zlFts9Kw+tcdR0ZGt34QJ1B0CIOBLY/Hq7qw3DWH1NKUsNZqTofH4lVRWG5PEgvTwoo0H0jnX4XVnwruvLNgRWq/yLf7++rBCla+yqr2wIoG48p/K66qwRrbiojAFg6bDRVqdt+Iq1Kwwilz1bYj/WVv3HZHnoj+GQVXs463mIfqC8xn8h+BFXrU/oQUp4vdAyTpTjzOlp6rvEjQeIOrrw6sKUEl/NkYruOR3DAaZx2lZY4Pt8WqwBpjA7TlcDzCPXgiHZnoQLEsOuoeaovVgBXYyHiEfzpnfZRVB+F3eU+rfWDaWAVYfeyWhfRGil6aEo0tZxxX2D3Ic1UAloecjPA99VSnrWfZ/oTDvfY/IizXhhBsv6eJCrKKf7Y/Zd37DfOEseSwwg6yQGem38fixXW/uPTHH1M0uC1OjE2x3LAC5IltudD2DJvj63bgum7QHveWijqWP2DnjE1NsdSwyLBaqS0wDKbdKHhHQdV8+kKDffHCPFdgSKvEsOYCPa4/VnaarsuhtiKR7k8dbGc2Tx/7KpOtIiwPfe22UNxof5rWQVVVhwXJbXyP9giHJrTKCiuc4TB0xk0Q12rUJZoFdl5Ol/WYGUyKJYXl4hhb9liPaNSgLrp61gANULFk0Ff5aZUT1hR7Xh4mtVnxQFv8m6NFRHvIaHVz0yolLBIB+dfk+HxJUdm21Bf/0OVswSbF3LRKCGs0xDfvt0mHHh53Qvqzzukko1KKByqnldcSywdrTlYWfBKJuiiisOXyehPVD/yZpwOGAirbZpa4zDcnlg5WmwSKkoRXaFjZfie5f0/YwvF7qoJERBidNaSHc0YQZYNFUxAHh0ajFzisUKq4SaRtRVqzFqY1o4dHufLEksEakCKmmKDDLjJRbKC7qoMYKgdXAHGIU3q4mYdWyWDNiDlgg1lgY8JQwIKFilaIruvTLtd5fHzJYLXxF+ygJRo0qYkVOTWtZyk8eDRtIFZ0JsiXUpcMloVhCejdUXHT6dAzQfGP+yQ0JqkjjFDmKz+UDdaUmAM4BL2OzZwOqpRSGh4u4k/Iqc2cyz1lgxXi71hCOwSP5PAlVFRWxj92w8sT9gs5s5+3ZFo2WNYArw9O1If2jCw0M4QveLQK4tHyhQ2lhDUiOTSYtqC1+MyHY1hOkns3ySKhJBPhqMpVBzy0xAAcAoGFoMk1Xd3ZUaYZAf01av5xVUZYxGvBIRRAR0zPI7DsTZ1vSlmRVZ7c/qqcsMhTC1jLGqbtDq1F0HXDuGbTISx8MjHknQdLC4vEWjLn0OKLrFa4JG2UlWu2vFNGWAtcfh+AQ6CW4hCvxWCJQYMkT5QVj9tFplWWEZY1xI8Ipi8Yaks8ISq2HJHPDnlWvsjqT+d2xuRYSlg4+0Cx1imItXDGs++HTrZNYgZa4djWZD39ZrdSwoJIGjiMD4GdSOTj98Bi6zorVsd3NjPlaKLzZOWEFZIHAYegj0fxZTYsSRLvEauNipeEJl8QKTMsPO3h8AEaIix3ZcKia/8uM0EHZddtW4WrpLCsCfrifbjTCIwJWNTKgCVsEorSUFWxNDlW/OCnrLAsfKuwUDACo0Kk1qWHRU0wZO6KVwOjXgPm6UsLC8eLKNiCh9LalA6WEASEy7bfasr2oxUx1tLCsjz09aN4EibHySynhsVXewbMBOnISxXgqKu8sMjiBZr5YIXZ3hYCVbBsuSL7KptD1o3tDoBCaEsMK8yob6Kaun+6HlwclvBXdCepxxOcRjYBF3xlJYZFAnmBjAUvyMtpyEo0ip9XuHyHst4Ed3+oIrBI4Q6vQjQF3h3f8+z1z6VjCUc6p2x+G01YcGWzTSdUVTFDizp5vO2BBAAysPrBtDeZzbqn07ZiB7gi59Nt6U00WlbFwa/VwXtw8Yaaa/j4e37JOuabvW26P4dpQfiWHBbZOkUeL0p5k6fJhKVA1ZAr9Yab9OozGruWHRalRXO82W6riB7WyFNkLoKVpamm3GxLD8siboOuvLuTzZ5lHaygq/j9uW5jUqq2qghYflhk8zXf5DAav/iOrYS1fv2DopTHQlWq+VK5kFEBWGSDrOJnJdZo0aMZoDUfT3zljzCd4Z4f6jdXmndAVAGWdYpjefXG5Glnugjc+Tx+zdHp9kcqClSNPc6qOdHWlSsBi2Ypku90WMdkQjiOI3W/oos5O8M9qDJflVENWHQRXgj+zPvfzGbL2R4DDJaZL2GpCCyrSV62Jmf0xvfAsh2/l/2s4VhZS64gLLrJar2rG09pmbCEP1tkpzbznvIVNxWFhbObGNcEVgT1Pyh3/CV9CQRRuMj1EqQKwYrSWmImtmykFJSwbCFlZ7Enr3E7+wdV5WCpXo0i/OV0U+HDsOI6jT/sLfY939xzcr8So1qwrLDDZ3Yh/ZXXbnrSl1v5crjqjdv7H20+bZi84q5isDSZyPpXO1FUMBo1m83+aE+RKrmSZ0SqirCiYEjpjPe+mQ0pDHqO+WsTKwhrXZhRVD3zw5qPV+qs8UPCimLUHn3cnLD6i46UZi8oqDysSG08PHLAmq/fAXsoqGrDWoeSE5nkzNmw+m1v5r8JVNVhrTUfd2W8BKaDFbqLwUxKbSHiX4K11igYD1YUVth329PeGtNROH0YWBt5w1WnN4jU63SXDX9D6bhvOf9AsOLlaBH/71ERfUxYBSGqYdWwalh5VcMyUA3LQDUsA9WwDFTDMlANy0AD3ylaH+f/GrnvFq+c1f1atWrVqlWrVq1atWrVqlWrVq1atWrVqlWYLr6r9Pn8sfXwDXX89fMi0RO/zu/k4O/n9efH5POf502P2wusy8vLp8ezu6+v/GK/0qv9VN70JdQfxRWK0eeTDF08XKU9v4MDV/QyX8DBuOE8/fzFoi1El3fkep/o1fR/bK37Y8HYp0xY6EZuQOtXepmz9Nhj3GACK9LTJ3i1PbCe6NlH5JGpfbCSZ7VeQdsjvQzrbwjr5KQFrpYN64qd+/fIUHTaD+vkYdsVtpGrvLJDxrBOLtPLZcO6Yad+PjYVjXLA2hndD9BEfOpdemQ76MxhgUfOhqU49Z1cfB5YW38Oh8+N9iocTV5YJ8kkmwnrWXHmWTFwqHLBOt/0BS144EMvsm06BFbiezJh3SaHLjN6FaJcsLbDvAVa0GT/N22/3TZlwjq/XevpN/s725OzYIEvBvzzfVw8gHX7o7XVPR0FmwDiG2hBwcMtb8+ElbiYV+Ks7zbNWbBS99gCl7wogg0TgIWe/wuMQXe3DBpQ8KB4tkxYMDfAuDZtWbDSI5+sr/DDO0gHi4R+m7EAQk/4EMDlJj46NyzssDdHMmClo/uPBcm9i4vXw7L+gFvexFrwucBsfaa4Rn5YcHyc/IhbMmA9olu61/YrRBmwoIvaZj2gBQQPqkczgAWPbHyPHtYVPgBukWVgBSgDlvUzPbYNHsA3qQwhz5NGE1jwW6FXJLAekvbNtEsxF6ssWCBk/71pgfl+EjyA8D2dwU1gwaEZO2o9rHTa2RR+bsiZxSoLFqu7oMdKul8oAJrBeiSdtbC+0fZfacM7uPgsWIp7Bo+1Cx6AGwG5sBEsOja1sNI//4Pf/xtJ5FAWLEUWoxhsYDJ7SM81ggUuEYelWlhp887oUif2Di4+C5ZqmgNN2+ABDDaQAxnBAl9BPMnqYKVkEncOvtDiXbwpLJDZ3NBO8G4LgZUmk+lMAm6ocBdvCgtYzCZ4AIEqsMKDzTAL1quqFYAu3MWbwoJtsdW1yOetDnXwMXANrDTKg5mpum8hMob1RE5IP6Ia16GhQ3xNDay08Rm0qpKtgmQMC9Su1t8veK47eOqhQWmMQQ3rr6oRGWfRLt4YFoknwNT9C556aLoTX0QNK03sW1dAcEGzYBdvDIsU8dLS7h90qgksUB7OyA3hEoBOBbt4c1jAGm7gOENWaAILXHCbiSthgSReryNR0cgcFuDzGU76yAoNYKHF+E3spoSVh1XBLt4cFkycwTz2HZ+aGxZcBdllBSpYf0/y6NIqUgfAgulY+k+ykphvweIbRrUjroJ1cZJLhbr4A2ABO9RPRJmwLp/Oz5/OoV/fapsDKGB94p2ValkF6gBY6rVGcupBi6wZ64Yg9DxjeuL9C9EhsEB2kugHOfUgWLvAXAErbbi1mGDsV6SLPwQWKE8molszDoGVuD0OCzjHLxYXcGhFuvhDYFl83Z2N/gNgpYEah7VnWwOYc4p08QfB4jukmF81hwVGDIMFGtg+urWgHRbo4g+CxacmtkHKFNbjleb6cQOIMJ7pX4rFMqZCBCwqPyweTbNTwd1/YS1U5w94By6DtRcFtMPiXHwrmX/vaeEkSsfSg/jA13s0dd/zHT836cFX2pKqdfPw9fkXO/mK/OHX+7NW62z935lmb9FV0qN1dqfuUqvWe+o/UlEQMq8H7AAAAAAASUVORK5CYII=;" vertex="1" parent="1">
          <mxGeometry x="727" y="253.97" width="100" height="56" as="geometry" />
        </mxCell>
        <mxCell id="IUDHi638Zl7lMzYL7OI1-40" value="" style="shape=image;verticalLabelPosition=bottom;labelBackgroundColor=default;verticalAlign=top;aspect=fixed;imageAspect=0;image=data:image/png,iVBORw0KGgoAAAANSUhEUgAAAO8AAADTCAMAAABeFrRdAAAAn1BMVEX///8Ap3Q1NTUAo2y33c0AoWjK6d0xMDBVV1Zqb20ApG9avZfu9vLX7+b5+focGxsdHB3Z3dzi4+OAyq06Qj8iIiLx8vLS1NMtLS2+39EpKSkYFxfCxMNHSkkUExMAAAB4eXmIiYnp6uqytLNlZmaUlpU5Ojrl8ex1xaYODQ7Nz86nqai3ubhzdXWMjo2dn58qrH6My7Kf071TU1NdXl7//30KAAAJbUlEQVR4nO2dDVubOhTHkU5RtxXaDcvAYlu12q7Ve6/9/p/tQukLOclJwksJgfy3x2fOBvIjyXkjoGUZGRkZGXVMN9/U6Ici3uHV9UCBrm8U8VrWP/dXzWugjneoAlghr5IRVsqrYISV8ioAVsvbPLBi3saBVfM2Dayc1/px1SSwet5mgVvA2yhwG3ibBG4FbwLcL97mgFvC2xhwW3itH80s4dbwWm+NALeHtxngFvFab4N+8TYB3CreBoDbxXt54JbxXhy4bbyXBm4dr/Xzul+8lwVuIe9FgdvIe0ngVvJeELidvJcDbinvxYDbymvdXJeSKMdqLW9J/RIAG169ZXgNb5ekL++wVCtteb+/lWqmK+/7dbmNcJryvg96xfs+uOoTb4LbJ94Ut0e8e9z+8Ga4veH9dag/94T317Gu0Q/eE24/eM+4veD9N1ek6wFvHrcHvARu93lJ3M7z/gcK7B3nhbgd56Vwu81L43aal4HbZV4Wbod5mbjd5f3GvtPbVV4Et6u8GG5HeVHcbvLiuJ3k5eB2kfcPbw9O93i5uN3j5eN2jleA2zVeEW7XeL+LNsIZXikZXsOrQobX8JaR4TW8KmR4DW8ZGV5NeAc3P4vpwCt4nLa1vFfFXit5f5wOgtdptZe3iO6vzrOfD9wJ3jyuALgLvCQuH7gDvBCXC6w/L41rWfj7w/TnZeBaQxRYe957ZlyCAmvPi4RhGLDmvOzRTYUA682L42IvPdSa9577zB0TWGdePm46pTvFOxA+Ucl46aG+vGJc1ksPteWVwWUAD/5cmoytqryDn3LngcCa8l5L4lLAevLKjm4q8rWWWvIWwQXAOvLKT+ZM+VfiachbFJcA1o+3OG4eWDveMrg5YN14y+GegTXjLYt7AtaLt8pvp8qAteKt9su49sA68Vb93WMpsEa81X/VWgKsD+91DT19G9RxlDIqzFtPR9904a2rn2+q6hsF36OpaFhq07CgVPfXyMjIyMjIyMhIgYYPlGSaFW8hagd7sVgkf5Mve9UXqy5jN8op+eZpLdFst8o1Wr3Inm2bbxZPyY5EpNz9n+yfifzpy/zvusClZWri2lCBTO/vgnwT/0PubK9+vpVzm//Z1KF6QspxgtCLlvPHEpgnzQL6wPFC3I7ktaNnmZNtYhKgGO+hUeBH29LIw4hxyHAubgh47ZXEIpisQNfL8KYKPOdvOd5nn3U8V2weIK8djUVNFh4cqrK8ifywFDH7JL74WBSv4wgu0tCG56rCm3RyOSmMO2JN57QnxXntYMpv8UW1qMZrO7HEuiPFslapPKFBoHntkGvXtyHd4Wq8yRBPC7onZHhBTyR5uV7pFS7eOnhtxxdajbzY1ipVNCrBy/FKwBOxeH+X4LUdYUfzwi9psC3Di3qlCQu3Dt7El8iPMGatUkWClcHmtV1mqLKggzgxb3BQGPpeFEeezz6jE0qv4TlirVKFr6V4HZvhlWhPJMHrkVfuYfI8C1zWSYMvSdwhw4Sc5ZfiZXqlW+SzXF7WPJ3MXdrK275gaI7CrdX+KPyIGOO1wzv4UYYnKsmbjNHHip4rKzmbBa0V+a2zLMdLeSWWJyrNm9iCKXX5HEGkkwlYq/ATBB8eNwPAee2IiEaZnqgCbzJfqHkpmIuZgLWKxiAVdrjhEoeX8EowJ6qB15pRwOL4F8ZWzhc1wWOeZ+Px5nIlKieqg9d6gVPa3whxgbVKpwT4r4AXjnN5neDgE4dLXhBRmteCh5VYwWAwo8RvDkFYEHEyPC7vySthnqgqLxWvCbNvYK2y+BEsaV5Kzec95EqoJ6rKa23B6UXhEUTLjPEYXLagNK/tz2F1rlZe2FPhhAZdOZDdkufkmAERb5IrcTxRZV7YUzvmR9HANB2nwyP535yrBnmnFH9ITeZgWh8vDA59foUCcz2g1xFaIgK8/mQnGnA7uJ2Ay1mBdwFyO/4CHtPON9MnOSgBFQwjvN6E8hFQjjOskReejh8dAWt1jscewJpDS++Qd20tBNYpSfAmZPRRiZcqvfE+jDtawBFiJSlqPicujhM6ZkFmnbx/gXngBQsbEEjlijdrcCk8OV4vXeiPHIO8L23VyQtMK1JZyfQFSgn5TAisC6z0zuK1Ptl1G/uYJNbJu4a8+OeBtSLDCjBPsDSYycvIXDIdStN18oJj2S6e9M9JJNKUwztoSOmdzWuxvdLRj3N5QZuivB7OCwYBxNrA8Dm7IrxMr3QqIY54vGDx18e74QdRsErLTj0w3gdGinA6ApcXnLbw+kV5gbWiiiEg9gpmRXgZXml1WhF18lL2Gfs8TC1i6LjA+LNDcZSX8kru2cLXyUv5Xyxh+BCGjMCrhJ+FeK1PgsrPVUnq5IU3C9B6ObgujMQC2G87LMZrzXLtg7y5q5MXrDrnN/I5OFsZMNA/s9JgHm+ujEO67xp5H2AMgd3gA4lywAqQwWdYaTCX91ym84lVVSMvNWysRWfRY2cHp+1drrvf15UI+lCXLr1zeU+5ErjTMQIV7gq8O9BHH7k78MEvobHF2IHG5z2U2WOwEMa18S5gakJ5mYO49wRR0WmwgNd6TjrkwZpDfbww+0WiQGraS4pOgyEvFd18xBFlQmrjhTEEmsbBsp6sqGxayMvsZl281EYMpDxJXRdZUaV3pbwwQEDrbK9lrFWmFvF+UkYIq6OWx4VhmELeT2qbDbZdDOYUBeSAXSHqeLe0i4mRs0MnXURgY5cq3seAnqPhjH06ykmHPkdwOxR5UDW8mykrfvCRWANaK/851SbVI6U1dF0rwuRfnheGOOPnbQQHIesYttEE4PJvQdAROREtXZzXuZvttb17eXnZ7Zaui2ywc5FMgbJWgltqlDEnMuqL89rOcUOhk4qJuu/VDDsblVIIekdP/0Z55eSjG1uhteJuR2E1IHL3lvBGOAQcLk5B/qAXMCHyaXAreJ0VZ4cJtFZYwecsuODzBq4NvP6Sc9ZH4LlknmehspCzT1TPG8TcW/rQWq0ktkmDu/35Ja+aN1jNuE/BUcZH5iHBB3iv4JwGK+V1fHcueOaPci5Sj+DBXTjnKqA63sCPd8/CB+BgbCJyvpng3f7zRlQVvE4Q+rE920isxM2TR2gl+WiWcyzRuq7nJV+ejjHHLiKSiyepZ9tGT0SjiKhrP7keov3po2h5K//873gEJNluMT5pNEq/HpfNaE1K6njD9YRU/oewhzml5636oLORkZEG+h+XQyVPxP/yjAAAAABJRU5ErkJggg==;" vertex="1" parent="1">
          <mxGeometry x="870" y="253.97" width="70.3" height="62.06" as="geometry" />
        </mxCell>
        <mxCell id="IUDHi638Zl7lMzYL7OI1-41" value="" style="shape=image;verticalLabelPosition=bottom;labelBackgroundColor=default;verticalAlign=top;aspect=fixed;imageAspect=0;image=data:image/png,iVBORw0KGgoAAAANSUhEUgAAAOEAAADhCAMAAAAJbSJIAAAAS1BMVEWZmZn///+VlZWSkpKQkJD29vbDw8OgoKCamprNzc2srKzo6Ojz8/P6+vrl5eXU1NTb29u7u7vKysq4uLioqKjg4OCysrLX19ft7e1SbUggAAAGHElEQVR4nO2d2ZLrKgxFbUE8ZfDs+P+/9Nqx05kMSU5F2lyK9dzpYhdYSCCkKAoEAoFAIBAIBAKBQCAQCAS2IFIKPQY+JnFFUvZ7Qg+EB1Jps48voIfCAlEyxldS9Gh+j0rP8R3eKaSsimOPFZLK4ycy9Jh+ihqOzwJjr2ypql70xbFHGyKluw2BB38UqnZDXxz33ihUyabAOPflO9QvNnRlQI/sR+jSINAXU6oak8DRj8+Qto2MR59hahQYd+ix/QT16shcOWj04H7Bpiez0viwSGkwC/Qj/LWs0bjywZKSaauf8SI2zCwCvfBJbWbG/yk8+zCFZPRHY09cUrIIrH1QSIagcObkhzszmhWix/YbLHam8GGN2hZp4oMdnRbpySSw9OIjnBSaBFaeCDRGvmdfBFK9LTD3RaAprGj9MDIzm173LvVim1hQ+41P0J8JjLY8mkPhlcBIHR71HRNvTMzK4xzuEuXRF7hw/x32g/ZO36SwX9SN5eBr6tOQJPWQKv9W5w0io7g5pW3B8kdQ5gFGaTEMRRfNo/zmp6Sm6T2fxsNud9j3VV4XkWMTPY2wzfu7vWAs6+zDIU6/raunbWS2tH2SumKLSBfl6win3Tzv3g6RVJZsODpXlWXhgEiV5uZ7iF2e2mZSkUXe+h+aCGt1dWGM2lfG2rAxTFNvO/6+UaU4jXqwHJ3dOG+sVhU1W+lCBo0ZZq2q9N0S++OQ0P1qJT30H8u7kCOm8TWp0Epf07zRTRvDZJgsN4gGdp20RtV9vsiujGXS1vmXs/eH8FGHNubD8DFKCjSfe3JyFDzv2NrgJRA6+af0e0Pxv5JIloQmfjoBiVCBElf9GW6JXjhyT6L6fhv8MXvefVFDtolHWPMzzYmvgrA+bivQ6iZYT5FtOXdC8N7jqPP7ETBz4o0wOrQ+7tt+jfJG/2h4BZquqOXgTkiBm5mGWaAtI00E9owb9BSy5/Whv8Id+0EU2pDyB01gfy1hD3yt+ef8MEdMF4VQgQJr1PKaTgKBM331rwfVP+EocKCPXaT8ZgZsSSWm0PoYix2Jd7NbOYVySFQCgX6GzGH9AjS4l3grhA2cRO5ibO/NuNlLLFKooRF53A29qygEBGJNqcitL/LGkD+2n0H6bCK7ITR0qkQ2C+R2KFLMhZCXhhKREzaykFGIdGmCwqDQfYUibilUYem9QpGiQ9DdQiQ8hO74EkeJ4EMMAYHgy1GRUpi2+mrsiLje0MNEEVMTIRWKFE7G3jy1EtcW0CwFiSp1mPcjf0ic6iPdNpHwApzwJVG0FbohTpu+wDrFKhSYRA3O2uPfMMDGVCDAwGYqTJTcEsEpUbFElW+0QvZ1in/PxZ0iTNjkyxnm7D10DvRMzSvRVt9YCt7SfNgAaoVVIji8WGF9NAN2vlc4K0eAE72vnPg8VGwe9I0jW40TF/aLhZKrCJitmLosx4Hna0RHUPfsWZaqO8t05sSR0OeINV05M3yM4KdPT7AcMbqx6a8w6MOfR93Dk7IIve1+gun0zYUQaoXJsXHFc2PMsnGhtMkFtheX6OfOV/huvl3xaxhP+dFlBxZ2jHEwvHTEBdYrUycmkfXMzYVJZE45dWASmS8T8ZPInjUMn0T+21LwXaJA7on+qMI1F5x74R/QVEWJzBPocYZAGZcLOIVCrVhxDrhYaXYNetwtkri/ADrPEHnXvYDxbEQbmCGq7co8674hr5A/L+oBa5N7FsRbXEgXpJXIFH6WKJsJhmi7LlpMAtKzW9K16TGNErWYCy7ozDwilguG+AgXhLw3iadPBkgkGmbP8rZKFDi1Ya8gbEex++Ajup/nl627vuaAbw+oWSU6IPDz/l2nMhm6NM3Srqjz/jOfzwmB00J979zsm07f9Sad+8tlyfsYU6QO1ieQ/YL/0Gz2JCVFif10mbkXwjdQZD6b6i29REl3Zs/v6FZXcm3YNfLszTBVZOhjCmnqaIOi13T+ff1JPi+p9vWLLCM3bMwDFD18Vqfk047AS0vgm3E99q1b7Y5vkMra5lxVZdN+23ybpr/v2nru25051s75CVr591//djyBQCAQCAQCgUAgEAgEAgEn+A8MemDpBPP4sAAAAABJRU5ErkJggg==;" vertex="1" parent="1">
          <mxGeometry x="1010" y="254.99999999999997" width="60" height="60" as="geometry" />
        </mxCell>
        <mxCell id="IUDHi638Zl7lMzYL7OI1-42" value="OpenGL" style="rounded=0;whiteSpace=wrap;html=1;" vertex="1" parent="1">
          <mxGeometry x="720" y="330" width="161" height="30" as="geometry" />
        </mxCell>
        <mxCell id="IUDHi638Zl7lMzYL7OI1-46" value="" style="shape=image;verticalLabelPosition=bottom;labelBackgroundColor=default;verticalAlign=top;aspect=fixed;imageAspect=0;image=data:image/jpeg,/9j/4AAQSkZJRgABAQAAAQABAAD/2wCEAAkGBxITEhUUERMWFhUVFh4aGRYYGCIgHhseHh0dHx0ZHRsdICgiGB8mHh0eIzEhJyorLi4uGCUzODMtNygtLisBCgoKDg0OGxAQFzclHR8wLS0tLS0wKy03Ky41LS0tLS0rLS0rLS0tLS0tLSstLS0rLy0tLS0rLS0tLS0tLSstLf/AABEIAFgA+gMBIgACEQEDEQH/xAAcAAACAwEBAQEAAAAAAAAAAAAABgQFBwMCAQj/xABIEAACAQMCAgYGBQoEAwkAAAABAgMABBESIQUxBhMiQVFxBxQyYYGRQnKhsdEVIzM0UmJzk7LwVIKS4UPB0xckRFNjosLD0v/EABgBAQADAQAAAAAAAAAAAAAAAAABAgME/8QAIxEBAAICAgEEAwEAAAAAAAAAAAECAxESITETIkFhBDJxUf/aAAwDAQACEQMRAD8A3GiiigKKKKAooooCiiuEt5Gpw0iKfAsB99B3or4rAjIOR4ivFxOqKWdgqgZLMcAeZNB7Jxzqp4T0ltbl2SCUOVOM4IDY5lGIw4HiuaoukF3JdqVUNHa95Iw0/uwd1i8c4LeXNMLtFlozpKzIVI7jok/ADHgcUGv319FCoaV1RScAscDO5x9h+VRvy/af4qD+av41H4JfxXtuGdFY5w6MAQGHuPdvke41k3S+1SK8mSMBVDbAchkA4HzrbFji/Stp02W04vbytoimjdsZwrA7eO1TaqOjPDoo7eExxqrGJSWCjJJUEknmd6t6ytrfSYRb7iUMOnrpUj1ZxqYDOMZ5+Y+dcPy/af4qD+av41Ju7KKUYljRx4MoPPwzyrCb63Vbh4xsolZR5BiK1xY4ui1phudlxOGYkQypIV56WBx8q+33EoYcddIias41HGcc8fOvVlYRRDEUaIP3VA+eOdF5YxSjEsaOPBlBx5Z5Vl1v6Sjfl+0/xUH81fxrrZcUglJWKVHK7kKwOPftWOdMODeq3LRr7B7SfVPd8DkfCtK9H/UtaRvFGqtjS5A3LL4nmc7H41tfFWteUSrFpmdL29vYogGldUUnALHAz4ZPkflUb8v2n+Kg/mr+NS7q1jkXTKiuvPDKCPPBrN+AdH4LniE7BB6vC5wvcTyA8sgnHkO+qUrWYmZ+EzMn1+PWoUMbiLS2QDrGDjng9+M18XpBaH/xMH81fxrq/CLcoEMERQcl0DA8hjasT4/arHcTLGMRrKyjwGCds1fHjrfotMw3hWBAIOQeRFfaWvR/xbr7RQT24ew3kPZPy28waZaxtXjOkxO0e7vYogDLIkYPIuwXPlk71DfpHZjncw/CRT9xrO/SZxQy3HVr7EHZJ7tbbn7Bj4GrX0X8MheKSSSNHYSaQWUHA0g7Z5c629KIpylXl3poSsCARuDyNfaBRWC4ooooCiiuc86opZyFUDJJ7qDpVLxPpEkZKRKZZBzC+yp/efkPLc+6uFxNLcjbVFB8nkH/ANan5n3cq4izVAFRQoHICgp+IXNzN+llKj9iPsr8Tzb41Tnhqjkv9/Gml7eo8lpUhekvJrdMxOyDUMqDsd8fDnzpz4RZozBpAXYbgyEuR5aidPwpSuIhNcLEu6xkPIfeOS/j/tTYOIJAuptz3KOZ/Dzq1o1EIhy6c8WS3i1PuW2VRzY/h76yOfjLudTKAM+yPv8AfTF0huHuJDJLueSjuUeApcuoO4D4VVJz9GHFh6yY1ORIhyvgV3BI+Y+NU/Tv9fn+sP6Vq19DfDI2eW5VzrjLQtGV7m0Mrg8xuCPn8arp3+vz/WH9K10fjftKl/DX+Cfq8P8ACT+kVNqFwT9Xh/hJ/SKmmuefK8CsG4l+tyfx2/rNbfw7iEU6dZC2pckZwRuOfOsQ4l+tyfx2/rNdP4/mWd280UVzuJlRWdzhVBJPgBuTXK0J/pQ4X1lusyjtQtv9Vtj8jj7apfRVxPTLJAx2kGpfrLzHxX+mtCJiuYDg6o5kIzjGQRjODuKxKJ3tLoH6cMm/v0nceRH311YvdSaSzt1O2ydKOJer2ssme0Fwv1jsPtOfhUboTwv1e0QEdt+2/m3d8BgfCqnjk63t3a26HVEAJ5PAjHZB+Bx/nFOlYz7a6/1aO5FZnBwv1q1vyN3Fy0i+a5JHxBIx5VpbNgEnkKUPRcSbWRj9Kdj/AO1Kmk6rM/wnuSX6P+L+r3ShjhJew3n9E/PbyJrU+kHExbW8kp5qOyPFjso+f2VkXTHhXq13IgGFY60+q3cPI5HwpksOJPxOS1hYHRCOsnJ+ky7D57f6z4VvkpFpi/x8q1nXSu6S8NMNjbl/0s0jSSE88sMgHyH25pj9E/6vL/F/+K1z9LX6GH65+6vnol/RT/XH3VW07w7I6sfaKKK5WgooooOV1cJGhd2CqoySao7EtcuJZhiMHMcJ/rfxb3ch8yabifFhdTdk/mIz2R3SMPpnxUfR+feMXljOFGWIAHMk4AoLadar5lA57VU8W6Yp7NuvWN+0dl/3/vnSxew3Vz7c6qD9EasfEgfcKtWu/M6RMmVeMROxSA9a68wp2B8C34ZpPuukd5NdeqxqkZbkV3Pvyx8PEAcqjcM6F38DH1WWIq3dq5fMqfspx6IdFDbO9xcuJLhxjI5KO/H9/OujWKld+ZZ++bfT3Z8KW3TSnPmWPNj4moF6nPNMl6RUbhnD1lft+yOQ/a8flt865pnfctCpBweWc4iTPix2A8z/AGacejvRKK3Idvzkv7R5L9Uf8+flTDHGFACgADkBXqoSXrbh0NpdXFwZI447hUyGIXtqXJIz4hvn8KyzpZdrLdzSIcqW2I7wABn7K2Ljb2gUG76nSNx1uDv7geZ8qUJelXBVlWM26gOwUSG2ATJ5ZLAED34rbFkinatqzK24L0xshbxB5grLGqspVtiAAe7fzqu6YdNYTAYrV9bydksARpU8+Y5nlt458KtuKRcPjcReqLJLjV1cMAZgu41NpGFBIIGSM4OM4qfZcDtCEkW1RSQGAaMBl7xkEbEfZURbHE71JqXHg5hsrWGOaRIyqZIZgNzu2Aee5NY5eXIad5ByMhYfFs1s3SCa0Vo/WIRNI+RHGIuscgbthcHAGRljgDI33FcuE23D7hWMdtECjaXR4Aro2AdLKy5GxBHcQQRkGrY8sV3M/KJrt8TppYEA9eBnuKtn7qWumfSdLkJa2ba+tYBmAIHMYUZGee5Pu86auJ8JsYonlktoQkSM7ERr7KjJOw32FVr3/C7a0XiAiRYiqsrLH2xq2wBzBGTkd2D4VWtqVncQmYmTPZWwjjSNeSKFHkBisw9KXDdFwswG0q7/AFlwPux8jWq0vdJb611rBPBJO2gyhUjL6VB0ltt+ZxgZNRjvxttNo3Co9FvDdMLztzlOlT+6u335H+UU8VD4NJC0EbW2OpZAU08tJ3Gx3Hkd6+3PEESWKJs6piwTbbsrqOT3bCq3tytMkRqELpJxiGGGXVIgfq20pqGokjYaefOlr0Z8XgS3aJ5UR+sJwxAyCF3GefI/Km644NbO5eSCJ3PNmQEnAwOY8BUCw4dYXCsUtosJK8Z/NKO1GxRuQ5agavFq8dI1O9qb0o8M1wJOvOI4J/dbb7Gx8zXb0ZcJ6q2MrDtTHP8AlGw+ZyfiKbZbdGXQyqyEYKkAjHhg7VUcM49FI5ihhm0xyPFrEeIwYyVYA52AKkDao9SeHE13sqelPiETpEiSKzK5JCsDjbG+OVR/RdxWGLrklkVC2kqWOAcagRk7Z3Hzp7HR603/AO7QnPjGp+8VQm84WXKNaKqibqet9XAj6zVp0awNsscZOBk89xV/Urw4I4zvZwVgQCDkHcEd9fa8QxKqhVACqAAByAHICvdYLik70icd6qMW6HDzDtEc1j5HyLeyPdq7xTfI4UFmOABkk9wHM1+eOlvSnrJ5JzuXOI18FGy58Ntz7yaJgzR8XjgQFjv3KOZ/Ae+q6545LOe0cKOSDl8fE++qzop0Qv749YVKI3/Fk2GP3RzYeW3vrVeC+ju2hAMpaVvfsv8ApoiSRZvV3ZyU/wAfBrdRhYlA8MVmj3QMjFcBSxwB3DOw+VSgx27oeag/341OQ/sSEfuvuPnzFLUN1UkXdBa3TSj2k+I3FI8PSaaCeUrhlZzlGzjbYEEbqcbZBpjXijp7LEfd8qgcS4vbc7m2ifPeMqx+K7mtMdor+0ImJnwlJ6QwRusynwVkYfNo8/Oq696cO2wEvxlx9kap99Q4vyfN+it70HwiAkH27/bXO84NEozpvUH79ofv1AVrE4VfcrrnijsSQFXPMqNz5scsfnVF0gYdQ+rvIA881LvOJWsecNK+O7q1X73OPlVFJK99PDBEunW4VVzndjjUx25D5AUyZKcdVTWs73LcOjPEGgLTXKSlbuG3lWVY2fBECK0T6AxQggsMjB1nfNO9vMHVWXOGAI1KVOD4qwBU+4gGoFtfQRiSFSR6pGmsYPZXSdPnsp5V4t+kds9vFcI+YpnREYA+07iNVIxkHWcHPKuVdX8WYwXyXTo7QtbmEsiM5jbWHBKqC2lhsSBsUGede+jiNJc3d1odI5hEkYdSrN1QfVIUYBlBL6RkAkRg8sVLm6RQrM8AWZ3QqH0QuyrqAIyyjA2Oa+cS6T28EjxydZmNFeQpE7qitqwzsqkKOy3+k0Hjpyjtw+7SMEs8DoAASSXUryGT30nca4LO4vrXqz1EMVzPAdOzPcRMERRjco7XGw5akp/4lxeGCA3EjfmgFOpRqzqIC6QPaySMY8a9XHFIUh693Ai0htW5yGxpwBuScgAAZJIAoO1k5aNCc5KgnIwdx3jupa4tYTycSQxSvCPU2BkWMN/xV7ILAqG7+R5cquYuNI0TSiOfCEAqYJA5zj2UK6mG/MA9/gajcN6UQTByizBY9ep3hdVBjJDrkr7QIIxz2NBYcK4elvDHDFnRGoUZOTt3k95PM+dVfG4WN7YMFJVXm1EDYZiIGT3ZO1d+E9Jbe4ZUQyKzp1iCSJ01pt2kLABxuOR2yPGurcfgFtJdaj1MfWam0nI6pmR9uZwynzxQWdKPRDiKRmaBxIsjXtyQDDJghp5GU69OnBBBznvq/wCKcXhg0iQks+dEaKzu2OelEBYgd5xgZ3rlNxxFiExjn0kkaRBJrGM5LJp1KNuZGDt40FpSJ0RcRzyq810rm9uSITEeqIaaQq2rquRBDZ14+6r+26VW7wG4xKsQCEO8TqGEhAQrkdoHI3HLIqynv40ljiY9uUMUGOegAtv3cxQSqzj8lzjXKWmaIcVLPbFBoZDMAJRpUSNpYrJuxXscqa4eldq0nV5kH55oQ7ROIzIrFTGJCunVqBA33I2zXSbpFCszwBZndCofRC7KuoAjLKMDY5oLiiiigXenona0aK2QvLOREMbAA5LFj9FdIIz7/hVF0R9GFvbkS3WLifnuPzae5VPtY8T8hT/RQAFFFFB4lB0nHPBxWGQXNbtWDdKLVra7ljIwNRZferbr57beYNSLGO6rqLql2O7rp63RC7e6rv0V4D6/clpAfV4fa/fb9gH7/cPfVPwizlu5hBDzO7v3Ivex9/gO81tXB+GR20KQxDCoPiT3sfEk70EmCBUUKihVGwVRgDyArpRRUJU/H+jFpeLpuYVc9z8nHk43+HKqnor6O7KxlM0QkeTBCtIwOgHnpwox4Z3NN1FApSRN6xxU6ThreIDbn+bl2HjSzLwyaCKw6pGMFzLYtIgBzFMjwkvgDZXRTqzyZAfpGtTooFLh/DpW4heus80Sh4eyix6ZMRLnJkjZvd2SPnVb0i4dcyXPETbyPGfU4MKEBE2DcEx6iNS5HZypBGvPhT/RQJfFg854fDaRqsYQXJWQHQFjVRFG2N86nDAf+lXPg0Cjh0tpfhgtrJ1RZA/sgq8EiFQW7IZMN3GMk8jTxRQLnQ+9mk69Xd5oY3UQzyR6GkBXLAjSofSdtYUA/AmovBYmFjegqQTcXpAxuczS4I8c91NtFAhdFrKaKawM7vKrWJEepAOocCIsnZAB1Jtltx1RHeai3DEcPuuHaJPWZJLhEQRthhNM7pIGxp0aXBLZwMEHcVo9FAscSm9X4gLiVWMElsIhIqlhG6yMx1aQSocMvaxjMWD3Vc+tpNAzxklWVsHSRnGRyIB51OooEg2Uj8BgREYyLaW7aAO0erEbsoH7WFIA8dqmpeLd31tJAHMcEcxd2RlAL6AqdsDLbMSBy074yMtVFBmtrYzLpkdnaAcXlLW5QADVcyCOYMBqIWQo+5K437hU4zrHxK8Ml1NAGeEhEjQrIBEuclonPu7LL/zp8ooCiiigKKKKAooooCofEuFQXC6Z4kkA5ahnHkeY+FFFAtXPo2sG9kSR/Vf/APYao/8A2XWf/m3H+pP+nRRQM3AeAwWcfV26aQTliTlmPiT3/dVnRRQFFFFAUUUUBRRRQFFFFAUUUUBRRRQFFFFAUUUUBRRRQFFFFAUUUUH/2Q==;" vertex="1" parent="1">
          <mxGeometry x="302.5" y="448.88" width="120" height="42.24" as="geometry" />
        </mxCell>
        <mxCell id="IUDHi638Zl7lMzYL7OI1-47" value="" style="shape=image;verticalLabelPosition=bottom;labelBackgroundColor=default;verticalAlign=top;aspect=fixed;imageAspect=0;image=data:image/png,iVBORw0KGgoAAAANSUhEUgAAAT4AAACfCAMAAABX0UX9AAAAwFBMVEX///8AS6kAQqYAR6gAPaQASagARKcAO6SLpNFIc7q7yeMARqdBbLaKnswAPqUAOaMANKIAAABsjMU3ZbQAN6PD0Ofa5PKuwN7i6/Xp7vb1+PwATars8fj3+v3M1+pbW1uwsLCestdhg8Hr6+stYLLV3u4aV64ALaCTqdKwwd+/zORmhsJ2ksimudtWfL6Koc4pKSlGRkbLy8vi4uIYVKw/abVnZ2cqKiofHx+4uLgRERGOjo48PDykpKSDg4MAKZ8NE49BAAAOI0lEQVR4nO1dC5eiOBbWhCQiGizFFwjd2GhjidjTo7O9M7s7//9fLfiq8DIRAbWG75w5XVOniOTzJveZ3EajRo0aNWrUqFGjRo0aNWrUqFGjRo0aNWo8FqY+m03PmM10/dEv9AIwp4v2xvX8jrMzEKCSdoRKKWzunL3c39rtxaRmMoGpten6S0iJRAFWIEQBmgxQE0GoYAAklSo7uWtbk0e/8pNg0t7KmBAKlChjmUAo4JEQsO+OR49++YfCtFyfaiFxQrzFWISYqlqn+z579DQeAqvVUUk+5hhAIPUcr/3PonC68TEB8D7mPijEEtm3rEdPqiKM3AGh90pdgkKgGv32p1fKE9cpTuyiQJgo87b56BmWB3PcKYu7C4NgPXz0NMvBwgvN37IRymD38xk0K0fDBe93mQC9/erR8y0Sutsk5QseAyjh7fTRsy4Isy2g9wte4MbBEAoOoBx+RNf8FEDWi0fPvADMPArykxf4FhhQQjQVG8vBQJZlfx7AD34YDHYG0LTA3zv4yYnPQFiTX12NmC2ckzwF04C0nbzu2u3hYqqnWiSmPl0M25tt33dwj0gAR1lUyP696hkXiQ3MQR7CgPSg722GN4VV9EXb9TpUI4DRUZAMXlYCraV0I3kIAqLu+raV34mdWnZ/F3rTZwLVzkvugfq8d5u2DagD+9awCPdft2wfEXoUQ9ibv15IYUPxLWKnUOpsrUJdrtFmbqgg3A2xui1y4PIxlYn4ug19LX9cip22cDuUKghRo13G8CVhDMRFD1LqlxkrmY39gEFI/FdZweaciAuett+UPi99I2sA0E3Zn1MIRgYQJY8SryL3fubutJ78AgK40QQVLiTGpsrwnOV/155+B/Q0MZ0BiVN5WGTa/T6v+jNvgyyJLVuyfIggmK7zxMHA2UBo20PAGD/qFU33ad3g6U7IXlEea8XOnjSjNIUKn7tg3XbqCosUTJGIylXIa5hfVWMGRdijgxTnbPbeWjsGUQk1Buvt6iUjJHdC3wmsXKR1Ew8uurveOdCJEMSAqsRP80TsbSsb9io9Omgzf7M9K/vRtZEOcG8MNt6NvYDWgDRhrYwdLRlRRQrV/ETVRUcCV0CJRmU3YZUMmIcu3127d22k83BGv7rCj7mAxYKN+OyGy8wMHNbk2F/LvM0BKUDrxMySDvMQuNAnZJwG/rhTkXHqCgQJsBNbkWb/qn+nqK3In3PpCxEPLt9B33G0KvKdQ43/KngQc3CnS47EIqnDPiJEX5z1++gL3pqWnyvRBRJCeBB7aCJgJWKHeUCQvsCwZBzbe+lrNnulO0gyX20oy9gzYnYOy58ofYF15BdIH+qVLH8b/sYHUdxTGojFo8E6B31NySuOvuDbKDVMOOMvXSTFda4bm0Fo74XlAolqAe2iSm+gr9k7P1UEfdhvlIg5X460eGhvqkZowmTQt8fjjdvfAynKErys+gh9x4KXI1K+PWSI0wdjSA6nlmgAWiqXPeDFH/IilGveh4mvrwbRJB05b90sfWi3H1ywNAJ3L6aHqCtKHxpE4RiaFBMIpUTxG3DXFIyrjUYjEpKmsS93E+EP7k+/ZunD/cgT5mIjR23Is/hx6UPNxMvp73M1OilSmvW34usNNaG63tmHtESIwIrwp55E8wp9IUbRUC05fmge+sLBoh58eUm6JVf48DrxUJeZKUhGERo2Zd/9tHo59MUcx9Nf5KSvYe7YbxCXlSJpc4UPpeh9lgktLbSxZF4ee8mHUumL7CPouGPkpa8xZCcG4zZ/UdhzhS9NupivFoG0YV1GkBT5+Ds+fRY7ZXL41nLT13AiMysnozriOrtISkktMJYigmnjLhgi4Mnz4NMXmTI5KKT89LEbDALl0OdxbT6cMFoaEfqaWtqbzTQm9naaoAB97Osct8z89G2Y/bcs+vhefy9ta2PPKEipMbXu9oLuKYIiQJ/NqqSDtsxPH7v5IVwKfRZXcaRvuqxmQDvBVxOgb8xIDDiwnp8+dm5oJ/aKN4K/dtMtJp99TjHEfKJb6Tv4HfnpWzFjwY7QG96KHTdYoKVGK9yIhYu0jkhQ/MbFS+9cvOxYGR93JybcyEWGwbSIKWxIcJ97plmAvj6rOg5hivz0zRNjFQ1+4AenGH0hEr4KwpK03w6v1U8I0MeuBnLwBXPTpzORFySV4vN2uem1dLUaTCDFXgxPJeCOa2VRyKePdYEQOIyTm74Wa7iXE3HhBzBTPbIQnXSlE1CoKrKbWmLPpU83GOE7bRt56Ys4o8mYRyFY8jRHuksRYpodokYKIFTeJNYLjz7dYa1QcKziyknflg3nYjkPOVzMuCd0L7G6JKyrVagBhb19bOFz6NuAiA1/3PoE6DNGMVjjvhqNfZUT7Zty48zXsgRD3tlyqDqRRROjz7xAH1mbfuzQ69lRFog2EzWK82mkM8rKtC24Pkeqw3vGaMk75gu1OaNHIjst1hgkZhxIzEqUPg4UUlY16pBLX1qwisFW5XktwPgIRd+SabvYm3fSh8igtEor/lsA9/oIk2CXuS6B8CMRclOi8pwYvY8+ZVliLef99IXHVZYpFWoMED0zcQN9vcus76IPlid6Qm/Bp68R1kcaWmLvYuZgnPY/cfqYIsx7K6ziVXIFgh+u4ux9F0w28/BSq3QKz+pbuERIY760e1WH0rML5YzBiG+43BCpWLgdqKZeqaYdLQcx+hBArKFRQIWVyArKgynlffSNzqK5sGVMEgyejG8R+hCgXsThE7D7aBQgvo+UZfeZBm820OGPEoPe9hM3lxz1KJc+CIjRjYW9BJy2cRT2ehmtMbjUyxQNhzchRPPkCGbb2EF+cNh/IvRBEoeG5G4ybJ3L57X2kXVFS9r++txYvZrvjMZMjrz/sU6BpQ/61jACa5Qe58oZMuizn19SpiOSy0tHaqpjwiJj6Mj7H/cAgXBpEnkDVpGCWVLOQZ0R3+lNKQ7RWXdVyRqbnTfChxlVSd+ErVISMl9zwOAG/GjyIdNgawyyYssRo7IX/qZS+hprRvzKqu/jJypJitZno6xqplvUeyx9kSx5skCxEPD9jpTqtEhZEc0s+2dTNdUv3oausGVMJR0BbvITvUnThVXYMDMQziSTHqA6otVumSmbO+Fyc20gaTRFFHZW2TWrlpKGSwX0sV8yKak2fMbuUKlIyRZFfGWYYVSx22rSbK6APrbKoLSIM99yTrHZI0lynJpOipySO1Y/V0wfWy9TTpVBgAm/PjJpm9hRn8JJ7ixt1uw6Kb6K6WPVYraCuxd88Uue6mhEd0xIvCiBo3nk1MxJfiumb8LSV1rMfsq/FTfp89hRgwcBSXataSil+nRod2IZJOUovhXTxybyy3I7ArS4jm9K2CoRq4GASM3dbgdJ4l52cto8K6bPZAzPqwnXO8E/2ZFcvpO02xFRvMfO8dXPpYkV08d6pBfX/Y9fP/7148ev33/9+KU3vv756w9xmrIgcJQ8cSSwMewJ3i4J0TkAWjV9jG95qS797e2A34P/fja+vL19EacpEx7XdkbJg1crsZvWILikuqqmj3mUifj9O6Ts29ufb3813oqhT2D5IpwosxmKXNCJjQ+dXDV9rOGuXnIAX4/0/fjyn9/f/iiGvonKlSRoJGpvp3ve9bBI9RmPuWr6WLdDurgdJ/p+/fftf29fi6EvWIk8+prKLlm7vIHXrB5EjciWWTV9rN38oXpP9P0ZbH+//SyIvkaXfyxV2SXL5Ey3SdLrCxAmu5i3VzV9Jnvn+cVzP9H3Fux8fxVGX8Pn3yIEUVrBw/tcIrHUanhpPUk2zRl8710gfImmwzz091mEVn/3GGQmA2X22TP1X99+O9L35e3nz/DnYiBwMwZU0wvFLXe+UwkhUoDgH7Xpu8/bNsz8FvpA374FPwT/FBZGNR0+f6iXfW3kZGG1A1iLf+jdiPpSwBCROk968+XjIcQfhk9/dfKjYDoCt9AhdV0LYAZkbvTlIIAPu3U4hP7E4r/m34lzqLd+3PWkradu3eEK3OR3OHHwmDZqNnnyBnjv8euQMlaw1q+cQL3Vc56++d1ERIEcCaz0+viRp30XLLV+LESbJmDNr6oLmLnqaKrgof+Ho40Fe+0oZGlX0IJk4UGCtRLzFQVj5vMjgEdAQP1yWxiMWksVI7p8EdE7YiXcZwxhAr2yFvGitQwzd1gtL9NYDsy1aNOdZnh7JF2vir5pxnwP1myY9YTay3TJYmA5N/RYRJj2imxvb7kd7RiJhWTwUuv2Axt0U4dPGB7Cb129TUMEs/etTM/JdkSWT24oX4G+paJNx05CqABCnLU9nOVZyub03Z4v1Y/TcUjavXZ3kJmn3tyTHIbB+l3Hs9sjwT3LnI3adn9vqLHusi9OXoipxzvynC6HAYkSAYYje669skaTaUwgzdl0MrJWtuvJjgFSehur1XcyKwWzbi4CDyQiqOCwe4YqHe/ENpzlcunsjn1RJJVQcOisHR8e4V7nZfsaJ2DaTSIUSbhOJTr3dz/+mH2CurrmjVWhLZM7WrzfwjImTqXNGyvCaGtk5MQL5a7pfdpWUcM5kMpjMOAOz5+2B2Ah0Fc+LYXBA3dltkl+FujtNUhU4N4HBWiGN/yEG14GrK3TK0YIw1v/tJQOY58detvbJevAb2IurCWSOk9cEFMyZsOWjCQJKBlXuFyROUwJ2PXtT6tlhTFpu74DVengPnAFLvQ2CDH23sZ6wSBeWdAnbdvzBwbViBQ6Yhgryrn7jaIE/wtowJqmLDvz1tjKFY/5B8DUJ1Z7ZW+9+Vz2T/10Or4/73vuZjVcPGtn4ho1atSoUaNGjRo1atSoUaNGjRo1anxy/B/PCREI3G2s0wAAAABJRU5ErkJggg==;" vertex="1" parent="1">
          <mxGeometry x="883.88" y="444.44" width="102.24" height="51.12" as="geometry" />
        </mxCell>
        <mxCell id="IUDHi638Zl7lMzYL7OI1-49" value="" style="shape=image;verticalLabelPosition=bottom;labelBackgroundColor=default;verticalAlign=top;aspect=fixed;imageAspect=0;image=data:image/jpeg,/9j/4AAQSkZJRgABAQAAAQABAAD/2wCEAAkGBw8NDQ0NDQ8PDg0NDQ0NDQ0NDRANDQ0NFREWFhURFRUYHSggGBolGxUVIT0iMSkrMS4uFx8zODMsNygwLisBCgoKDg0OGxAQGislICUxKy01KystLS0tLS8tLTcwKy0rKy03LS8vMC8yLTUtLy8xLS0uNS8yLy0tLi0vLS0tLf/AABEIAOEA4QMBEQACEQEDEQH/xAAbAAEAAgMBAQAAAAAAAAAAAAAAAQYEBQcDAv/EAEYQAAIBAwAGBwMHCwEJAQAAAAABAgMEEQUGEiExQQcTIlFhcZFSgbEUIzI0QnOhFjNicnSSsrPB0fCCJENTVKKjwtLhFf/EABsBAQADAQEBAQAAAAAAAAAAAAADBAUGAgEH/8QANREBAAEDAQUFBQcFAQAAAAAAAAECAwQRBRIhMVFBYZGh0SIycYHBExQzUrHh8AYVI0LxFv/aAAwDAQACEQMRAD8A7gAAAAAAAAAAAAAAAAAAAAAAAAAAAAAAAAAAAAAAAAAAAAAAAAAAAAAAAAAAAAAAAAAAAAAAAAAAAAAAAAAAAAAAAAAAAAAAAAAAAAAAAAAAAAAAAAAAAAAAAAAAAAAAAAAAAAAAAAAAAAAAAAAAAAAAAAAAAAAAAAAAAAAAAAAAAAAAAAAAAAAAAAAAAAAAAAAAAAAAAAAAAAAAAAAAAAAAAAAAAAAAAAAAAAAAAAAAAAAAAAAAAAAAAAAAAAAAAAAAAAAAAAAAAAAAAAAAAAAAAAAAAAAAAAAAAAAAAAAAAAAAAAAAAAAAAAAAAAAAAAAAAAAAAAAAAAAAAAAAAAAGBpfS9Cyht154znYhHfUm+6K/rwJ7GPcv1aUR6I7t2m3GtSlX+vtxNtW9OnSjyc81annyS9GbNrZNuPfmZ8oZ9edXPuxo18dc7/P56L8HSp4/BE87Nx/y+covvl3q3Oi9fpZUbuktn/i0Mpx84N7/AHP3FS9smNNbU/KfVPbzp5Vx4Lta3MK0I1aUlOnNZjKLymYtdFVFW7VGktCmqKo1h6nl6AAAAAAAAAAAAANgUzRGvMrm4oUHbRgq01HaVdy2crjjZ3lem/vTpozLO0JuVxTu8+/9lzLDTAAAAAAAAAGHpfSMLS3qV571BborjOb3RivNk1izN65FEdqO7ci3TNUuVr5RpO79utVfPKhTgv4Yr/MtnT/4sW10iPP95Y3t3q++XQNEaoWtvFOpBXFX7U6qThn9GD3Jer8TBv7RvXJ9md2O71adrEt0RxjWe9t56OoSWzKhRcfZdKDXpgqReuROsVT4p5t0zw0hXNNaj0a3atWreeVtReZUms72l9l/h8TRx9qV0cLnGPNVu4VNXGjg3+iNGUrOjGjRW5b5Sf0qk+cn47ihfv1Xq9+r/izatU26d2lmkKQAAAAAAAAAAAACJcH5Alx/VT6/Z/ex+DKFv3oc7ifi0uwl90QAAAAAAAAAovSXdvNtbp7u3Wku9/Rj/wCZt7It+9X8vVnZ9XKn5svo4sFC3qXLXbrTcIvupw5fvZ9ERbWuzNyLfZH6y94NGlE1dVvMlefM6sY7pSjF9zkkfYpmeUPkzEPn5RT9uH76Pu5V0k3o6nymn7cP30NyrpJvR1fe0sZysYznO7HeeeT7HFS9NdIFOlJ07Smq7Tw605ONLP6KW+S8d3hkp3MuI4Uxq3cbYldcb12d3u7fn082np9Id2pZlSt5R9lRqRfrtP4EUZlfSF2dhWNOFVXl6Lbq5rXQv31eHRuMZ6qbypJcXCX2vwfgWrWRTc4cpY2bs25je1zp6+sLATs5q9IaahRbhBdZNbnvxGL7m+8xc7bdrHqmiiN6ryj5rljDquRvTwhrfyhrZ+jTx3Yl/cxv/RZOvu06fP1W/uFvrLY6P03Cq1Ca6ub3LfmMn3Z5M18Hblq/VFFcbtU+E/NVvYVVEb1PGG1NxSaPWHWajY9hp1a7WVSi8YXJzf2V6vwLuLg13+PKOvor3smm1w5z0VWev11tZVKgo+y1Ubx57X9DUjZNnTjM+Sl9+ua8obD8v49SpdR8+pqMqbqNQcGn24yw+aSxjnzK/wDaJ39N7h108tEv3+N3XTi3mrOm3pCjVqOmqWxUdPCm557Kec4XeUs3FjHqimJ11jVYsXvtaZnTRzjVT6/Z/ex+DMS370MXE/FpdZv72lbUpVq0lCnBZcnn3JLm/Au1VRTGsumtWq7tcUURrMqHpHpFqOTVrQhGC4TrtylLx2YtJerKVWZP+seLobOwqNP8tU693rPoaO6RaikldUYSg3vlQbjKK79mTafqhTmT/tHgXthUaf4qp17/AFhfbG8p3FKFajJTpzWYyWfRrk/Au01RVGsOeu2q7Vc0VxpMPc9IwAAAAc86SqTVzbz5SoOK84zbf8SN/ZFX+OqO/wCn7MvPj24nuWDo/rKWj4RXGnVqwl4Ny2vhJFHalMxkTPWI9FnCnW1p8VjM5bUrXnQdzd3FKdvR6yMaOw3t044ltyeO013mzs3KtWbcxXVpx72fl2a7lUTTGqufkhf/APLf92h/7Gh/ccb8/lPoqfdLv5f0ay/sKltUdKvDYqJJuOYywmt2+LaLNq7Tcp3qJ1hFXbmidKoWzWnScqOibC2i8SubekptcepjTjmPvbivLJxO1bmlyqmO2Z/V2v8AT2PFcxcq/wBYjxlhaiasU7tSublOVGE9inSy0qk1huUscYrKWObyUsaxFftVcmptXaFViYtW+c8ZnovFxq5Y1IOErWgk1jNOnGnNeUo4aLk2bcxppDBoz8mireiufnOvlLl2n9Gz0ZebEJy7OzWt6vCWzl4b8U017vEzbtE2q9IdZiZFOXY3pjumHSo6YdTR1K6j2Z1qcVu4RqPdLHk1L0PW0cybOHNynnPCPjPpxcv903cqbU8ony7Gt0No9XE3tZ6uGHLHGTfBZ9Tmdk7PjLuzNfuxz7+71XMq/wDZU8OcrJ/+fQxs9VTx+os+vE6/+34u7u/Z0+Efqyvt7uuu9Kuaa0eqE04fm55wnvcWuKOR2vs6MS5E0e7V5T09GriZE3aePOGzoaW2LCpcT7UqEJ5z9uSXZXvyjq9hXqsy1RTVPHXdmfr4MrPpizVMxy5udaIsqmkrxQnN7VRyq16nNRXFr1SXdlHd37tONZ1iOXCIc7aom9c0mfi6XbavWVOCgrajJYw3UpxqTfnKW85yvMv1TrNc/KdGtTj24jTdhSddtXoWjhXoLZo1JbEoZbVOphtY8Gk93LHps7OzKr2tFfOO3rDPy8eLftU8m56Nvqtx+0P+XEp7X/Ep+H1T4PuT8fop2qn1+z+9j8Gc1b96GZifi0tr0laSlUuo2qfzdvGMpLk60lnL8oterPOXXrVu9H6ZsTHim1N3tq/SP3bjVrVy0tbWF3fKk6lSEambhx6qjGSzGKUt21jG/jngS2bNFNO9X5qWbn3716bVjXSOHDnPh2NDrhpHRtaOzZ0cVoyXz9KmqFJrO9NbnLzx7++C/Xaq92OPVobOsZludb1Xs9JnWf28fkzujG4rxqVaWxUdrUi59Zsvq4VlhceG9bv9KJMOatZjsV9uUW5pirWN6OztmP2dEL7mgAAAAV7XfRTurRyprNW3bqwS4yjjtxXu3+cUX9nZEWrulXKeHoq5drfo4c4U7U3TqsqzjUf+z1sKb49XJcJ+W/D/APhr5+JN+jWn3o8+5Qxb/wBnVpPKXUac1KKlFqUZJOMovMWnwaa4nNTExOktiJ14wk+PrHv72nbUpVq0lCEVvb4t8klzfgSWrVVyqKaY4vNddNEb1TlFaVTSV+2lidzVSS47FPgs/qwX4HU0xTjWOPKmP54yxJ1vXPi3fSfbbDsXFfNxp1aS7k1s4Xp8DhM7WaoqnvfoGwKoimuj4N10b3MZ2HVJ9ujVqRmufaltp+W/HuZJiVRNvTop7atzTk708piPLgtRaZDmHSXdRnewpxeXRoKM2uUpSctn0w/eZuXVE16dHV7EtzTYmqe2W80bbSjoSzzyk6v+ipOcov0mvUztsW5nBpmOyYnx19VG7cic+54eER6NrqtVXzsPtdma8Vwf9PUi/pu7TpXb7eEqm0KZ9mpvjqGa0WtNVbNKH2sufksY/wA8jmf6ju07lFvt11+XL+fBo7PpnWavk1te3lPRF7hcczXjGGzJ/Bml/R8bkRVPKavpp+qrtj2omI6NF0e3EYXzjJpOrQnTg3zntRlj0i/Q7jatE1WNY7JiWDhVRFzj2w6Yc211U6R7iMbSnTf06laLiuezFNt/il7zU2TRM3Zq7Ij9VLOqiLcR1eXRt9Vuf2h/y4nra/4lPw+rzg+5Px+inaqfX7P72PwZzVv3oZmJ+LS9dfaLhpO4b4VFSnHxj1cY/GL9CHJjS5L9U2TXE4lOnZrHn+710Zq3faTUK9Spii1iFWtU6x7K3NQgnuxjhuPVFm5d4zPB4v5+Nh60Uxx6RGnjP/Vy0TqRZ2+JVIu5qLftVsOCfhBbvXJboxqKefFiZG18i7wpndju5+P/ABY6Li4xcHFwaWy4YcdnljHInjTsZlUTE+1zfR9fAAAAAAKVrRqc6kpXFmltSblUoZUVKXOUHwT8DZwtpbsRRd8fVn5GJrO9R4KtZ6WvNHydOE50sPLoVY5j57Mlu81g07mPYyI3piJ749YU6bty1OkcO5spa83rWPmF+kqUs/jLBXjZVjv8Uv3273NXKpeaTqpN1Lia4JLsU888LEYLx3FmKbGLT2Ux+v1lDrcvVdV/1U1ajYxdSo1O5msSkvo04+xH+5g5ubN+d2nhTHn8Wnj40Wo1nmz9YtDxv7adCT2Zbp0p4z1dRcH5cU/BszLtuLlOjUw8qrGuxXHzjrDlcZXmiLnnRqb1vW1SrQzy5SX4rwZme3Zq6OtmMfOtdY849P5zbW56QLycNmMaFKTWHUjCTkvGKk2l78ks5dcx2KlGxMemrWZme7/n7MXVrVytpGqqtXbVu5bdWvPO1W35ai39Jvv5ee48WrNVydZ5Js3Pt4tG7TpvdkdPj6OrVLaEqbpYSp7OworclFcMeRoXrNF23NuqOE8HIU3Kor3+1VLm1q2lRS3rD7FWPB/53HCZGLk7Pu70dnKqOU/ztifOG1bu279OnkyfyhrbONmnn2sP4ZLv/osnd03adevH9NUP3C3rzli29vWu6je95fbqP6MV/nIpWMfJ2je3p49ap5R/OkJq7luxRp5LZQt406caSXZUdnD3578+Z3ePZpsW6bdHKP5qxLlc11TVPa5lrLq7VsKrq0lJ2+1t06sc5ovOVGTXDHJ+XM6vEzKMindq97p1/nRiX8eq1Oscv0ZFtr1dwhsyjRqySwqk4yUn4y2Wk/wPFeyrMzrGsdz3TnXIjSdJabSVzc3ebyvmUNtUVPGzTjLDahFe5/14luzRas/4qOfPv+Mq9yqu57dXwXPo2+q3H7Q/5cTH2v8AiU/D6r+D7k/H6KbqnJfL7PevzsefgzmrfvQy8SY+1oXzXbVx31ONWjj5TRTUU3hVab3uGeTzvXv78qbIs78axzh3Gy8+Meqaa/dnynr6qHojT93oyU6MVhbWZ29xCWIy70spxZSou12uHlLoMjCsZkRXPjDJ0trrd3VN0vm6MJrZl1KltzT+ztN8PLB6rya6o05IsfZFizVv8ZmOvLwWbo80Vd0ISqV5Tp0Jr5q1kt7k3+cae+HluznfyLGLbrpjWeXRl7YybFyqKaIiao51fTv/AJouZcYYAAAAAADyuLanVWzVhCpH2akIzXoz1RXVROtMzHwfKqYq4TDDWgbJPPyW3z9zBr4E33u/+efGUf2Fr8seDPpUowSjCMYxXCMUope5EFVU1TrMpIiI5Po+PoB8V6EKkXCpCNSD4xnFTi/cz5MRPCXqmuqidaZ0nuYNLQNlCW1G0t1JcGqEN3lu3HiLVEcqYT1ZuRVGk3KvGWxRIrAENJrD3p8nvR8mImNJInR4fIKOc9VTz+pH+xV+4Yuuv2dPhCX7e7+afF7xSSwlhLgluSLURERpCOZ14ySeE3v3LO5ZfofYfFUo6829S4hS2JQoSbjKvVajh8sx5R8W/catWyrlNuatePSPVSjNomvTTh1bx6Es5Pbdtbyb37XUwefHhvKP3q/Eab8+MrH2NueO7HgqfSJf09mhZ09nNOfW1Ixxin2XGMd3B9pvHl3mrsq1VrVdq7eHx6qWdXHCiG26PbV07Hbl/v606i/VSUF/C37yrtSuKr+kdkafVNhU6W9eqxRoQTyoRTXBqKTRmaLe7D0Pr6x7ywo10lXpU6qXDracZ48srceaqKaucJbd65b9yqY+E6PK00Ra0HtUbejTl7UKUIy9cZPlNuinlEPVzKvXI0rrmY75lmntAAAAAAAAAAAACQIAAAAAAAAAAKXrPqa6s5XFnsqc25VKEnsqUnxlB8E33P1NjD2lFFMUXeXX1Z+Rh7071HgrUdH6TpLqowvYRW7Ypyq9X/0vBozexKvamaZ+OmvnxVPs79PCIlsNC6lXFaaldLqKWcyTknWqeCS+j5vf4EGRtO3RGlvjPlCW1h11TrXwjzdHo0o04xhBKMIRUYxSwoxSwkjnqqpqnWebViIiNIfR8fQAAAAAAAAAAAAAAAAAAAAAAAAAAAAAAAAAAAAAAAAAACQAAAAAAAAACAAAAAAAAAAAAAAAAAAAAAAAACQIAASAAAAIAAAAAAAAAAAAAAAAAAAAAAAAAAAAAkAAAAAIAAAAAAAAkCAAAAAAAAAAAAAASAAgABIAAAAAQAAAAAAAAAAAAAAAAAAAAAAAASBAACQAAAAAgAAAAAAAAAAAAAAAAAAAAAAAAkCAAEgAAACAAAAAAAAAAAAAAAAAAAAAAAAAAAAAAEgAAEAAAAAAAAAAAAAAAAAAAAAAAAACQAAAAAAAAEAAAAAAAAAAAAAAAAAAAAAAAAEgQAAkAAAAQAAAAAAAAAAAAAAAAAAAAAAAAAJAgCQAAAAAAAAAAAAAAAACAAAAAAAAAAAB/9k=;clipPath=inset(31.78% 5.11% 32.67% 6.89%);rotation=-25;" vertex="1" parent="1">
          <mxGeometry x="1146.17" y="264.30999999999995" width="115" height="46.46" as="geometry" />
        </mxCell>
        <mxCell id="IUDHi638Zl7lMzYL7OI1-50" value="" style="shape=image;verticalLabelPosition=bottom;labelBackgroundColor=default;verticalAlign=top;aspect=fixed;imageAspect=0;image=data:image/jpeg,/9j/4AAQSkZJRgABAQAAAQABAAD/2wCEAAkGBxAQEhUTEhIWFhUVGBcXFhgYFhUWGRUXFxYXFxYWFhoYHSggGB0lHBcYIjEhJSkrMC4wFx81ODMsNygtLisBCgoKDg0OGhAQGy8mICUvLS0tLS0tLS0tNS0tLS0tLS0tLS0tLS0tLS0tLS0tLS0tLS0tLS0tLS0tLS0tLS0tLf/AABEIAHsBmwMBEQACEQEDEQH/xAAcAAEAAgIDAQAAAAAAAAAAAAAABgcFCAEDBAL/xABKEAABAwICBgQJBwoEBwAAAAABAAIDBBEFEgYHITFBURNhcYEUFyIygpGSoaIjQlJTcpOxM0NUYmOywdHS0xU0g+EWJERzwvDx/8QAGwEBAAIDAQEAAAAAAAAAAAAAAAQFAQIDBgf/xAAyEQACAgEBBgMIAgIDAQAAAAAAAQIDEQQFEiExQVEUFWETIjJSgZGh0UJxscEjM+Hw/9oADAMBAAIRAxEAPwC8UAQBAEAQBAEAQBAEAQBAEAQBAEAQBAEAQBAEAQBAEAQBAEAQBAEAQBAEAQBAEAQBAEAQBAEBxdAcoAgCAIAgCAIAgCAIAgCAIAgCAIAgCAIAgCAIAgCAIAgCAIAgCAIAgCAIAgCAIAgCAIAgCAIAgCAIAgCAIDi6AxE2KPeSKdgdlNjI8kMBG8NsCXns2dahy1EpZVazjm3y/wDSRGlLG+/ouZia/Ha2n8p7YXtvbyQ8EdtyoF2t1FHGSTXoTKtHTbwi2n64MxgePRVQ2Xa8b2Hf2g8Qp+k1sNQuHPsRNTpZ0P3uXcyymEYIAgCAIAgCAIAgCAIAgCAIAgCAIAgCAIAgCAIAgCAIAgCAIAgCAIAgCAIAgCAIAgCAIAgCAIAgCAIAgMNpZWGGncQbF5DAeIzbyOuwKg7QudVLa68CVo6vaWpfUx1dikUDGtbawFmNaRu4d3WoV2rrprSX2X+SVTpp2Sbf1IvW1kk/nHZwaN3+6oNRq52v3uXYtaq41cuZ80MjoZGyN3tN+0cR3haafUuq1TTMXRVtbgy0mG4uveReUmeXPpZAQBAEAQBAEAQBAEAQBAEAQBAEAQBAEAQBAEAQBAEAQBAEB8SyBouSABvJNgO0lAef/EoPro/bb/NZ3ZdjGUcf4lB9dH7bf5puy7DKPTFK1wBaQQdxBBB7CFgyfaAIAgCAIAgCAID5keGgkkADeSbAdpQHm/xKD66P22/zWd2XYxlD/EoPro/bb/NN2XYZR3xStcLtIIO4ggg9hC149TJ2LICAIDA6Z0pkpnW2lhD+4XDvcSe5V206nOh46cfsTdn2KF6z14fcgFPGvGzkehk8GQiiUeUiNKR3x0Ze4NA2uNvWt9PGVtkYLqzlK1RTbLEYLADkvo0ViKR59n0tgEAQBAEAQBAEBFdYuk78Npmyxta6R8jWMDwS3cXOJDSD5rTx3kKTpaPbT3ehytnuLJXHjhxD6mm9mX+4rHyuHzMj+Kl2HjhxD6mm9mX+4nlcPmY8VLsPHDiH1NN7Mv8AcTyuHzMeKl2HjhxD6mm9mX+4nlcPmY8VLsc+OHEPqab2Zf7ieVw+ZjxMux7qHXNKCOmpGkcTHIWkdjXA39YWktlfLIytV3RYui+ldJiLC6B/lNtnY4ZXsvzHEdYuFXXUTqeJIkQsjPkZ1cToEAQBAEAQBAEAQBAEAQEH1xYh0WHPYDtneyIdl87vhYR3qboIb9y9OJxvliBQOQcgvQleMl9wueA5ngFhvHEI2mwDDxS00MA/NRsZ2lrQCe83K8pZLfm5d2WkVhJGQWpsEAQBAEAQBAEBCtb2I9Dhsjb7ZnMiHWCczx7DXetS9BXv3L04nG+WIGv2QcgvR5K85bFmIDW3JNgLbydgHrWG0llg2mwLDm0tPDA3dFG1naWgAnvNz3rylkt+Tk+paRWFg961NggCA4IusNZBE8R0UIcXQWsfmHZb7J5dRXndbsVyblT9i0p2hiO7Z9zpp8CqL2LLdZc3+BVUti6uTxu4+pvPV19GSDDMKbF5R2v58B2fzXoNm7JhpPelxl3/AEV917s4dDJBXBwOUAugCAIAgCAIAgKW15YlnqIKcHZHGZHfakdYd4DPiVzsyHuyn34ELUy4pFZq1IwQHyZBzHrWMoYPoEFZAQBAZnQ/E30tbTysNvlGscPpMe4Ne089hv2gclH1VanVJP8As3qliSNm15gszx4pi1PSszzysjbzcQLnkBvceoLeEJTeIrJhyS5kHxHW9QMNoo5puvKI2/Gc3wqbDZtr4vCOD1MVyMO/XSb7KAW66ix9QiK7rZb+b8GnivQ9VHrmhP5Wkkb9h7ZP3g1aS2XPpJGVqV1RNdHdL6Gv2QTAv3mNwLHj0T5w6xcKFbp7KvjR3jZGXIzt1xNwXAIDA4jprhlOSJKuK43hp6Rw7mXK7w01s/hizR2QXNmHk1q4SN0sjuyGQfvALstn39vyaPUQOo62sM/bfdf7rPl13oY8RAeNrC+cw/0j/NPLrvQeIgRDXTjAmfSxsuG9EZyCLH5WwZmHAgMds61L2ZVhSk/6/Zx1MstIrVWpGM9oJh3hOIU0dtnSB7vsxfKG/Uctu9RdXZuUyZ0qjmaRslUTsjaXvcGtaCXOJADQN5JO4LzaTfBFk+BBp9beGNcWgTuANszYxld1jM4G3aFOjs65rJweogfHjew36FR92z+tZ8tu9DHiYHvwPWLS1soip4Kl7jv+TYGsH0nkvs0f+i5XK3RzqWZtG0blJ4RMbqKdjG4ppDR0v5eoijPJz2h3s7/cukKpz+GLZq5xXNmAm1oYQ028Ic77MMxHrLLFd1oL3/H8o5u+Hc6DrWwr6cp/0n/xWy2ff2/KMeIgceNjC/pS/dOWfL7h4iBD9cmOsqRRtjJyOjNRYixtJ5MZI4bA/wBal7Nq3XNv+jlqZZwkVorUikm1b4Z4TiMDSLtY7pndkflD48g71E11m5TJ9+B1pjmaNhazEYYReWVkY5ve1v4ledjFy5IsHJLmYeTTrCmmxrYe52b3tuu3hrvlf2NPaw7ntw3SSiqTlgqYpHfRa9ub2b3Wk6rIfFFo2U4vkzKXXLJsYSfTDDWEtdWwBzSQ4dKy4INiCL7CCu609r4qL+xo5xXU87tPMKH/AFkXcSfwCz4a5/xZj2sO52YZpph1TK2GCoD5HXs0Mk3NBJJJbYbBxKT01tcd6UeBmNkZPCZ2aSaW0eHlgqXlpkDi0Bj33DbX80G3nDesU0WW53FyE7Iw5kcn1uYa3zRO/sjA/ecFJWzbn2+5z8RA8EmuWl+bSzntMY/BxW62XZ1aNfEx7HV45oP0ST22fyW3lc/mX5MeKXY9VJrionG0kE7OuzHj3Ov7lpLZlq5NMytTHqTDAtKaKu/y87Xu3lhu147WOAdbrtZQ7KLK/iR2jZGXJmYuuRucoAgOCsMGs+m+JeFV9TLwMha37MfybSO0Nv3r02kr3KYorLZZm2YNSTQ+4onPcGNF3OIa0c3ONmj1kLEpKKywlk2kwvDI4IY4WtFo2NYNg25QBf3LykpylJtstFFJYMRpdoxRVMEpliY1zWOcJQ0NewtaTmDhtsLbjsK60X2VzTizWdcWuJre07F6crQgM1oXhrqmup42j8417upkZD3k9wt2kKPqrFCqTfbBvVHMkXLrC06ZhzejjAfUvF2tPmxtPz3/AMG8bKk0mkdzy/hJttqh/ZRWJ4jNUyGWeR0kh+c48OQA2NHULBX9dca1iKwQJScuLPKuhg+RI3mPWsZQwfSyDsp3Pa9pjLg8EZC2+YOv5OW22991lrJRx73L1CynwNgpdJZMOw+ObEbGoLbZGEXkftsOQOWxcRsBvbgvORoV1rjVyLDf3IZlzKY0m0vrMQcemkIj4RMJEYHC4+eet1+5XdGkrpXBce5DnbKZgAFKSOZ30VHLO7LDG+R3JjXPIvzDQbLnOyEPiaRlRb5Iz0OgGLPFxRv9J0TPc94XB66hfy/ydFRPseug1cYm6aJs1K5sbntEjs8TgGFwznyHk7rrSevp3Huy49OZlUTzxR4dYVf4RiNS4HyWv6JvICIBht1ZmuPeumjhuUx78/ua3PM2R1SjmTnVZWU9HJPW1D8rIoxGwby98hzZWDeXWj7g7aq7XxnZu1w68TvQ1FuTMfprptUYk7Kfk4AbtiB323OkPzndW4cOZ66XRwpWX8RrZa5v0IsphxJVoVoNUYkc22OnB8qUjzrb2xA+ceF9w69yhanWQqWFxfb9naulz49C7qGhosJpnZQ2KJgzSOO1zjuzOO9zjuA7ABwVHKdl8+PFk5KNcSotLtZdVVkspy6CHd5JtI8c3OHm9jfWVcafZ8ILM+L/AARLNQ5cFyIId5PE7SeJPMqwSSWER2evDsMqKk2ghkl4HIxzgD1kCw71pO2EPiaX1MqLfJGaboDix2ijf3uiHuL1w8dR834Z09jPsdX/AATiQexj6SZoe5rM2XMG5nBuYltwAL3WXrad1tSMexnnijs1h1bZMQmDPMhywMHJsLQwj2g5Y0UN2lZ68Rc8zZG1LOZ6KOumhJMUj4y4ZSWOLSW3BLbjba4HqWk64z+JZMqTXI88jrkucbk7ydpPaTvWySXBGGwsgDgeI2g8QRuI5LD48xkvPVFpRJWQvgncXywZbPO98brhuY8XAgi/EEX23KoNfp1XNSjyZPosclhnZj+gGExxz1UkT9gkmf8ALSC52vOy+y5/Fa1azUNqEX2XJGZ1Q4toogL0RXlpajMLzSVFSRsY1sTD1u8t/qAZ7SqNqWLEYfX9ErSx5sxut6d9TiPQxNdIYImNLWNc8hz7vOxo5OZ6l02diFO9J82a6jMpYRHqfQvFJBdtFN6TQz98hSpayhfyOapm+hxV6GYnEMz6Oaw+i0P/AHCSkdXRJ4Ug6ZroYIjhxGw9RG8FSE0+KOZwsg+4ZXMcHscWuabtc0kFpHEEbQVrKKksPkE8GwGrHSl2IUx6U3mhIbIdgzgi7JLDdexB62led1unVM+HJ8UWFNm/HiTJRTsEBitKcS8Fo55+Mcbi3rdazB3uIC6VQ35qPqaTluxbNXwvVFYEBndB5aeOugkqXhkUbjISQTtaCWAAAnzsp7lG1e86WoLLZ0qwpLPIt+u1qYXGDkkklPJkThfvkyj3qmjs+99MEt6iHcr3TPWTUV7DDEzoYXbHC+Z8g5OO5reYG/mRsVjp9BGpqUnlkey9yWEQVWJwPXheGT1UgigjdI88GjcObjuaOs7FzstjWszeDMYuT4F16MaNxYHSTVUxD5hGXSOG4AbRFHfgTbbxNuQAor75aqxQjy6E6EFVHLKSxKvkqZXzSm8kji5x6zuA6gLADkAr6uuNcVBckQZNt5Z5luYLf1UaEQmJtZUxh7n7YWOF2sYDYPIOwuNrjkLc1Sa/VScnXF8ETKKljeZZ1TRRSMMb42uYRYtc0FpHKx2KtUmnlMk7qNa9McMZSV1RAzzGP8njZrmte0X42Drdy9NpbHZVGT5lbZHdk0TDUvo6Jpn1cgu2E5Y77jKRcu9FpHe7qUHaV+I+zXXmd9PDL3mYDWTjxra6SxvFCTFEOFmmz3drnA7eQbyUnQ0+zqz1fFnK6e9JkVUs4lo6v9WgmY2prQcjrOjhuWlzd4dIRtAPBo7+SqdXr2nuV/V/ol1UZ4yLcoaKKBgjijbGwbmsaGgdwVS5OTy2S0kuR32WDJ5MYrRTwSzO3RRvefRaT/BbQi5SUV1MSeFk1Xc8uJLjcnaTzJ2k+terS3VhFVnJwsgIDkC+7edg6zyCxlLiwWjoNqvc/LPXtLW72wbi7kZSNw/VG3nbcqjVbQ/jV9/0SqqOsi34o2saGtaGtAsAAAABuAA3BVLeeZLKR1waTmoqPBY3fJQHy7bny2236m3t25upXeztPux9o+b5f0QtRZmW6ivFZ/0Ri1NWuruOaNtXWNzNf5UUR3FvCSTmDwbuttN72FRrda09yt/2yXTTlZkW7BAxjQ1jQ1o2ANAAA5ADYFUN55ktLB2IZPNiNW2CKSV3mxsc89jWlx/BZhHekkuphvCyarSyue5z3bXOJc7rLjc+8r1cYqMUiqbzxPhbGCX6A6DyYk4ve4x07DZzh5z3b8kd9nEXcd1+PCDq9YqViPFneqlzfHkXTheh+HUzcsdLFu2uc0SOPa59yVSz1Fs3mUmTY1xjyRTetnBYaStAgaGNljEhY3Y1rszmnKOAOUG3arnZ9srKve6MhaiKjLgQtTziWLqNzeHS/R8Hdft6WLL7syrNqf8AXH+yTpfiZMdc2KdDQdED5VQ9rPQb5bz8LR6Sg7Or3rs9uJ21EsQwUSvQlebEarsL8Gw6EEeVKDM7h+UN237GZB3LzWss37pP6fYsqY4giVtYBewtff19qjHU5sgBCMFY659HIjB4axobJG5jZCBbOx5DBm5kOLbHkT1Ky2ddJT9nngyNqK01vIplXhCCAs3US4+E1I4GJhPaH7Pxcqranwx/tkrS82XQqYmBAVzruxLo6OOEHbPIL/YjGY/FkVhs2vNrk+hG1MsRwUgr4hBAdrqd4YJC05HOcwO4FzQ0ub2gPb61rvre3eowdSyAsgkegWHUdVWMhqy8NeCGZXZQ6TeGONrgEXtYg3sOKiaudkK96s6VKMpYkbB4ThNPSM6OCJsbeTRa55uO9x6yvPTslN5k8lhGKjwRC9dlYWUDYx+dmY09jA6T8WtUzZsM257I5ah4hgo1X5AOQwu2Dedg7TsCN44sJG1lDSthjZG0WbG1rB2NAA/BeTk8tstUsI7ysMyaz6b1gnxCqkG4yuaOsR2jB+Bem0sHGmKfYrLXmbLe0WtQYEJR5wgkqO10gL2fi0dypb/+XVOPrgmw9yvJQjRsXoivMlo5DHJV0zJPMdNE199xaXtBB6ju71xvbVUmuzNoY3lk2jC8sWhysgICC64sR6HDnMBs6d7IxzsDnf3WYR6SmbPr3rl6cThqJYgUKASvRMgHCAIDKaM4yaGpjqAwPyHa0gG7TsdlJ811tx/hdcNRV7WtxNoS3WmbK4TiMVVEyaFwcx4u0/iDyIOwjgQvNTg4S3Zc0WcWmso+McxAU1PNOd0Ub39pa0kDvKQhvyUe5iTwsmrb5HOJc43c4lzid5cTck9pJXq0lFYRVt54nw7cgNrcPex0UZjILCxpZbdlLRlt1WsvJPOeJax5I9KGQgIXrbxHocNlANnTFsQ6w43f8DXKXoIb169OJxvliDNfwCV6IrwATsAuTuHM8AjaSywbO6KYQKKkhgFrsYMxHF58p573Ery11jsm5PqWkI7sUjLrmbGvmtuuEuJSAbomRxd4Gc++QjuV/s6G7QvXLK/UPMyGqccS2dRFH/mpju+TjHaMz3fi1U+1JcYx+pL0q5sxGuvEukrWQg7IIxfqfIczvhEa77MrxW5d/wDRpqZZlgg+F0JqZooG3vK9rNnDM4AnuFz3KdbPcg5djhFZaRtRDGGgNaLAAADkBsAXleZan2gCA4ugK611YwyOjFNe753NNuIZG4PLj6TWgd/JWGza27d/ov8AZH1EsRwUgr4ghAW/qJoCGVM5+c5kTfQBc798epUu1J5lGP1+5M0q4NlrKrJQKAonXRiXS14iB2QRtb2Pf5bvhyK82bXipy7v/BB1LzLHYgCsiOEBc9Hod0+Axwhvyxb4Sy+w9I672tPK7CGd6opard1bn05fQmqvNWCmFeZyQgsg+o3lpDmkgtIII2EEG4I6wVrKKksMJ4eTZHQTSMYjSMlJHSN8iYDhI0C5A4Aghw6nLzOppdVjj06FlXPejki2vSAmkgeNzZrHqzRvsfWPepezJJWtehy1K90pVXpCOWuIII3ggjtG0LDWeDCeDZXR/S6jrImyMmYHEDOxz2tew8Q4E338dxXmLaJ1SxJFlCyMlnJgdOtYdNSxPjppWy1DgWtyEObETszvI2XHBu+9uC76XRzsknJYRpbcorgUOV6DkV5fmOHPo+SzcaOIjsDGE+4Feer4avj83+ywl/1fQoNeiIBysAsvRrW3NCwR1cRmDRYSMIEhA+mHbHHruP4qru2YpPNbx6EmGpa4Mkvjfw7Lfo6m/wBHJHf19Jb3qJ5bbnodfEwI/jeuGVwLaSnEf68pzu7mN2A9pPYpNey0uM39jnLU/KiBF9ZiVQAXPnmfuudw4/qxsG87gFYf8Wnhw4I4e9NnxiRii+RhcJLflZRukcPmx/smncfnHyt2UBWpS9+XDsv36mJYXBHfolg/h1XFTkkNeTmItdrWtLiRfst3rGpu9lW59TNcd6SR06RYJNQzugmHlN2tcNz2G+V7eo27iCOC2oujbBSRicHF4ZjV2NSbas9Mjh8vRSu/5aU+Vf8ANP3CQchwd3Hhtr9dpfax3o/Evyd6LN14Za2skk4XVZdvyYOz6Odt/ddVOj/7457ku74Hg1zXpitCAm+hWsafD2iGRnTQDzRez4xyYdxb+qe4hV+p0EbXvReGd673Hgyct1v4dluY6gH6OSO/r6S3vVf5bbnod/EwMHjOuN7gRS04b+vKcxHoM2fF3KTXsvj77+xzlqeyIHJNXYrUAOc+eV24E7GjiQPNjaOJ2BT92rTwylhHDMrGdeK9DD8hC4SEflZhukcPmRfsmnj88i+4Nsr3p+/L6L9+olhcEe7V7h3hOI0zCLta/pHdkQzi/pBo71rrZ7lMn9PuZpjmaNkgvNlkddTUNjY57jZrAXOPINFyfUESy8GG8Gq+IVrqiWSZ/nSvc88bFxJt3Xt3L1VcNyCj2KuTy8nnXQwbCaqMN6DDYiR5UxdMevPsYfYDF5zXWb979OBYURxBFJaXVhnrqqQ/OmeB9ljsjfhaFeaaO7TFehCseZMz+p/D+mxJjiNkLHyd5HRt/fJ9FR9oz3acd2v2dNPHMizNZOmDsMij6EMM0jvJDwS0Mbte4gEHi0b/AJ3UqvR6b28mnyRJtt3ERnD9czfz9I4HnE8O+F4FvWpU9ly/jI5LVLqjKDXDh9vyNT2ZIv7q4+W3ehv4mJh8Y1x3aRS0xBPz5iNnoMJv7S7V7Leffl9jSWq7IrHE8RmqZHSzPL5Hb3H3ADcAOAGxWtdca47sVwIspOTyzyroYPuKNz3BrQXOcQ1oG9zibADrJWrkopthcXg2X0OwTwGjig2Zmi7yOMjjmeey5sOoBeY1FrtscyzrjuxSM2uRucOIA27kBq1j2ImqqZp/rZHuH2SfIHc0Ady9TRDcrjH0Kub3pNngXU1PVhlEaiaKFu+WRkfZmcAT3A37lztnuQcuyMxWZJG08UQa0NbsDQAByA2BeVfctVwRQetjR/wStMjBaKpvI3kH7Olb6yHen1K+2ff7SvdfNf46EDUQ3ZZXUhSsDgEBLtWWkvgFWA91oZ7Mk5NN/Ik7ibHqceSg66j2leVzX+DtRPdlgvLSXBmV1NJTv2B42O35XA3Y4c7EAqiqsdU1JdCdOO8sGt2NYPPRyuhnYWvHsvHBzD85p/8AtjsXpqro2x3olZKLi8M8C6mAQFgBZB2U8D5HBkbXPe42a1oLnE9QG0rWUlFZlwCWXwNhNBsHqI8ObTVrW7Q9mQG5ET72Y8jZcXI2cLLzepsg7t+v/wCZY1xahiRSWlmjE+GzGOUEsJPRS28mRvDbuDubf4WKvdPqY3RyufYg2VuDMIpBzCyASjMkw0W1d1taQ5zTBDxfICHOH6jDtPabDrKg36+utYjxfp+ztCiUvQ50oxaClElBh7CxgJZUzH8rUOabFuYbowb7Ba+3YBfNiiqVmLbeL6LovUTmo+7Ehyn8TiWXqNw/NUzzkbIowwfakdc94DPiVVtSeIxh3JOlXFssLT3RNmJQZdgmZcwv5Hix36rrC/LYeCrtLqXTPPR8yRbXvo13qqZ8T3RyNLXsJa5p3tI3hekjJSWY8ivaaeGdS2MFp6s9J2VELsLqzdsjHMhcTva5pBiJ5gbW+rgL0+u07hL20F/ZLpsytxle4/gs1DO6CYWc07DbY9vB7eYPu2jgrOm6N0d6JGnBweGY5dTULBgLJkk2iehFXiJBY3o4eMzwcvoDfIezZzIUTUayFKxzfY6wqlM9uk+Kw0TZMPoGlrQSypnNulnc3Y5lx5rAbiwtfbstfNyopla1bb9EZnJR92P1ZDFYHEs3UXQZqionI/JxtjHbI7MfdGPWqrak/djH6knSri2XQFTE0hOt7FfB8PewGzp3CIfZPlSfA0j0lM0Fe/evTicb5YgUAvRFed9DSOnljib50r2Rjte4NB960sluQcn04mYrLSNqKWBsbGsaLNY0NaOQaAAPUF5RvLyWi7Gq9e0tlkDt4e8HtDiD716uv4FjsirlzZZGpKaKLw2aR7WBjIbucQA1l5S49mwKs2mpNwil3JOmxxbIxrCxGaqqRUSNLGSNvTsdscIA4tY8jhnIc7v5WUnRQjCDiua5/wB/+HO5tyz9iLqacQgCAIDuo6WSZ4jiY6R53NYC4nuHDrWs5xgsyaQSbeEXPq41eGkIqaoAz28hgsRDfeSdxfbZs2Dbv3qj1mt9r7kOROpp3eLLIVeSAgPDjlLJNTzRRODHyRuY1xvZpcCM2zldbQkoyTfIxJZWCoxqaqv0qH2Xq480h8r+6/RDWlfc58TVX+lQ+y9PNIfK/uZ8K+5mtDtWMtHVx1Es0b2x5iGta4HMWloO3lcn1KPqdera3BJrJvXp92WWyz1WkkjunOjLcSpTDcNeHNfG8i4a4bDe3AtJHf1LvprnTNSOdkN+OCuPE3VfpUPsvVn5pD5X9yP4V9x4mqv9Kh9l6eaQ+V/ceFfc4Opqq/SofZeseaQ+V/ceFfctXRmjqIKaOKokbJJGMudt/KaNjSb7b2sDztfiqm2UZTbisIlRTSwzuxfB6arZ0dRE2RvAOG482ne09YWITlB5i8CUVLmQev1P0LzeKWaLqu17fiGb3qdDadq5pM4vTRZjvEuy/wDnXW/7Iv6866+av5fya+FXcyFDqeomm8s00nVdrGn2Rm965S2na+SSNlpormTTBNHaSiFqeBkd95Au532nm7j3lQ7LZ2PMmdowjHkjKLmbHTVUscrSyRjXtdva4BwPaDsKym4vKMNZItWatMJkJPg+Qn6EkjB3NDso9SlR1t8f5HN0wfQ8Y1T4XfzZT1dK7+G1Z8wv7/hGPDwM/g+iGH0hBhpmNcNzyC9/c59yPWuFl9lnxM3jXGPJGbsuRuQyXVfhTnFzopCXEknppdpJuTv5qWtfclhP8I4uiHY+fFXhP1T/AL6X+pZ8wv7/AIQ9hDsZ/RzRulw9jmU7C0PdmddznEmwG9x5DcuFt07XmZ0jBR5GXsuRsRvH9B6Cuk6WeImSwaXNe9lwN2bKRcjmu9WqsqjuxfA5yqjJ5ZjfFXhP1T/vpf6l18wv7/hGvsIdjlmq3CgQRHICCCCJ5QQQbggh2wg8Vh6658G/wjPsIIkeL4DTVcYjqIhK0bi7zgd12uFi09Yso9dkoPMXg3lFSWGQur1P0Djdks8fUHMcPiaT71NhtO1c0mcXponXDqcogfKqKh3VeJv/AILL2nb2X5MeGiZ/CdXmF05DhTh7hxlJk77O8kHsCjz1l0+cvsdI0wXQlIaBuUY6kOm1YYW9znuikLnEucemk2lxuTv5lS4666KST5eiOTpg3nB8eKvCfqn/AH0v9Sz5hf3/AAjHsIdjP6OaN0uHscymYWh7szruc4k2A3uPIblwtuna059DpGCjyMuuRsYPSTRWkxDJ4S1zujzZQHvYBmtcnKRfzRvXanUTqzudTSUFLmYXxV4T9U/76X+pdvML+/4Rp7CHY9WF6u8NppWTRROD4zmaTLI4A2IvYmx3rSestnFxk+BmNMIvKRK7KLg6lcaX6rGVc7p4JhCZDmka5mZpcd7m2ILSd5G3byVjp9e6o7rWSNZp1J5TO7RnVVSUzhJUO8Ie3aAWhsbTvByXOY/aJGzctb9oWWLEVhG1dCjxZW+tGu6bE5+UeSJvYxozD2y9Weghu0L6si3vMyKKacizNW+gVLX0rp6jpLmRzWZH5RlaGi52H52b1Kp1ussrs3YEmmmMo5ZKxqlwz9t97/sonmF/f8Hbw8D2UurHCWG5gL7fTllI9WYA+pavXXvqbKiHYk2HYVT0zcsELIm8mNa2/bbeo05ym8yeToopcj12Wpk5QBAEAQBAEAQBAEAQBAEAQBAEwAgCAIAgCAIAgCAIAgCAIAgCAIAgCAIAgCAIAgCAIAgCAIAgCA+JpA1pcdgaCT1AbSmM8Aap1tUZpHyu3yPdIeovcXEe9erhHdio9v8ARVSeXk6VuamyWryh6DDqVlrExh57ZLyH95eY1U9+6T9SzqWIJEjXA6BAEAQBAEAQBAEAQBAEAQBAEAQBAEAQBAEAQBAEAQBAEAQBAEAQBAEAQBAEAQBAEAQBAEAQBAEAQBAEB58QpGzxSROJDZGuY4tNjZwINjwNisp4eUYayQnxSYZ+3+9H9Km+Y3+n2Rx8NA4OqPDD9f8Aej+lPMb/AE+yHh4E8hjDWhoFgAAByA2BQTufaAIAgCAIAgCAIAgCAIAgCAIAgCAIAgCAIAgCAIAgCAIAgCAIAgCAIAgCAIAgCAIAgCAIAgCAIAgCAIAgCAIAgCAIAgCAIAgCAIAgCAIAgCAIAgCAIAgCAIAgCAIAgCAIAgCAIAgCAIAgCAIAgCAIAgCAIAgCAIAgCAIAgCAIAgCAIAgCAIAgCAID/9k=;rotation=15;" vertex="1" parent="1">
          <mxGeometry x="1180.2" y="400.23" width="165.91" height="49.65" as="geometry" />
        </mxCell>
        <mxCell id="IUDHi638Zl7lMzYL7OI1-53" value="" style="shape=image;verticalLabelPosition=bottom;labelBackgroundColor=default;verticalAlign=top;aspect=fixed;imageAspect=0;image=data:image/png,iVBORw0KGgoAAAANSUhEUgAAAKoAAACqCAMAAAAKqCSwAAAAkFBMVEX///8AToQAToOmx+aqustriqmoxuf///0+e6PI3e/R2eLa6PScvNB/psFYfaApbJm4xdPp7fGyzeomX42No7v09vhCb5d9l7LFz9ucr8Pd4+oVXo/v9fjf6fDT4uvF2OSKsMgJVYlllrYhZpW71OxXjrF6pMDO3ug3dqC1zt1LhKrS4vIycZ2sx9hUia2jwNPXyBCJAAAKjElEQVR4nO2dCX+qOhOHIVribtHS5QiyuFTt9v2/3ZuZBAoSIEFAvW/nnHt+SiU+nfwzk4Qk1zD+7M/+7HbNO67P3vvOlVCKjbL/7B0h5sH9vRiYJvlcU/HjGzHKWKahyYwEySU7JHAlcm8IFMw7MC5AO8UupIGJV8jq65ZYv75Z3eNfMkguTtk7jj/4Qclem5h9v3tC73HLohKBe/AovQHSIDRJDCpDJfDjcO9c263UPfG6jy2FamZs5V/Lr/i11I/CLFAxqkm+j3hf58CovQi8STImEUAiWRZlr6ECRnqcEx6PlLwKkjXDn+5ZqWGf8pzlAsAKOPg8Y3Rn9nR1VvNVAkh0sFuXlNu0UWefF6kiKsSLXXe51juYRFb55QJIZGCSeQeOZaGGvn9nAqkmqsAdfLUctljpLta9vPLVBMDvNwd2i6BgP5ukGut7ld+/CtpB5LXl7ExCyqpfFZVH2fl7O7CGsd6vyqpeWQBJJDDDyDeazwnU2Ju8k9QUKk91rHvYNKn/KWqtwhQFkEi22UEC06m9q/7eGqgcd/COImiE2GNZtKriawgg0QFpJtdS6kQqFV/fq5j4vi+Mslgl3icpTqO5ymQj1tgCxZv4xza+ccmMAbuPd0w0LEjuFfMAqkZ23gW9Q+pONtXhKa261TSZ+YGut7LC+SAhqq+CYKVc9dwxU1EXBh/Q0MlKy68m2bulQDJ3wl82vNcRG3PpMVcQjGdJWR4+t5X2UJEa/i5ECMXaM83DRDrr93XSKAZnkr60Ghfl/RINd5CJ/AuYg9ZzdadCSebmXYPV34g6rWblg7vTuqRwd8cVX1mYiN8k/FImtUN1F4CtjqUzUpT6G6L2i8fFKvcOp8oBChyxmVY1W2o4wSciKCqf7FRRtcL+ntKKNsuz0FEncJ2KS8uar1Jbot37yi3AOxEVGeCPA9VCjR2/p7TmociwoN3LjUL6qsp+iHtQL9PwB2a5suAbV3tbJ2nDR3/mZlXBrOcyUS8USj1uirt+eH2lU+BvuV+b4tEEDmH0y6VOEBYJi+BTHn1SblGxXqETWWOSiKlgI/JAvpJWk9r9NT7ZWVD7YVCjx4p3fA2kDtgEySdqlMv+/Mhz7XziXjDE+gqzUxTwm9cQab7cTdYHME28v/Appx2l4wsrtL5IsxalpAWwJ+/SEqnxE6aKZO2zqWE7k2xK/UEjxbrBJ+9LEhBpgxMMx4EQ12qadanSd0yivUfPMjp7GwDqSis3VRv7HoiyJmEja3r+I/djWKoIB6ajw/M6BvJ1NIjchh844NxicIr882LZu3Gv17M+Sm4WXSr52KOVWWZ5keOtZfXYn3HxjYM4doRH2tw8ko6Bf92F1UOzhsUfHJB4SAXD3O6fiaIkhpYgVUHlk4kTo+sH4/BQxFtA1SugZjo5h2PnAhhveylTQxXJPj8J0Z5Rai8ShyprNU4hhESdPRGlxoeVJdXxKoh23o0KqDFeWFaWVEsAvB/hd4Dqbc8w9QSQ6GDaOulQAloLlVzcP6sw97zq9QUQy6CJznSZjXsNoeI0X7uoUlJ9AZDbRL0jr94R6h0J4I5Q70gAd4T6J4BroPbJAxv9LEmfvUIzDEIeDfh3ZPBrz6/8g8xm/wzjmbywt4+E2OIO0k9uvQi1SgCIyr7XSaO+ZFAZS4xKlja8YCP1JzIzroE6I0/ilYGQwCJQH4zRjDlQvARqm5BX8O0bfPYBb0puvQhVRQB2ghWjPqZQjX/oVnyJZC/sF2O3/LsG6ht5Tn8fWYICUvgz+Lef/PNIlsYr3tIsqooAltiOUl59ZgpIoT6BDPHlm2iE/95AMt179ZUsnSzqC2NPofYTVBQ1Q+/PyOs1UF+4h/pkNhqNbAxWTAESVIhO7CKr/Ye4uceo4taLUKsFMOPfL0JPH1BZQ3KyqP/Ej7HZG8+o5jRqHNLaRX145l/SJ8uHhwfe9mfMsRnUEf+dBM0bzxIpVHHrRagKAujz1pzS6qhPniQCgLCPNhIV0blWeUzPoNrMTXnUV8wFraGqBKsZKi+Nyi4tJcFKpKjreRW7Hmeo/TRqkgLeROC/HqqDLTuDykSRTqxvSQZ+vS4qy+rLM1RjJlBno8flr9O5VK6oVRbTWfBJdQJHIkDF15K8i71FGWoTnUAlr7JewMMZqp2gzp5GyQcdHlqvg9qS/ceHgXeEekcCuCPUPwH8n6PekQDuCFVe//eDanbw3KoZAXTh1RqoBQJobQ+fMLexp4GT1h+zD5sQAOyIa39FAJU+ZdVDNc2B18naBXebf3qtKACx9R/WLXS01sYb1l0QggtA/S7XBFF3AXw1BJBfHNguKKzn+bDSnlX2Kh480fFCK+pslQUQb+AJd10usUqbJ2DBueVe5c1pkzskhdI2lt3lN1nCvn5cZ1mBGnHUMMgfPUPbEQOVrjXlC4SsXskCVnuAuyYlm5Leo425iZo+18EdLnqLD8nXOUMg3ZbcSg1/OnHPLoFFYr39vrFFrVDIh2jsQydfpgMLmEv3m+UqBN4c400yJpk319q8RdLUFznHVi5BRkGef8b+NlPbGMipoTMohr/R3sqHJX4EkV794S72eGcE3xK0v+T0Ad7mQaRZW4wv2mvBip2cd2CQd0/rZweoNvkSwI9Ldod7kv2yyPqpvs8uVyiKVMq6re1YZx9KNnGJfFZ3Q3/sUumCxUXJ6vrC8qjhTMp39aJkNXdHYySVj05F+2KwesoCka7MfOWnBwew29TV3dcw7BXUfcKKsFqFflfut8btNzodb1hIXw7aw9RvbSUZoYQ01b8uJIW12N+qq3CZorblnL8K3mqQ+sobmc0w8lTqi7ofVZgpYI0DDSbKJzuAg6Pqkp1hRdVnZWCru/W9QqdpHcCxROsKv9rnuamCVSe+nrTOsOCOleoAw558QqLYqVuteBWon1+DoSuEnUSygqgz1nMp68BqOBX6gixVaXjVLDxJC/qk8qX0BT4d1+gJwJGqkjMLpYrFz4Bk04MlejYArap3dKlrGPqs1Pk5mIWH7MkD1zpD6g7Vmz3Cbi/YK+Grn2bD/btz4iZBaW6nTwXo4oKTd9iNMATQEOzvxgzWg+SVqkw7dC4bE1N6XGnBDhIBKMsUnZ8fXumjGu50U3msw6/Nk1tVYxT2UPQ7qgW0k1DZq/P4OCNl1B4OVRoYsvMS1nOidEjcL6q6V3tbkT2amr0JQlMpxOoJALvSjU8wuSJ9NavVxbDxk5kh17qRgl81UK3S+bMLDSRbQauMykAXLR4WSvl5Tw0IABJDey7lBmdwNqJVlpxaBYXUh4fYF4YDBVTw6NbtYEs/K/9nVRxlq1CxS7Bo/HjQQrOLT2Kt9KrFu/nd7I7GDlAQ1o0AH50/YfI3UsEWooqnJm0GqAJSNrafhvyYT0UBIGozPSh9WMi1yloFjw4v7pTWN8i1qgJoqKtX3+BsRVKNalkLjdmdVoxSN8qMEOSoVunJNJ0Z9SJS5VWdCZN2zduJ6VZizuOxtYEz6Xg+xfBmQMHEhIFJPuMrdGuJczS6y6Jq5u44axQ/i6djC6P+7dQ9N6DzpisS7lLJaIizejfmUjBZZr/+/32nwOjZ8ob8EopbMYkLbxf2zxL7H/ZDtis06dUHAAAAAElFTkSuQmCC;" vertex="1" parent="1">
          <mxGeometry x="1269.5" y="255" width="80" height="80" as="geometry" />
        </mxCell>
        <mxCell id="IUDHi638Zl7lMzYL7OI1-56" value="ASIC / FPGA" style="rounded=0;whiteSpace=wrap;html=1;" vertex="1" parent="1">
          <mxGeometry x="1155" y="518" width="205" height="33" as="geometry" />
        </mxCell>
      </root>
    </mxGraphModel>
  </diagram>
</mxfile>
